SplineFontDB: 3.0
FontName: Klein-Regular
FullName: Klein
FamilyName: Klein
Weight: Regular
Copyright: Copyright (c) 2016, mrkline
UComments: "2016-1-15: Created with FontForge (http://fontforge.org)"
Version: 0.1
ItalicAngle: 0
UnderlinePosition: -100
UnderlineWidth: 50
Ascent: 800
Descent: 200
InvalidEm: 0
LayerCount: 2
Layer: 0 0 "Back" 1
Layer: 1 0 "Fore" 0
XUID: [1021 77 -1879282181 14856649]
FSType: 0
OS2Version: 0
OS2_WeightWidthSlopeOnly: 0
OS2_UseTypoMetrics: 1
CreationTime: 1452917949
ModificationTime: 1453741821
PfmFamily: 17
TTFWeight: 500
TTFWidth: 5
LineGap: 100
VLineGap: 0
OS2TypoAscent: 0
OS2TypoAOffset: 1
OS2TypoDescent: 0
OS2TypoDOffset: 1
OS2TypoLinegap: 200
OS2WinAscent: 0
OS2WinAOffset: 1
OS2WinDescent: 0
OS2WinDOffset: 1
HheadAscent: 0
HheadAOffset: 1
HheadDescent: 0
HheadDOffset: 1
OS2XHeight: 430
OS2Vendor: 'PfEd'
Lookup: 4 0 1 "'liga' standard ligatures" { "'liga' standard ligatures-subtable"  } ['liga' ('DFLT' <'dflt' > 'latn' <'dflt' > ) ]
Lookup: 4 0 0 "'dlig' discretionary/historic ligatures" { "'dlig' discretionary/historic ligatures-subtable"  } ['dlig' ('DFLT' <'dflt' > 'latn' <'dflt' > ) ]
Lookup: 258 0 0 "'kern' Horizontal Kerning in Latin lookup 0" { "by class" [150,0,2] "per glyph" [150,15,0] } ['kern' ('DFLT' <'dflt' > 'latn' <'dflt' > ) ]
MarkAttachClasses: 1
DEI: 91125
KernClass2: 5 5 "by class"
 1 A
 5 V W Y
 1 T
 3 a u
 3 V W
 1 A
 39 a c d e g i j m n o p q r s u v w x y z
 3 f t
 0 {} 0 {} 0 {} 0 {} 0 {} 0 {} -146 {} 0 {} 0 {} 0 {} 0 {} 0 {} -146 {} -122 {} 0 {} 0 {} 0 {} 0 {} -81 {} 0 {} 0 {} 0 {} 0 {} 0 {} -8 {}

StartChar: l
Encoding: 108 108 0
Width: 240
VWidth: 811
Flags: HMW
LayerCount: 2
Back
SplineSet
215.725585938 16.2197265625 m 1
 215.725585938 0 l 1
 28.384765625 0 l 1
 28.384765625 16.2197265625 l 1
 85.1552734375 28.384765625 l 1
 85.1552734375 601.76171875 l 1
 28.384765625 622.84765625 l 1
 28.384765625 633.390625 l 1
 152.467773438 673.129882812 l 1
 159.766601562 673.129882812 l 1
 159.766601562 28.384765625 l 1
 215.725585938 16.2197265625 l 1
EndSplineSet
Fore
SplineSet
85 28 m 5
 85 601 l 5
 24 623 l 5
 24 634 l 5
 99 649 121 658 152 673 c 5
 160 673 l 5
 160 28 l 5
 216 16 l 5
 216 0 l 5
 28 0 l 5
 28 16 l 5
 85 28 l 5
EndSplineSet
Validated: 1
EndChar

StartChar: o
Encoding: 111 111 1
Width: 475
VWidth: 811
Flags: HMW
LayerCount: 2
Back
SplineSet
237.623046875 437.940429688 m 4
 268.44140625 437.940429688 296.826171875 432.262695312 322.778320312 420.909179688 c 4
 348.73046875 409.5546875 371.16796875 394.010742188 390.090820312 374.276367188 c 4
 409.013671875 354.541992188 423.881835938 331.0234375 434.6953125 303.719726562 c 4
 445.5078125 276.416015625 450.915039062 246.814453125 450.915039062 214.915039062 c 4
 450.915039062 183.015625 445.5078125 153.4140625 434.6953125 126.110351562 c 4
 423.881835938 98.806640625 409.013671875 75.15234375 390.090820312 55.1474609375 c 4
 371.16796875 35.142578125 348.73046875 19.59765625 322.778320312 8.513671875 c 4
 296.826171875 -2.5703125 268.44140625 -8.111328125 237.623046875 -8.111328125 c 4
 206.8046875 -8.111328125 178.419921875 -2.5703125 152.467773438 8.513671875 c 4
 126.515625 19.59765625 104.078125 35.142578125 85.1552734375 55.1474609375 c 4
 66.2314453125 75.15234375 51.3642578125 98.806640625 40.55078125 126.110351562 c 4
 29.7373046875 153.4140625 24.3310546875 183.015625 24.3310546875 214.915039062 c 4
 24.3310546875 246.814453125 29.7373046875 276.416015625 40.55078125 303.719726562 c 4
 51.3642578125 331.0234375 66.2314453125 354.541992188 85.1552734375 374.276367188 c 4
 104.078125 394.010742188 126.515625 409.5546875 152.467773438 420.909179688 c 4
 178.419921875 432.262695312 206.8046875 437.940429688 237.623046875 437.940429688 c 4
110.295898438 214.915039062 m 4
 110.295898438 155.982421875 121.513671875 110.16015625 143.952148438 77.4501953125 c 4
 166.389648438 44.7392578125 197.342773438 28.3837890625 236.811523438 28.3837890625 c 4
 276.821289062 28.3837890625 308.1796875 44.8740234375 330.887695312 77.85546875 c 4
 353.595703125 110.8359375 364.950195312 156.79296875 364.950195312 215.725585938 c 4
 364.950195312 274.118164062 353.731445312 319.668945312 331.293945312 352.379882812 c 4
 308.85546875 385.08984375 277.631835938 401.4453125 237.623046875 401.4453125 c 4
 197.614257812 401.4453125 166.390625 385.08984375 143.952148438 352.379882812 c 4
 121.514648438 319.668945312 110.295898438 273.84765625 110.295898438 214.915039062 c 4
EndSplineSet
Fore
SplineSet
451 215 m 3
 451 87 360 -8 239 -8 c 3
 110 -8 24 91 24 215 c 3
 24 344 118 438 236 438 c 3
 364 438 451 339 451 215 c 3
238 393 m 3
 146 393 110 316 110 215 c 3
 110 115 145 36 237 36 c 3
 329 36 365 115 365 216 c 3
 365 316 330 393 238 393 c 3
EndSplineSet
EndChar

StartChar: x
Encoding: 120 120 2
Width: 468
VWidth: 811
Flags: HMW
LayerCount: 2
Back
SplineSet
256.276367188 270.874023438 m 1
 320.345703125 355.215820312 l 2
 326.833984375 363.866210938 330.888671875 370.084960938 332.510742188 373.869140625 c 0
 334.1328125 377.654296875 334.943359375 381.708984375 334.943359375 386.034179688 c 0
 334.943359375 391.981445312 331.293945312 397.388671875 323.995117188 402.254882812 c 0
 316.696289062 407.120117188 304.666992188 410.905273438 287.90625 413.608398438 c 1
 287.90625 429.828125 l 1
 454.971679688 429.828125 l 1
 454.971679688 413.608398438 l 1
 441.99609375 410.905273438 431.046875 408.202148438 422.125976562 405.499023438 c 0
 413.205078125 402.795898438 405.23046875 399.416992188 398.202148438 395.361328125 c 0
 391.172851562 391.306640625 384.684570312 386.305664062 378.737304688 380.358398438 c 0
 372.791015625 374.411132812 366.302734375 367.112304688 359.2734375 358.4609375 c 2
 272.497070312 245.732421875 l 1
 399.012695312 51.091796875 l 2
 406.58203125 39.73828125 414.961914062 31.6279296875 424.153320312 26.7626953125 c 0
 433.34375 21.896484375 448.211914062 18.3818359375 468.756835938 16.21875 c 1
 468.756835938 -0.0009765625 l 1
 266.818359375 -0.0009765625 l 1
 266.818359375 16.21875 l 1
 286.282226562 18.3818359375 299.123046875 20.4091796875 305.340820312 22.3017578125 c 0
 311.55859375 24.193359375 314.666992188 27.84375 314.666992188 33.25 c 0
 314.666992188 35.953125 313.856445312 39.0615234375 312.234375 42.576171875 c 0
 310.612304688 46.08984375 307.09765625 51.90234375 301.69140625 60.0126953125 c 2
 222.212890625 181.662109375 l 1
 141.11328125 74.6103515625 l 2
 135.166015625 67.041015625 131.24609375 61.0947265625 129.354492188 56.76953125 c 0
 127.462890625 52.4443359375 126.515625 48.6591796875 126.515625 45.4150390625 c 0
 126.515625 37.845703125 130.571289062 31.763671875 138.680664062 27.16796875 c 0
 146.791015625 22.572265625 160.307617188 18.921875 179.231445312 16.21875 c 1
 179.231445312 -0.0009765625 l 1
 0 -0.0009765625 l 1
 0 16.21875 l 1
 27.033203125 20.00390625 48.2548828125 26.0869140625 63.6630859375 34.466796875 c 0
 79.072265625 42.8466796875 93.2646484375 55.9580078125 106.241210938 73.7998046875 c 2
 205.182617188 208.42578125 l 1
 94.88671875 378.736328125 l 2
 91.1025390625 384.143554688 87.1826171875 388.739257812 83.1279296875 392.524414062 c 0
 79.072265625 396.30859375 74.2060546875 399.552734375 68.529296875 402.255859375 c 0
 62.8525390625 404.958984375 56.0947265625 407.122070312 48.2548828125 408.744140625 c 0
 40.4150390625 410.366210938 30.818359375 411.98828125 19.4638671875 413.610351562 c 1
 19.4638671875 429.830078125 l 1
 102.185546875 429.830078125 l 4
 223.025390625 429.830078125 l 1
 223.025390625 413.610351562 l 1
 206.8046875 412.529296875 195.586914062 410.500976562 189.368164062 407.52734375 c 0
 183.150390625 404.553710938 180.041992188 400.904296875 180.041992188 396.579101562 c 0
 180.041992188 390.631835938 184.096679688 381.7109375 192.20703125 369.81640625 c 2
 256.276367188 270.874023438 l 1
EndSplineSet
Fore
SplineSet
288 414 m 1
 288 430 l 1
 455 430 l 1
 455 414 l 1
 419 404 414 402 369 342 c 2
 283 230 l 1
 399 51 l 2
 415 26 430 20 469 16 c 1
 469 0 l 1
 267 0 l 1
 267 16 l 1
 286 18 299 20 305 22 c 0
 311 24 315 27 315 33 c 0
 315 44 309 49 302 60 c 2
 233 165 l 1
 152 58 l 2
 146 49 142 43 142 37 c 0
 142 24 159 19 179 16 c 1
 179 0 l 1
 0 0 l 1
 0 16 l 1
 55 23 72 49 99 85 c 2
 198 220 l 1
 95 379 l 1
 78 403 55 409 19 414 c 1
 19 430 l 1
 223 430 l 1
 223 414 l 1
 204 412 180 411 180 397 c 0
 180 391 184 382 192 370 c 2
 249 282 l 1
 313 367 l 2
 321 378 329 386 329 393 c 0
 329 401 319 408 288 414 c 1
EndSplineSet
Validated: 1
EndChar

StartChar: y
Encoding: 121 121 3
Width: 466
VWidth: 811
Flags: HMW
LayerCount: 2
Back
SplineSet
264.385742188 116.784179688 m 1
 340.619140625 349.54296875 l 2
 344.404296875 360.356445312 346.295898438 370.088867188 346.295898438 378.739257812 c 0
 346.295898438 388.471679688 341.565429688 396.446289062 332.103515625 402.6640625 c 0
 322.641601562 408.881835938 306.557617188 412.53125 283.849609375 413.612304688 c 1
 283.849609375 429.83203125 l 1
 466.32421875 429.83203125 l 1
 466.32421875 413.612304688 l 1
 450.645507812 410.909179688 437.8046875 408.071289062 427.802734375 405.096679688 c 0
 417.80078125 402.123046875 409.5546875 398.337890625 403.067382812 393.7421875 c 0
 396.579101562 389.146484375 391.307617188 383.19921875 387.252929688 375.900390625 c 0
 383.197265625 368.6015625 379.278320312 359.544921875 375.493164062 348.731445312 c 2
 217.34765625 -114.349609375 l 2
 211.401367188 -131.650390625 205.182617188 -145.842773438 198.6953125 -156.926757812 c 0
 192.20703125 -168.010742188 185.71875 -176.796875 179.231445312 -183.284179688 c 0
 171.12109375 -192.475585938 161.119140625 -199.369140625 149.223632812 -203.96484375 c 0
 137.329101562 -208.560546875 124.353515625 -210.858398438 110.295898438 -210.858398438 c 4
 90.291015625 -210.858398438 74.2060546875 -205.857421875 62.041015625 -195.854492188 c 4
 49.876953125 -185.852539062 43.7939453125 -172.741210938 43.7939453125 -156.521484375 c 4
 43.7939453125 -144.0859375 47.8486328125 -133.94921875 55.958984375 -126.109375 c 4
 64.0693359375 -118.268554688 75.1533203125 -114.349609375 89.2099609375 -114.349609375 c 4
 100.0234375 -114.349609375 108.268554688 -117.1875 113.9453125 -122.865234375 c 4
 119.622070312 -128.541992188 123.8125 -138.138671875 126.515625 -151.655273438 c 4
 127.596679688 -161.928710938 129.21875 -168.551757812 131.381835938 -171.525390625 c 0
 133.544921875 -174.5 137.330078125 -175.986328125 142.736328125 -175.986328125 c 0
 151.927734375 -175.986328125 160.172851562 -170.850585938 167.47265625 -160.577148438 c 0
 174.771484375 -150.3046875 182.475585938 -133.002929688 190.5859375 -108.672851562 c 2
 223.836914062 -6.4873046875 l 1
 65.69140625 381.170898438 l 2
 60.826171875 391.443359375 54.0673828125 399.012695312 45.4169921875 403.87890625 c 0
 36.765625 408.745117188 24.3310546875 411.989257812 8.1103515625 413.610351562 c 1
 8.1103515625 429.831054688 l 1
 208.427734375 429.831054688 l 1
 208.427734375 413.610351562 l 1
 186.80078125 412.529296875 172.47265625 410.908203125 165.444335938 408.745117188 c 0
 158.415039062 406.58203125 154.901367188 402.796875 154.901367188 397.389648438 c 0
 154.901367188 392.524414062 157.063476562 384.4140625 161.388671875 373.059570312 c 2
 260.331054688 116.784179688 l 1
 264.385742188 116.784179688 l 1
EndSplineSet
Fore
SplineSet
44 -157 m 3
 44 -131 62 -114 89 -114 c 3
 132 -114 119 -159 135 -159 c 0
 144 -159 157 -146 168 -114 c 2
 214 18 l 1
 66 381 l 1
 55 403 39 411 8 414 c 1
 8 430 l 1
 208 430 l 1
 208 414 l 1
 182 414 155 413 155 397 c 0
 155 392 157 384 161 373 c 2
 251 141 l 1
 255 141 l 1
 331 374 l 2
 333 380 334 384 334 389 c 0
 334 403 324 414 284 414 c 1
 284 430 l 1
 466 430 l 1
 466 414 l 1
 430 408 402 402 387 376 c 0
 383 369 379 360 375 349 c 2
 217 -117 l 2
 191 -193 152 -211 110 -211 c 3
 74 -211 44 -192 44 -157 c 3
EndSplineSet
Validated: 1
EndChar

StartChar: z
Encoding: 122 122 4
Width: 415
VWidth: 811
Flags: HMW
LayerCount: 2
Fore
SplineSet
383 430 m 1
 383 408 l 1
 127 26 l 1
 315 26 l 1
 354 157 l 1
 371 155 l 1
 366 0 l 1
 32 0 l 1
 32 23 l 1
 285 404 l 1
 106 404 l 1
 66 268 l 1
 49 269 l 1
 58 430 l 1
 383 430 l 1
EndSplineSet
Validated: 1
EndChar

StartChar: i
Encoding: 105 105 5
Width: 244
VWidth: 811
Flags: HMW
LayerCount: 2
Back
SplineSet
72.1787109375 579.865234375 m 4
 72.1787109375 595.00390625 76.9091796875 607.57421875 86.37109375 617.576171875 c 4
 95.8330078125 627.578125 108.404296875 632.580078125 124.083007812 632.580078125 c 4
 140.302734375 632.580078125 153.143554688 627.578125 162.60546875 617.576171875 c 4
 172.067382812 607.57421875 176.797851562 595.00390625 176.797851562 579.865234375 c 4
 176.797851562 565.807617188 172.067382812 553.642578125 162.60546875 543.370117188 c 4
 153.143554688 533.096679688 140.302734375 527.9609375 124.083007812 527.9609375 c 4
 108.404296875 527.9609375 95.8330078125 533.096679688 86.37109375 543.370117188 c 4
 76.9091796875 553.642578125 72.1787109375 565.807617188 72.1787109375 579.865234375 c 4
223.8359375 16.2197265625 m 5
 223.8359375 0 l 5
 24.330078125 0 l 5
 24.330078125 16.2197265625 l 5
 85.9658203125 28.384765625 l 5
 85.9658203125 365.760742188 l 5
 25.9521484375 387.658203125 l 5
 25.9521484375 399.01171875 l 5
 155.711914062 437.940429688 l 5
 163.010742188 437.940429688 l 5
 163.010742188 28.384765625 l 5
 223.8359375 16.2197265625 l 5
EndSplineSet
Fore
SplineSet
154 438 m 1
 163 438 l 1
 163 28 l 1
 224 16 l 1
 224 0 l 1
 24 0 l 1
 24 16 l 1
 86 28 l 1
 86 366 l 1
 26 388 l 1
 26 399 l 1
 101 414 123 423 154 438 c 1
124 528 m 3
 95 528 72 552 72 580 c 3
 72 611 93 633 124 633 c 3
 156 633 177 612 177 580 c 3
 177 550 155 528 124 528 c 3
EndSplineSet
Validated: 1
EndChar

StartChar: t
Encoding: 116 116 6
Width: 278
VWidth: 811
Flags: HMW
LayerCount: 2
Back
SplineSet
598.655273438 56.76953125 m 1
 569.458984375 18.6533203125 532.153320312 0 484.303710938 0 c 0
 432.400390625 0 368.331054688 20.275390625 368.331054688 102.185546875 c 2
 368.331054688 373.87109375 l 1
 300.20703125 373.87109375 l 1
 300.20703125 400.633789062 l 1
 379.684570312 403.877929688 415.369140625 448.483398438 414.557617188 548.236328125 c 1
 445.375976562 548.236328125 l 1
 445.375976562 400.633789062 l 1
 561.348632812 400.633789062 l 1
 561.348632812 373.87109375 l 1
 445.375976562 373.87109375 l 1
 445.375976562 278.984375 l 0
 445.375976562 139.4921875 l 2
 445.375976562 65.69140625 464.83984375 32.4404296875 506.201171875 32.4404296875 c 0
 530.53125 32.4404296875 549.18359375 42.9833984375 576.7578125 74.6123046875 c 1
 598.655273438 56.76953125 l 1
162.336914062 -8.1103515625 m 0
 136.384765625 -8.1103515625 115.298828125 -0.5419921875 99.0791015625 14.59765625 c 0
 89.3466796875 23.7880859375 82.453125 35.27734375 78.3984375 49.064453125 c 0
 74.34375 62.8515625 72.31640625 82.1806640625 72.31640625 107.05078125 c 2
 72.31640625 401.444335938 l 1
 19.6005859375 401.444335938 l 1
 17.9794921875 414.419921875 l 1
 134.762695312 536.0703125 l 1
 149.361328125 534.448242188 l 1
 149.361328125 429.829101562 l 1
 265.333984375 429.829101562 l 1
 258.845703125 401.444335938 l 1
 149.361328125 401.444335938 l 1
 149.361328125 114.350585938 l 2
 149.361328125 94.345703125 149.90234375 80.2880859375 150.983398438 72.177734375 c 0
 152.064453125 64.068359375 153.956054688 57.580078125 156.659179688 52.7138671875 c 0
 165.310546875 37.5751953125 178.827148438 30.005859375 197.209960938 30.005859375 c 0
 208.0234375 30.005859375 218.971679688 32.98046875 230.055664062 38.9267578125 c 0
 241.139648438 44.8740234375 250.736328125 52.984375 258.845703125 63.2568359375 c 1
 272.6328125 52.7138671875 l 1
 260.198242188 33.791015625 244.248046875 18.9228515625 224.784179688 8.1103515625 c 0
 205.3203125 -2.703125 184.50390625 -8.1103515625 162.336914062 -8.1103515625 c 0
EndSplineSet
Fore
SplineSet
271 53 m 1
 250 21 211 -8 161 -8 c 0
 119 -8 88 14 77 49 c 0
 73 63 71 82 71 107 c 2
 71 396 l 1
 16 396 l 1
 16 430 l 1
 78 432 124 496 127 568 c 1
 148 568 l 1
 148 430 l 1
 264 430 l 1
 264 396 l 1
 148 396 l 1
 148 114 l 2
 148 92 148 65 155 53 c 0
 164 38 176 30 195 30 c 0
 221 30 244 47 257 63 c 1
 271 53 l 1
EndSplineSet
Validated: 1
EndChar

StartChar: s
Encoding: 115 115 7
Width: 347
VWidth: 811
Flags: HMW
LayerCount: 2
Back
SplineSet
191.396484375 437.940429688 m 4
 209.779296875 437.940429688 227.758789062 436.72265625 245.331054688 434.290039062 c 4
 262.90234375 431.856445312 276.825195312 428.477539062 287.09765625 424.15234375 c 5
 287.09765625 311.422851562 l 5
 270.067382812 311.422851562 l 5
 261.95703125 379.546875 230.328125 413.609375 175.1796875 413.609375 c 4
 153.552734375 413.609375 136.38671875 407.796875 123.680664062 396.172851562 c 4
 110.974609375 384.548828125 104.622070312 368.463867188 104.622070312 347.918945312 c 4
 104.622070312 330.077148438 109.624023438 315.614257812 119.625976562 304.530273438 c 4
 129.627929688 293.446289062 142.0625 283.849609375 156.930664062 275.740234375 c 4
 171.798828125 267.629882812 188.018554688 259.790039062 205.590820312 252.220703125 c 4
 223.163085938 244.65234375 239.3828125 235.595703125 254.250976562 225.052734375 c 4
 269.119140625 214.509765625 281.553710938 201.263671875 291.555664062 185.313476562 c 4
 301.55859375 169.36328125 306.559570312 148.682617188 306.559570312 123.272460938 c 4
 306.559570312 82.7216796875 293.177734375 50.6875 266.415039062 27.1689453125 c 4
 239.65234375 3.6494140625 203.29296875 -8.1103515625 157.3359375 -8.1103515625 c 4
 140.034179688 -8.1103515625 120.975585938 -6.48828125 100.16015625 -3.244140625 c 4
 79.34375 0 61.0966796875 4.3251953125 45.41796875 9.732421875 c 5
 40.5517578125 141.114257812 l 5
 60.015625 141.114257812 l 5
 67.5849609375 57.8505859375 102.1875 16.2197265625 163.823242188 16.2197265625 c 4
 188.153320312 16.2197265625 207.6171875 22.978515625 222.215820312 36.4951171875 c 4
 236.813476562 50.01171875 244.112304688 68.1240234375 244.112304688 90.83203125 c 4
 244.112304688 109.754882812 239.111328125 125.1640625 229.109375 137.05859375 c 4
 219.107421875 148.954101562 206.536132812 159.361328125 191.397460938 168.282226562 c 4
 176.258789062 177.203125 159.903320312 185.583984375 142.331054688 193.423828125 c 4
 124.759765625 201.263671875 108.404296875 210.454101562 93.2646484375 220.997070312 c 4
 78.1259765625 231.540039062 65.5556640625 244.516601562 55.5537109375 259.92578125 c 4
 45.5517578125 275.334960938 40.5498046875 295.204101562 40.5498046875 319.534179688 c 4
 40.5498046875 357.380859375 53.5263671875 386.577148438 79.4775390625 407.122070312 c 4
 105.4296875 427.666992188 142.736328125 437.940429688 191.396484375 437.940429688 c 4
EndSplineSet
Fore
SplineSet
41 320 m 3
 41 403 86 438 174 438 c 3
 207 438 265 433 287 424 c 1
 287 311 l 1
 270 311 l 1
 262 379 230 393 175 393 c 3
 133 393 105 375 105 348 c 3
 105 309 130 291 157 276 c 0
 188 259 227 245 255 225 c 0
 285 204 307 174 307 123 c 3
 307 38 251 -8 164 -8 c 3
 128 -8 73 0 45 10 c 1
 41 141 l 1
 60 141 l 1
 67 57 102 36 164 36 c 3
 229 36 244 66 244 91 c 3
 244 132 218 153 191 169 c 0
 160 187 122 201 93 221 c 0
 64 241 41 271 41 320 c 3
EndSplineSet
Validated: 1
EndChar

StartChar: h
Encoding: 104 104 8
Width: 506
VWidth: 811
Flags: HMW
LayerCount: 2
Back
SplineSet
219.78125 16.2197265625 m 1
 219.780273438 0.0009765625 l 1
 20.2744140625 0.0009765625 l 1
 20.2744140625 16.220703125 l 1
 81.91015625 28.3857421875 l 1
 81.91015625 600.952148438 l 1
 21.896484375 622.848632812 l 1
 21.896484375 634.203125 l 1
 150.844726562 673.130859375 l 1
 158.955078125 673.130859375 l 1
 158.955078125 370.627929688 l 1
 183.826171875 392.254882812 210.18359375 408.879882812 238.02734375 420.50390625 c 0
 265.872070312 432.127929688 293.581054688 437.940429688 321.155273438 437.940429688 c 0
 342.782226562 437.940429688 361.975585938 433.615234375 378.737304688 424.96484375 c 0
 395.498046875 416.313476562 407.663085938 404.418945312 415.232421875 389.280273438 c 0
 417.39453125 384.955078125 419.15234375 380.224609375 420.50390625 375.087890625 c 0
 421.856445312 369.952148438 422.9375 363.05859375 423.748046875 354.408203125 c 0
 424.559570312 345.756835938 425.100585938 335.078125 425.370117188 322.372070312 c 0
 425.640625 309.666992188 425.775390625 293.58203125 425.775390625 274.118164062 c 2
 425.775390625 27.57421875 l 1
 486.600585938 16.2197265625 l 1
 486.600585938 0 l 1
 287.90625 0 l 1
 287.90625 16.2197265625 l 1
 348.73046875 27.57421875 l 1
 348.73046875 266.0078125 l 2
 348.73046875 289.256835938 348.055664062 307.774414062 346.703125 321.561523438 c 0
 345.3515625 335.348632812 342.783203125 346.837890625 338.998046875 356.029296875 c 0
 328.724609375 380.900390625 307.638671875 393.334960938 275.740234375 393.334960938 c 0
 230.32421875 393.334960938 191.396484375 375.762695312 158.956054688 340.620117188 c 1
 158.956054688 28.384765625 l 1
 219.78125 16.2197265625 l 1
EndSplineSet
Fore
SplineSet
149 673 m 5
 159 673 l 5
 159 385 l 5
 200 421 254 438 321 438 c 7
 370 438 410 414 421 375 c 4
 426 357 426 337 426 315 c 6
 426 315 426 124 426 28 c 5
 487 16 l 5
 487 0 l 5
 288 0 l 5
 288 16 l 5
 349 28 l 5
 349 266 l 6
 349 338 345 383 276 383 c 7
 231 383 191 368 159 333 c 5
 159 28 l 5
 220 16 l 5
 220 0 l 5
 20 0 l 5
 20 16 l 5
 82 28 l 5
 82 601 l 5
 21 623 l 5
 21 634 l 5
 96 649 118 658 149 673 c 5
EndSplineSet
Validated: 1
EndChar

StartChar: b
Encoding: 98 98 9
Width: 484
VWidth: 811
Flags: HMW
LayerCount: 2
Back
SplineSet
237.623046875 -8.1103515625 m 4
 195.9921875 -8.1103515625 158.684570312 4.32421875 125.703125 29.1953125 c 5
 121.6484375 29.1953125 l 5
 84.3427734375 1.62109375 l 5
 71.3662109375 1.62109375 l 5
 71.3662109375 600.950195312 l 5
 12.1630859375 622.84765625 l 5
 12.1630859375 633.390625 l 5
 141.112304688 673.12890625 l 5
 149.22265625 673.12890625 l 5
 149.22265625 382.791015625 l 5
 183.284179688 419.556640625 224.375 437.939453125 272.494140625 437.939453125 c 4
 298.987304688 437.939453125 323.181640625 432.9375 345.079101562 422.935546875 c 4
 366.975585938 412.93359375 385.899414062 398.876953125 401.848632812 380.764648438 c 4
 417.798828125 362.65234375 430.099609375 341.025390625 438.75 315.884765625 c 4
 447.401367188 290.743164062 451.7265625 263.034179688 451.7265625 232.756835938 c 4
 451.7265625 198.6953125 446.319335938 166.930664062 435.505859375 137.46484375 c 4
 424.693359375 107.998046875 409.689453125 82.4521484375 390.49609375 60.8251953125 c 4
 371.301757812 39.1982421875 348.59375 22.302734375 322.372070312 10.1376953125 c 4
 296.149414062 -2.02734375 267.900390625 -8.1103515625 237.623046875 -8.1103515625 c 4
237.62109375 19.462890625 m 4
 257.084960938 19.462890625 274.659179688 24.0595703125 290.337890625 33.2509765625 c 4
 306.016601562 42.4423828125 319.3984375 55.2822265625 330.482421875 71.7724609375 c 4
 341.56640625 88.2626953125 350.08203125 108.267578125 356.029296875 131.787109375 c 4
 361.975585938 155.305664062 364.950195312 181.393554688 364.950195312 210.047851562 c 4
 364.950195312 267.359375 353.731445312 312.370117188 331.293945312 345.080078125 c 4
 308.85546875 377.790039062 277.90234375 394.145507812 238.43359375 394.145507812 c 4
 220.049804688 394.145507812 203.2890625 390.360351562 188.150390625 382.791015625 c 4
 173.01171875 375.221679688 160.03515625 364.94921875 149.22265625 351.973632812 c 5
 149.22265625 121.649414062 l 6
 149.22265625 90.8310546875 157.197265625 66.095703125 173.146484375 47.4423828125 c 4
 189.096679688 28.7900390625 210.587890625 19.462890625 237.62109375 19.462890625 c 4
EndSplineSet
Fore
SplineSet
71 601 m 1
 12 622 l 1
 12 633 l 1
 87 648 110 658 141 673 c 1
 149 673 l 1
 149 393 l 1
 183 429 224 438 272 438 c 3
 388 438 452 349 452 233 c 0
 452 98 370 -8 238 -8 c 0
 197 -8 159 4 126 29 c 1
 122 29 l 1
 84 2 l 1
 71 2 l 1
 71 601 l 1
149 122 m 2
 149 64 181 36 237 36 c 3
 321 36 365 124 365 210 c 3
 365 308 328 393 238 393 c 3
 197 393 168 365 149 341 c 1
 149 122 l 2
EndSplineSet
Validated: 1
EndChar

StartChar: v
Encoding: 118 118 10
Width: 456
VWidth: 811
Flags: HMW
LayerCount: 2
Back
SplineSet
211.670898438 -8.1103515625 m 5
 66.5029296875 378.739257812 l 6
 63.7998046875 385.227539062 61.2314453125 390.499023438 58.7978515625 394.553710938 c 4
 56.365234375 398.608398438 53.12109375 401.98828125 49.06640625 404.69140625 c 4
 45.01171875 407.39453125 39.740234375 409.286132812 33.251953125 410.3671875 c 4
 26.763671875 411.448242188 18.3837890625 412.529296875 8.1103515625 413.610351562 c 5
 8.1103515625 429.831054688 l 5
 209.239257812 429.831054688 l 5
 209.239257812 413.610351562 l 5
 185.990234375 412.529296875 170.850585938 410.501953125 163.822265625 407.528320312 c 4
 156.79296875 404.5546875 153.279296875 400.09375 153.279296875 394.146484375 c 4
 153.279296875 387.659179688 154.901367188 379.548828125 158.14453125 369.81640625 c 6
 251.41015625 100.564453125 l 5
 254.654296875 100.564453125 l 5
 342.2421875 351.974609375 l 6
 347.108398438 366.573242188 349.541015625 377.385742188 349.541015625 384.415039062 c 4
 349.541015625 392.524414062 346.02734375 398.471679688 338.998046875 402.256835938 c 4
 331.96875 406.041992188 316.290039062 409.826171875 291.959960938 413.611328125 c 5
 291.959960938 429.83203125 l 5
 456.592773438 429.83203125 l 5
 456.592773438 413.611328125 l 5
 441.454101562 410.908203125 429.2890625 408.0703125 420.09765625 405.095703125 c 4
 410.907226562 402.122070312 403.47265625 398.336914062 397.795898438 393.741210938 c 4
 392.118164062 389.145507812 387.522460938 383.333007812 384.008789062 376.303710938 c 4
 380.494140625 369.275390625 377.115234375 360.89453125 373.87109375 351.163085938 c 6
 247.35546875 -8.1103515625 l 5
 211.670898438 -8.1103515625 l 5
EndSplineSet
Fore
SplineSet
292 414 m 1
 292 430 l 1
 457 430 l 1
 457 414 l 1
 422 408 397 402 384 376 c 0
 381 369 377 361 374 351 c 2
 247 -8 l 1
 212 -8 l 1
 67 379 l 2
 60 396 53 407 33 410 c 0
 27 411 19 413 8 414 c 1
 8 430 l 1
 209 430 l 1
 209 414 l 1
 180 412 153 413 153 394 c 0
 153 388 155 380 158 370 c 2
 244 121 l 1
 247 121 l 1
 335 372 l 0
 336 375 337 378 337 381 c 0
 337 396 322 411 292 414 c 1
EndSplineSet
Validated: 1
EndChar

StartChar: u
Encoding: 117 117 11
Width: 495
VWidth: 811
Flags: HMW
LayerCount: 2
Back
SplineSet
267.629882812 413.610351562 m 5
 267.62890625 429.83203125 l 5
 405.499023438 429.83203125 l 5
 405.499023438 60.826171875 l 5
 460.647460938 41.3623046875 l 5
 460.647460938 31.630859375 l 5
 338.997070312 -8.1083984375 l 5
 333.3203125 -8.1083984375 l 5
 333.3203125 65.6923828125 l 5
 330.076171875 66.50390625 l 5
 310.612304688 42.173828125 288.4453125 23.65625 263.57421875 10.9501953125 c 4
 238.703125 -1.755859375 212.481445312 -8.1083984375 184.907226562 -8.1083984375 c 4
 162.740234375 -8.1083984375 143.681640625 -3.783203125 127.731445312 4.8671875 c 4
 111.782226562 13.5185546875 100.022460938 25.68359375 92.453125 41.3623046875 c 4
 90.2900390625 46.228515625 88.3984375 51.5 86.7763671875 57.1767578125 c 4
 85.154296875 62.8544921875 83.9375 69.8828125 83.126953125 78.2626953125 c 4
 82.3154296875 86.6435546875 81.7744140625 97.05078125 81.5048828125 109.485351562 c 4
 81.234375 121.920898438 81.099609375 137.599609375 81.099609375 156.5234375 c 6
 81.099609375 401.4453125 l 5
 20.2744140625 413.610351562 l 5
 20.2744140625 429.830078125 l 5
 158.14453125 429.830078125 l 5
 158.14453125 156.5234375 l 6
 158.14453125 131.112304688 158.819335938 111.647460938 160.171875 98.130859375 c 4
 161.5234375 84.6142578125 164.091796875 73.80078125 167.876953125 65.69140625 c 4
 172.202148438 56.5 179.231445312 49.201171875 188.962890625 43.7939453125 c 4
 198.6953125 38.38671875 210.58984375 35.68359375 224.647460938 35.68359375 c 4
 243.5703125 35.68359375 261.953125 40.5498046875 279.794921875 50.2822265625 c 4
 297.63671875 60.013671875 313.857421875 74.0712890625 328.455078125 92.4541015625 c 5
 328.455078125 401.4453125 l 5
 267.629882812 413.610351562 l 5
EndSplineSet
Fore
SplineSet
339 -8 m 5
 333 -8 l 5
 333 49 l 5
 330 49 l 5
 298 8 251 -8 185 -8 c 4
 125 -8 89 24 83 79 c 4
 81 98 81 115 81 137 c 6
 81 401 l 5
 20 414 l 5
 20 430 l 5
 158 430 l 5
 158 157 l 6
 158 88 159 36 225 36 c 4
 271 36 304 80 328 109 c 5
 328 304 l 4
 328 401 l 5
 268 414 l 5
 268 430 l 5
 406 430 l 5
 406 61 l 5
 467 42 l 5
 467 31 l 5
 392 16 370 7 339 -8 c 5
EndSplineSet
Validated: 1
EndChar

StartChar: c
Encoding: 99 99 12
Width: 433
VWidth: 811
Flags: HMWO
LayerCount: 2
Back
SplineSet
234.37890625 -8.1103515625 m 0
 205.182617188 -8.1103515625 178.559570312 -2.8388671875 154.499023438 7.7041015625 c 0
 130.439453125 18.2470703125 109.624023438 33.115234375 92.0517578125 52.3095703125 c 0
 74.4794921875 71.50390625 60.828125 94.4814453125 51.095703125 121.244140625 c 0
 41.3642578125 148.0078125 36.498046875 177.338867188 36.498046875 209.23828125 c 0
 36.498046875 242.758789062 41.76953125 273.44140625 52.3125 301.286132812 c 0
 62.85546875 329.129882812 77.7236328125 353.189453125 96.91796875 373.46484375 c 0
 116.111328125 393.739257812 138.819335938 409.5546875 165.041992188 420.908203125 c 0
 191.263671875 432.262695312 220.32421875 437.939453125 252.223632812 437.939453125 c 0
 272.768554688 437.939453125 291.961914062 435.37109375 309.8046875 430.234375 c 0
 327.646484375 425.098632812 343.055664062 418.205078125 356.03125 409.5546875 c 0
 369.0078125 400.903320312 379.280273438 390.765625 386.849609375 379.141601562 c 0
 394.41796875 367.517578125 398.203125 355.216796875 398.203125 342.241210938 c 0
 398.203125 328.184570312 394.958984375 316.965820312 388.471679688 308.5859375 c 0
 381.983398438 300.205078125 372.791992188 296.014648438 360.897460938 296.014648438 c 0
 332.782226562 296.014648438 316.83203125 313.045898438 313.047851562 347.108398438 c 0
 311.42578125 360.625 309.127929688 371.573242188 306.154296875 379.953125 c 0
 303.1796875 388.333984375 299.395507812 394.95703125 294.798828125 399.823242188 c 0
 290.203125 404.689453125 284.662109375 407.932617188 278.173828125 409.5546875 c 0
 271.685546875 411.176757812 263.845703125 411.98828125 254.655273438 411.98828125 c 0
 211.401367188 411.98828125 178.015625 395.092773438 154.49609375 361.30078125 c 0
 130.977539062 327.508789062 119.217773438 282.227539062 119.217773438 225.458007812 c 0
 119.217773438 169.76953125 131.3828125 126.786132812 155.712890625 96.5087890625 c 0
 180.04296875 66.2314453125 214.375 51.0927734375 258.709960938 51.0927734375 c 0
 283.040039062 51.0927734375 305.8828125 55.958984375 327.239257812 65.69140625 c 0
 348.595703125 75.4228515625 366.573242188 90.291015625 381.170898438 110.295898438 c 2
 390.091796875 122.4609375 l 1
 405.500976562 114.350585938 l 1
 401.4453125 103.807617188 l 2
 387.388671875 68.1240234375 365.897460938 40.5498046875 336.971679688 21.0859375 c 0
 308.044921875 1.6220703125 273.84765625 -8.1103515625 234.37890625 -8.1103515625 c 0
EndSplineSet
Fore
SplineSet
398 342 m 3
 398 316 386 296 361 296 c 3
 333 296 317 313 313 347 c 0
 309 383 287 393 251 393 c 3
 149 393 106 322 106 225 c 3
 106 124 162 36 259 36 c 3
 315 36 356 75 381 110 c 2
 390 122 l 1
 406 114 l 1
 401 104 l 2
 376 39 320 -8 234 -8 c 3
 115 -8 36 84 36 209 c 3
 36 343 124 438 252 438 c 3
 319 438 398 402 398 342 c 3
EndSplineSet
Validated: 1
EndChar

StartChar: e
Encoding: 101 101 13
Width: 449
VWidth: 811
Flags: HMW
LayerCount: 2
Back
SplineSet
394.146484375 342.2421875 m 3
 394.146484375 316.290039062 381.981445312 296.014648438 356.83984375 296.014648438 c 3
 328.455078125 296.014648438 313.045898438 313.045898438 308.991210938 347.108398438 c 0
 304.935546875 382.791992188 282.227539062 393.334960938 246.543945312 393.334960938 c 3
 144.358398438 393.334960938 102.185546875 322.778320312 102.185546875 225.458007812 c 3
 102.185546875 124.083007812 158.14453125 36.4951171875 254.654296875 36.4951171875 c 3
 310.61328125 36.4951171875 351.973632812 75.4228515625 377.115234375 110.295898438 c 2
 386.036132812 122.4609375 l 1
 401.4453125 114.350585938 l 1
 397.389648438 103.807617188 l 2
 372.249023438 38.927734375 316.290039062 -8.1103515625 230.32421875 -8.1103515625 c 3
 111.107421875 -8.1103515625 32.4404296875 84.34375 32.4404296875 209.23828125 c 3
 32.4404296875 343.052734375 120.028320312 437.940429688 248.166015625 437.940429688 c 3
 315.478515625 437.940429688 394.146484375 402.255859375 394.146484375 342.2421875 c 3
EndSplineSet
Fore
SplineSet
105 187 m 2
 105 145 140 36 254 36 c 0
 310 36 357 73 383 105 c 2
 393 118 l 1
 406 109 l 1
 401 98 l 2
 375 36 312 -8 227 -8 c 0
 130 -8 72 48 46 120 c 0
 36 147 32 176 32 208 c 0
 32 315 85 390 161 422 c 0
 188 433 217 438 249 438 c 3
 384 438 417 346 417 211 c 1
 412 206 l 1
 104 206 l 1
 105 187 l 2
241 393 m 7
 166 393 104 327 104 248 c 1
 349 248 l 1
 347 348 305 393 241 393 c 7
EndSplineSet
EndChar

StartChar: d
Encoding: 100 100 14
Width: 497
VWidth: 811
Flags: HMW
LayerCount: 2
Back
SplineSet
204.372070312 -8.1103515625 m 0
 180.583007812 -8.1103515625 158.413085938 -2.7041015625 137.868164062 8.109375 c 0
 117.323242188 18.921875 99.4814453125 33.92578125 84.3427734375 53.1201171875 c 0
 69.203125 72.3134765625 57.4443359375 95.1572265625 49.0634765625 121.650390625 c 0
 40.68359375 148.142578125 36.4931640625 176.797851562 36.4931640625 207.616210938 c 0
 36.4931640625 241.677734375 41.6298828125 272.765625 51.90234375 300.880859375 c 0
 62.17578125 328.99609375 76.7734375 353.190429688 95.6962890625 373.465820312 c 0
 114.619140625 393.740234375 137.057617188 409.5546875 163.009765625 420.909179688 c 0
 188.9609375 432.262695312 217.887695312 437.940429688 249.786132812 437.940429688 c 0
 279.5234375 437.940429688 308.719726562 433.884765625 337.374023438 425.775390625 c 1
 337.374023438 600.139648438 l 1
 278.171875 622.84765625 l 1
 278.171875 633.390625 l 1
 405.498046875 673.129882812 l 1
 413.608398438 673.129882812 l 1
 413.608398438 63.2578125 l 1
 468.756835938 51.0927734375 l 1
 468.756835938 42.171875 l 1
 348.728515625 -8.1103515625 l 1
 343.051757812 -8.1103515625 l 1
 343.051757812 61.6357421875 l 1
 339.807617188 63.2578125 l 1
 322.505859375 38.927734375 302.3671875 20.9501953125 279.388671875 9.326171875 c 0
 256.41015625 -2.2978515625 231.405273438 -8.1103515625 204.372070312 -8.1103515625 c 0
238.431640625 44.6044921875 m 0
 259.517578125 44.6044921875 278.983398438 48.9296875 296.825195312 57.580078125 c 0
 314.666992188 66.2314453125 328.184570312 77.85546875 337.375 92.453125 c 1
 337.375 324.399414062 l 2
 337.375 383.872070312 307.638671875 413.609375 248.165039062 413.609375 c 0
 229.2421875 413.609375 212.076171875 409.013671875 196.666992188 399.822265625 c 0
 181.2578125 390.630859375 168.01171875 377.655273438 156.927734375 360.89453125 c 0
 145.84375 344.1328125 137.192382812 323.858398438 130.974609375 300.069335938 c 0
 124.756835938 276.280273438 121.6484375 249.787109375 121.6484375 220.590820312 c 0
 121.6484375 165.984375 131.920898438 123.000976562 152.466796875 91.642578125 c 0
 173.01171875 60.283203125 201.666992188 44.6044921875 238.431640625 44.6044921875 c 0
EndSplineSet
Fore
SplineSet
343 -8 m 1
 343 41 l 1
 340 43 l 1
 323 19 268 -8 204 -8 c 3
 150 -8 110 20 84 53 c 0
 55 89 36 144 36 208 c 3
 36 316 88 388 163 421 c 0
 189 432 218 438 250 438 c 3
 280 438 309 434 337 426 c 1
 337 600 l 1
 277 622 l 1
 277 633 l 1
 352 648 375 658 406 673 c 1
 414 673 l 1
 414 63 l 1
 478 43 l 1
 478 32 l 1
 349 -8 l 1
 343 -8 l 1
122 221 m 3
 122 129 154 36 238 36 c 0
 282 36 320 64 337 92 c 1
 337 321 l 2
 337 366 302 393 248 393 c 3
 147 393 122 321 122 221 c 3
EndSplineSet
Validated: 1
EndChar

StartChar: f
Encoding: 102 102 15
Width: 288
VWidth: 811
Flags: HMW
LayerCount: 2
Back
SplineSet
30.0068359375 429.830078125 m 1
 91.642578125 429.829101562 l 1
 91.642578125 468.756835938 92.3173828125 498.899414062 93.669921875 520.255859375 c 0
 95.021484375 541.611328125 98.4013671875 559.318359375 103.807617188 573.375 c 0
 109.21484375 588.514648438 117.325195312 602.166015625 128.137695312 614.331054688 c 0
 138.951171875 626.49609375 151.385742188 636.903320312 165.443359375 645.5546875 c 0
 179.5 654.205078125 194.639648438 660.963867188 210.859375 665.829101562 c 0
 227.079101562 670.6953125 243.83984375 673.127929688 261.141601562 673.127929688 c 0
 275.739257812 673.127929688 289.390625 671.37109375 302.096679688 667.856445312 c 0
 314.802734375 664.342773438 325.88671875 659.612304688 335.348632812 653.665039062 c 0
 344.810546875 647.717773438 352.245117188 640.418945312 357.651367188 631.768554688 c 0
 363.05859375 623.1171875 365.76171875 613.92578125 365.76171875 604.194335938 c 0
 365.76171875 592.298828125 362.112304688 582.703125 354.813476562 575.403320312 c 0
 347.514648438 568.104492188 337.91796875 564.455078125 326.022460938 564.455078125 c 0
 312.505859375 564.455078125 303.043945312 568.780273438 297.63671875 577.431640625 c 0
 292.23046875 586.08203125 288.4453125 595.543945312 286.282226562 605.817382812 c 0
 283.579101562 620.415039062 279.388671875 631.09375 273.711914062 637.8515625 c 0
 268.03515625 644.609375 258.708007812 647.989257812 245.732421875 647.989257812 c 0
 233.296875 647.989257812 221.807617188 644.880859375 211.264648438 638.662109375 c 0
 200.721679688 632.444335938 192.206054688 622.306640625 185.717773438 608.25 c 0
 179.771484375 595.814453125 175.446289062 579.189453125 172.743164062 558.373046875 c 0
 170.040039062 537.557617188 168.688476562 509.578125 168.688476562 474.434570312 c 2
 168.688476562 429.830078125 l 1
 273.306640625 429.830078125 l 1
 263.575195312 403.877929688 l 1
 168.688476562 403.877929688 l 1
 168.688476562 28.384765625 l 1
 254.654296875 16.2197265625 l 1
 254.654296875 0 l 1
 30.818359375 0 l 1
 30.818359375 16.2197265625 l 1
 91.642578125 28.384765625 l 1
 91.642578125 403.877929688 l 1
 20.275390625 403.877929688 l 1
 30.0068359375 429.830078125 l 1
EndSplineSet
Fore
SplineSet
366 604 m 3
 366 580 350 564 326 564 c 3
 268 564 306 641 246 641 c 3
 170 641 169 556 169 474 c 2
 169 430 l 1
 273 430 l 1
 273 396 l 1
 169 396 l 1
 169 28 l 1
 255 16 l 1
 255 0 l 1
 31 0 l 1
 31 16 l 1
 92 28 l 1
 92 396 l 1
 20 396 l 1
 30 430 l 1
 92 430 l 1
 92 469 92 499 93 520 c 0
 96 584 123 620 165 646 c 0
 190 661 223 673 261 673 c 3
 311 673 366 649 366 604 c 3
EndSplineSet
Validated: 1
EndChar

StartChar: g
Encoding: 103 103 16
Width: 407
VWidth: 811
Flags: HMW
LayerCount: 2
Back
SplineSet
180.852539062 -210.860351562 m 4
 161.388671875 -210.860351562 140.034179688 -208.838867188 116.78515625 -204.784179688 c 4
 93.5361328125 -200.728515625 72.9912109375 -193.293945312 55.1484375 -182.481445312 c 4
 41.091796875 -173.830078125 29.7373046875 -163.15234375 21.0869140625 -150.446289062 c 4
 12.435546875 -137.740234375 8.1103515625 -122.466796875 8.1103515625 -104.625 c 4
 8.1103515625 -82.998046875 15.544921875 -63.533203125 30.4130859375 -46.232421875 c 4
 45.28125 -28.931640625 71.369140625 -12.44140625 108.674804688 3.2373046875 c 5
 71.91015625 19.4580078125 53.5263671875 41.625 53.5263671875 69.7392578125 c 4
 53.5263671875 76.2275390625 54.87890625 83.5263671875 57.58203125 91.63671875 c 4
 60.28515625 99.7470703125 65.556640625 108.126953125 73.396484375 116.77734375 c 4
 81.236328125 125.428710938 92.1845703125 134.079101562 106.2421875 142.73046875 c 4
 120.298828125 151.381835938 138.411132812 159.221679688 160.578125 166.25 c 5
 129.21875 174.901367188 103.131835938 190.715820312 82.3154296875 213.693359375 c 4
 61.5 236.671875 51.091796875 265.192382812 51.091796875 299.25390625 c 4
 51.091796875 319.258789062 55.1474609375 337.776367188 63.2568359375 354.807617188 c 4
 71.3671875 371.838867188 82.451171875 386.436523438 96.5078125 398.6015625 c 4
 110.565429688 410.766601562 127.190429688 420.36328125 146.384765625 427.392578125 c 4
 165.579101562 434.420898438 186.258789062 437.935546875 208.42578125 437.935546875 c 4
 226.809570312 437.935546875 243.975585938 435.637695312 259.92578125 431.041992188 c 4
 275.875 426.446289062 290.337890625 420.092773438 303.314453125 411.983398438 c 5
 306.557617188 421.71484375 310.61328125 431.717773438 315.478515625 441.990234375 c 4
 320.344726562 452.262695312 326.022460938 461.725585938 332.509765625 470.375976562 c 4
 338.998046875 479.02734375 346.432617188 486.055664062 354.8125 491.462890625 c 4
 363.192382812 496.870117188 372.7890625 499.573242188 383.602539062 499.573242188 c 4
 396.037109375 499.573242188 406.985351562 495.922851562 416.447265625 488.624023438 c 4
 425.909179688 481.325195312 430.640625 471.458007812 430.640625 459.022460938 c 4
 430.640625 448.209960938 426.990234375 439.153320312 419.69140625 431.854492188 c 4
 412.392578125 424.555664062 403.3359375 420.90625 392.5234375 420.90625 c 4
 386.576171875 420.90625 381.98046875 421.987304688 378.736328125 424.149414062 c 4
 375.4921875 426.3125 372.653320312 428.74609375 370.220703125 431.44921875 c 4
 367.788085938 434.15234375 365.219726562 436.584960938 362.516601562 438.748046875 c 4
 359.813476562 440.911132812 356.028320312 441.9921875 351.162109375 441.9921875 c 4
 344.673828125 441.9921875 338.591796875 437.801757812 332.915039062 429.420898438 c 4
 327.237304688 421.041015625 323.046875 411.444335938 320.34375 400.631835938 c 5
 336.0234375 387.655273438 348.323242188 372.247070312 357.245117188 354.404296875 c 4
 366.166015625 336.5625 370.625976562 318.1796875 370.625976562 299.256835938 c 4
 370.625976562 281.415039062 366.70703125 264.248046875 358.8671875 247.7578125 c 4
 351.026367188 231.267578125 339.942382812 216.534179688 325.615234375 203.55859375 c 4
 311.287109375 190.583007812 294.255859375 179.76953125 274.521484375 171.118164062 c 4
 254.788085938 162.467773438 233.026367188 157.33203125 209.237304688 155.709960938 c 4
 198.963867188 154.62890625 188.556640625 152.736328125 178.013671875 150.033203125 c 4
 167.470703125 147.330078125 158.008789062 143.680664062 149.62890625 139.084960938 c 4
 141.249023438 134.489257812 134.490234375 129.352539062 129.354492188 123.67578125 c 4
 124.21875 117.999023438 121.650390625 111.646484375 121.650390625 104.6171875 c 4
 121.650390625 93.263671875 128.137695312 84.072265625 141.114257812 77.04296875 c 4
 154.08984375 70.0146484375 169.634765625 64.0673828125 187.74609375 59.201171875 c 4
 205.858398438 54.3349609375 224.916992188 50.2802734375 244.921875 47.0361328125 c 4
 264.926757812 43.7919921875 281.958007812 40.548828125 296.014648438 37.3046875 c 4
 318.181640625 32.4384765625 336.024414062 25.9501953125 349.541015625 17.8408203125 c 4
 363.057617188 9.73046875 373.465820312 0.9453125 380.764648438 -8.5166015625 c 4
 388.063476562 -17.9794921875 392.9296875 -27.7109375 395.362304688 -37.712890625 c 4
 397.795898438 -47.71484375 399.01171875 -57.3115234375 399.01171875 -66.5029296875 c 4
 399.01171875 -87.0478515625 394.95703125 -104.889648438 386.846679688 -120.028320312 c 4
 378.737304688 -135.16796875 367.923828125 -148.143554688 354.407226562 -158.95703125 c 4
 343.052734375 -168.147460938 330.346679688 -175.987304688 316.290039062 -182.475585938 c 4
 302.233398438 -188.963867188 287.499023438 -194.37109375 272.090820312 -198.6953125 c 4
 256.681640625 -203.020507812 241.272460938 -206.129882812 225.86328125 -208.021484375 c 4
 210.454101562 -209.913085938 195.451171875 -210.860351562 180.852539062 -210.860351562 c 4
214.104492188 -23.525390625 m 4
 200.047851562 -20.822265625 186.125 -17.849609375 172.337890625 -14.60546875 c 4
 158.551757812 -11.361328125 146.250976562 -8.1171875 135.4375 -4.873046875 c 5
 116.514648438 -13.5244140625 101.510742188 -25.958984375 90.427734375 -42.1787109375 c 4
 79.34375 -58.3994140625 73.8017578125 -75.970703125 73.8017578125 -94.89453125 c 4
 73.8017578125 -109.4921875 77.0458984375 -122.603515625 83.5341796875 -134.227539062 c 4
 90.021484375 -145.8515625 99.212890625 -155.448242188 111.107421875 -163.017578125 c 4
 132.734375 -177.615234375 161.120117188 -184.9140625 196.262695312 -184.9140625 c 4
 212.482421875 -184.9140625 228.837890625 -183.291992188 245.328125 -180.047851562 c 4
 261.818359375 -176.8046875 276.551757812 -171.938476562 289.52734375 -165.450195312 c 4
 303.584960938 -158.421875 314.938476562 -149.23046875 323.58984375 -137.875976562 c 4
 332.240234375 -126.522460938 336.565429688 -113.005859375 336.565429688 -97.326171875 c 4
 336.565429688 -87.5947265625 334.673828125 -79.2138671875 330.888671875 -72.185546875 c 4
 327.103515625 -65.15625 320.48046875 -58.8037109375 311.018554688 -53.126953125 c 4
 301.556640625 -47.4501953125 288.986328125 -42.3134765625 273.306640625 -37.7177734375 c 4
 257.627929688 -33.1220703125 237.893554688 -28.3916015625 214.104492188 -23.525390625 c 4
209.239257812 181.657226562 m 4
 224.377929688 181.657226562 237.083007812 185.4453125 247.35546875 193.013671875 c 4
 257.62890625 200.583007812 265.73828125 210.1796875 271.685546875 221.803710938 c 4
 277.6328125 233.427734375 281.823242188 246.268554688 284.255859375 260.325195312 c 4
 286.689453125 274.3828125 287.90625 287.899414062 287.90625 300.875 c 4
 287.90625 311.688476562 286.958984375 323.717773438 285.067382812 336.963867188 c 4
 283.174804688 350.209960938 279.525390625 362.645507812 274.119140625 374.26953125 c 4
 268.711914062 385.893554688 261.142578125 395.625 251.411132812 403.465820312 c 4
 241.678710938 411.305664062 228.97265625 415.224609375 213.293945312 415.224609375 c 4
 197.07421875 415.224609375 183.828125 411.034179688 173.5546875 402.654296875 c 4
 163.282226562 394.274414062 155.307617188 383.731445312 149.629882812 371.025390625 c 4
 143.953125 358.319335938 140.034179688 344.9375 137.87109375 330.880859375 c 4
 135.708007812 316.82421875 134.626953125 304.118164062 134.626953125 292.763671875 c 4
 134.626953125 281.951171875 135.573242188 270.055664062 137.46484375 257.080078125 c 4
 139.357421875 244.103515625 143.142578125 232.07421875 148.819335938 220.990234375 c 4
 154.49609375 209.90625 162.065429688 200.580078125 171.52734375 193.010742188 c 4
 180.989257812 185.44140625 193.559570312 181.657226562 209.239257812 181.657226562 c 4
EndSplineSet
Fore
SplineSet
209 190 m 3
 269 190 288 242 288 301 c 3
 288 357 270 406 213 406 c 3
 152 406 135 352 135 293 c 3
 135 238 153 190 209 190 c 3
135 15 m 1
 103 2 74 -21 74 -60 c 3
 74 -118 138 -122 199 -122 c 3
 264 -122 337 -107 337 -62 c 3
 337 -27 305 -23 273 -14 c 0
 235 -4 175 4 135 15 c 1
358 354 m 1
 365 338 371 323 371 299 c 0
 371 257 349 226 325 204 c 0
 297 179 258 156 209 156 c 3
 186 156 124 132 124 102 c 3
 124 35 399 58 399 -35 c 3
 399 -130 281 -164 181 -164 c 0
 102 -164 8 -144 8 -69 c 0
 8 -27 51 6 91 35 c 1
 55 50 54 61 54 86 c 3
 54 125 119 181 122 182 c 1
 75 206 51 250 51 299 c 0
 51 367 95 408 146 427 c 0
 165 434 186 438 208 438 c 0
 232 438 254 434 273 427 c 1
 289 423 301 421 311 421 c 3
 330 421 346 426 387 432 c 1
 394 406 l 1
 362 391 352 379 352 368 c 3
 352 363 355 359 358 354 c 1
EndSplineSet
Validated: 1
EndChar

StartChar: j
Encoding: 106 106 17
Width: 230
VWidth: 811
Flags: HMW
LayerCount: 2
Back
SplineSet
82.7216796875 365.760742188 m 5
 22.705078125 387.657226562 l 5
 22.705078125 399.010742188 l 5
 152.46484375 437.939453125 l 5
 159.763671875 437.939453125 l 5
 159.763671875 125.704101562 l 6
 159.763671875 85.6953125 159.494140625 53.2548828125 158.953125 28.3837890625 c 4
 158.412109375 3.513671875 157.1953125 -17.1669921875 155.303710938 -33.6572265625 c 4
 153.411132812 -50.1474609375 150.708007812 -63.6640625 147.194335938 -74.20703125 c 4
 143.6796875 -84.75 138.94921875 -95.4287109375 133.001953125 -106.2421875 c 4
 114.079101562 -140.303710938 91.236328125 -166.255859375 64.47265625 -184.09765625 c 4
 37.7099609375 -201.939453125 8.1083984375 -210.860351562 -24.33203125 -210.860351562 c 4
 -51.9052734375 -210.860351562 -73.6669921875 -204.9140625 -89.6171875 -193.018554688 c 4
 -105.567382812 -181.124023438 -113.541992188 -164.904296875 -113.541992188 -144.358398438 c 4
 -113.541992188 -129.219726562 -109.622070312 -117.325195312 -101.782226562 -108.673828125 c 4
 -93.9423828125 -100.0234375 -83.263671875 -95.6982421875 -69.7470703125 -95.6982421875 c 4
 -58.392578125 -95.6982421875 -49.2021484375 -98.806640625 -42.1728515625 -105.024414062 c 4
 -35.1435546875 -111.2421875 -29.466796875 -120.569335938 -25.1416015625 -133.00390625 c 4
 -19.1943359375 -148.682617188 -13.517578125 -159.225585938 -8.1103515625 -164.6328125 c 4
 -2.7041015625 -170.040039062 5.1357421875 -172.743164062 15.4091796875 -172.743164062 c 4
 60.2841796875 -172.743164062 82.7216796875 -128.137695312 82.7216796875 -38.927734375 c 6
 82.7216796875 365.760742188 l 5
68.931640625 580.674804688 m 4
 68.931640625 595.814453125 73.662109375 608.249023438 83.1240234375 617.981445312 c 4
 92.5859375 627.712890625 105.157226562 632.579101562 120.8359375 632.579101562 c 4
 136.514648438 632.579101562 149.220703125 627.712890625 158.953125 617.981445312 c 4
 168.684570312 608.249023438 173.55078125 595.814453125 173.55078125 580.674804688 c 4
 173.55078125 564.99609375 168.684570312 552.290039062 158.953125 542.55859375 c 4
 149.220703125 532.826171875 136.514648438 527.959960938 120.8359375 527.959960938 c 4
 105.157226562 527.959960938 92.5859375 532.826171875 83.1240234375 542.55859375 c 4
 73.662109375 552.290039062 68.931640625 564.99609375 68.931640625 580.674804688 c 4
EndSplineSet
Fore
SplineSet
160 438 m 1
 160 174 l 2
 160 -60 143 -162 -24 -162 c 0
 -73 -162 -114 -141 -114 -96 c 0
 -114 -67 -98 -47 -70 -47 c 0
 -16 -47 -44 -114 15 -114 c 3
 70 -114 84 -7 84 112 c 2
 83 366 l 2
 23 388 l 1
 23 399 l 1
 98 414 120 423 151 438 c 1
 160 438 l 1
121 528 m 3
 89 528 69 550 69 581 c 3
 69 612 90 633 121 633 c 3
 152 633 174 612 174 581 c 3
 174 550 152 528 121 528 c 3
EndSplineSet
Validated: 1
EndChar

StartChar: a
Encoding: 97 97 18
Width: 423
VWidth: 811
Flags: HMW
LayerCount: 2
Back
SplineSet
133.815429688 -8.1103515625 m 0
 104.619140625 -8.1103515625 81.0986328125 1.0771484375 63.2568359375 19.4599609375 c 0
 45.4140625 37.8427734375 36.4931640625 61.6318359375 36.4931640625 90.828125 c 0
 36.4931640625 108.669921875 40.4130859375 124.484375 48.2529296875 138.271484375 c 0
 56.0927734375 152.05859375 68.798828125 164.62890625 86.37109375 175.983398438 c 0
 103.942382812 187.336914062 126.920898438 197.744140625 155.305664062 207.206054688 c 0
 183.690429688 216.668945312 218.158203125 225.724609375 258.708007812 234.375976562 c 1
 258.708007812 313.853515625 l 2
 258.708007812 347.916015625 253.841796875 371.975585938 244.110351562 386.033203125 c 0
 234.377929688 400.08984375 217.6171875 407.119140625 193.828125 407.119140625 c 0
 170.579101562 407.119140625 152.196289062 401.577148438 138.6796875 390.493164062 c 0
 125.162109375 379.409179688 118.404296875 364.40625 118.404296875 345.482421875 c 0
 118.404296875 341.158203125 118.674804688 336.426757812 119.215820312 331.291015625 c 0
 119.755859375 326.155273438 120.026367188 321.424804688 120.026367188 317.099609375 c 0
 120.026367188 303.041992188 116.106445312 291.688476562 108.266601562 283.037109375 c 0
 100.426757812 274.38671875 90.2890625 270.061523438 77.8544921875 270.061523438 c 0
 67.041015625 270.061523438 58.1201171875 273.575195312 51.091796875 280.604492188 c 0
 44.0625 287.633789062 40.548828125 297.095703125 40.548828125 308.990234375 c 0
 40.548828125 326.83203125 48.5234375 345.21484375 64.47265625 364.138671875 c 0
 80.4228515625 383.061523438 101.64453125 399.28125 128.137695312 412.797851562 c 0
 160.577148438 429.559570312 194.909179688 437.939453125 231.133789062 437.939453125 c 0
 254.3828125 437.939453125 274.1171875 434.290039062 290.336914062 426.990234375 c 0
 306.557617188 419.69140625 318.181640625 409.013671875 325.209960938 394.956054688 c 0
 327.373046875 390.08984375 329.130859375 385.088867188 330.482421875 379.953125 c 0
 331.833984375 374.81640625 332.915039062 368.329101562 333.7265625 360.48828125 c 0
 334.537109375 352.6484375 335.078125 342.916992188 335.348632812 331.29296875 c 0
 335.618164062 319.668945312 335.75390625 305.4765625 335.75390625 288.71484375 c 2
 335.75390625 102.99609375 l 2
 335.75390625 75.962890625 337.78125 57.8505859375 341.836914062 48.66015625 c 0
 345.891601562 39.46875 353.866210938 34.873046875 365.760742188 34.873046875 c 0
 373.330078125 34.873046875 380.087890625 36.630859375 386.03515625 40.14453125 c 0
 391.982421875 43.658203125 398.470703125 49.7412109375 405.499023438 58.3916015625 c 1
 419.286132812 46.2265625 l 1
 406.8515625 26.7626953125 394.010742188 12.8408203125 380.764648438 4.4609375 c 0
 367.518554688 -3.919921875 352.245117188 -8.1103515625 334.943359375 -8.1103515625 c 0
 292.23046875 -8.1103515625 268.170898438 16.2197265625 262.763671875 64.8798828125 c 1
 260.331054688 66.501953125 l 1
 244.65234375 43.2529296875 225.59375 25.005859375 203.155273438 11.759765625 c 0
 180.717773438 -1.486328125 157.604492188 -8.1103515625 133.815429688 -8.1103515625 c 0
169.497070312 39.7353515625 m 0
 186.798828125 39.7353515625 203.290039062 44.4638671875 218.96875 53.92578125 c 0
 234.6484375 63.3876953125 247.89453125 76.76953125 258.70703125 94.0703125 c 1
 258.70703125 210.854492188 l 1
 230.052734375 204.907226562 206.127929688 198.959960938 186.93359375 193.013671875 c 0
 167.740234375 187.06640625 152.331054688 180.037109375 140.70703125 171.927734375 c 0
 129.083007812 163.817382812 120.837890625 154.625976562 115.971679688 144.353515625 c 0
 111.10546875 134.080078125 108.672851562 121.915039062 108.672851562 107.858398438 c 0
 108.672851562 85.69140625 113.944335938 68.7958984375 124.487304688 57.171875 c 0
 135.030273438 45.5478515625 150.033203125 39.7353515625 169.497070312 39.7353515625 c 0
EndSplineSet
Fore
SplineSet
260 45 m 1
 234 7 191 -8 134 -8 c 3
 76 -8 36 33 36 91 c 3
 36 134 57 157 86 176 c 0
 131 205 192 219 259 234 c 1
 259 317 l 2
 259 372 247 393 200 393 c 3
 124 393 120 358 120 317 c 3
 120 290 104 270 78 270 c 0
 55 270 41 286 41 309 c 0
 41 327 48 345 64 364 c 0
 97 403 163 438 231 438 c 3
 311 438 336 401 336 320 c 2
 336 103 l 2
 336 64 336 35 366 35 c 3
 386 35 395 44 406 58 c 1
 419 46 l 1
 399 14 379 -8 335 -8 c 3
 292 -8 266 21 263 43 c 1
 260 45 l 1
109 108 m 3
 109 66 128 40 169 40 c 3
 210 40 241 83 259 111 c 1
 259 190 l 1
 202 179 109 164 109 108 c 3
EndSplineSet
Validated: 1
EndChar

StartChar: A
Encoding: 65 65 19
Width: 630
VWidth: 811
Flags: HMW
LayerCount: 2
Back
SplineSet
393.334960938 229.512695312 m 5
 197.07421875 229.51171875 l 5
 153.280273438 107.05078125 l 6
 147.333007812 90.2890625 144.358398438 77.583984375 144.358398438 68.9326171875 c 4
 144.358398438 54.3349609375 151.387695312 43.3857421875 165.444335938 36.0869140625 c 4
 179.501953125 28.7880859375 200.317382812 22.9755859375 227.891601562 18.650390625 c 5
 227.891601562 -0.001953125 l 5
 0.0009765625 -0.001953125 l 5
 0.0009765625 18.650390625 l 5
 21.6279296875 21.89453125 38.9287109375 25.6796875 51.9052734375 30.0048828125 c 4
 64.880859375 34.330078125 75.423828125 40.0068359375 83.5341796875 47.03515625 c 4
 91.6435546875 54.064453125 98.1318359375 62.580078125 102.998046875 72.58203125 c 4
 107.864257812 82.583984375 112.729492188 94.61328125 117.595703125 108.670898438 c 6
 274.9296875 549.043945312 l 5
 253.84375 596.892578125 l 5
 333.322265625 640.686523438 l 5
 547.42578125 68.12109375 l 6
 550.669921875 58.9296875 554.18359375 51.3603515625 557.96875 45.4140625 c 4
 561.75390625 39.466796875 566.620117188 34.6005859375 572.56640625 30.8154296875 c 4
 578.513671875 27.0302734375 586.083007812 24.3271484375 595.274414062 22.7060546875 c 4
 604.46484375 21.083984375 616.088867188 19.7314453125 630.146484375 18.650390625 c 5
 630.146484375 -0.001953125 l 5
 372.248046875 -0.001953125 l 5
 372.248046875 18.650390625 l 5
 390.630859375 19.19140625 405.364257812 20.1376953125 416.448242188 21.490234375 c 4
 427.532226562 22.841796875 436.047851562 24.599609375 441.995117188 26.7626953125 c 4
 447.942382812 28.9248046875 451.7265625 31.4931640625 453.348632812 34.4677734375 c 4
 454.970703125 37.44140625 455.782226562 41.0908203125 455.782226562 45.416015625 c 4
 455.782226562 49.201171875 455.241210938 53.6611328125 454.16015625 58.7978515625 c 4
 453.079101562 63.93359375 450.645507812 71.3681640625 446.861328125 81.099609375 c 6
 393.334960938 229.512695312 l 5
292.771484375 497.952148438 m 5
 208.427734375 261.951171875 l 5
 381.170898438 261.951171875 l 5
 296.015625 497.952148438 l 5
 292.771484375 497.952148438 l 5
EndSplineSet
Fore
SplineSet
393 230 m 1
 217 230 l 1
 173 107 l 2
 167 90 164 78 164 69 c 3
 164 40 196 24 228 19 c 1
 228 0 l 1
 0 0 l 1
 0 19 l 1
 50 26 85 35 103 72 c 0
 108 82 113 95 118 109 c 2
 306 636 l 1
 333 641 l 1
 547 68 l 2
 561 30 577 22 630 19 c 1
 630 0 l 1
 372 0 l 1
 372 19 l 1
 401 20 423 21 442 27 c 0
 452 30 456 34 456 45 c 0
 456 60 453 66 447 81 c 2
 393 230 l 1
303 470 m 1
 235 282 l 1
 374 282 l 1
 306 470 l 1
 303 470 l 1
EndSplineSet
Validated: 1
EndChar

StartChar: B
Encoding: 66 66 20
Width: 548
VWidth: 811
Flags: HMW
LayerCount: 2
Back
SplineSet
272.49609375 624.469726562 m 6
 309.801757812 624.469726562 340.755859375 621.765625 365.35546875 616.358398438 c 4
 389.956054688 610.951171875 410.635742188 602.571289062 427.397460938 591.217773438 c 4
 446.3203125 577.700195312 461.188476562 560.669921875 472.000976562 540.124023438 c 4
 482.814453125 519.579101562 488.221679688 497.141601562 488.221679688 472.811523438 c 4
 488.221679688 437.126953125 476.731445312 407.390625 453.75390625 383.6015625 c 4
 430.775390625 359.8125 397.66015625 343.322265625 354.407226562 334.130859375 c 5
 354.407226562 330.887695312 l 5
 378.737304688 328.184570312 400.76953125 322.237304688 420.50390625 313.045898438 c 4
 440.237304688 303.854492188 457.268554688 291.959960938 471.596679688 277.362304688 c 4
 485.924804688 262.763671875 496.873046875 246.002929688 504.442382812 227.080078125 c 4
 512.010742188 208.157226562 515.795898438 187.612304688 515.795898438 165.444335938 c 4
 515.795898438 140.57421875 511.065429688 117.325195312 501.603515625 95.6982421875 c 4
 492.141601562 74.0712890625 478.759765625 56.2294921875 461.458984375 42.171875 c 4
 442.536132812 27.033203125 419.692382812 16.2197265625 392.9296875 9.732421875 c 4
 366.166015625 3.244140625 330.618164062 0 286.283203125 0 c 6
 32.4404296875 0 l 5
 32.4404296875 18.6533203125 l 5
 101.375 34.0615234375 l 5
 101.375 590.408203125 l 5
 32.4404296875 605.817382812 l 5
 32.4404296875 624.469726562 l 5
 272.49609375 624.469726562 l 6
186.530273438 347.916992188 m 5
 236.811523438 347.919921875 l 6
 252.490234375 347.919921875 265.465820312 348.055664062 275.739257812 348.325195312 c 4
 286.01171875 348.595703125 295.744140625 349.270507812 304.935546875 350.3515625 c 4
 334.671875 353.595703125 357.515625 365.896484375 373.465820312 387.252929688 c 4
 389.415039062 408.608398438 397.389648438 437.940429688 397.389648438 475.24609375 c 4
 397.389648438 494.168945312 395.092773438 510.25390625 390.49609375 523.5 c 4
 385.900390625 536.74609375 378.196289062 548.775390625 367.3828125 559.588867188 c 4
 355.48828125 572.0234375 341.430664062 580.5390625 325.2109375 585.134765625 c 4
 308.991210938 589.73046875 286.012695312 592.028320312 256.276367188 592.028320312 c 6
 186.530273438 592.028320312 l 5
 186.530273438 347.916992188 l 5
186.529296875 315.479492188 m 5
 186.529296875 79.4775390625 l 6
 186.529296875 60.5546875 191.530273438 47.71484375 201.532226562 40.9560546875 c 4
 211.53515625 34.1982421875 230.323242188 30.818359375 257.897460938 30.818359375 c 4
 314.125976562 30.818359375 355.487304688 42.1728515625 381.98046875 64.880859375 c 4
 408.47265625 87.5888671875 421.71875 123.54296875 421.71875 172.744140625 c 4
 421.71875 221.944335938 408.337890625 258.034179688 381.575195312 281.012695312 c 4
 354.811523438 303.990234375 312.775390625 315.479492188 255.463867188 315.479492188 c 6
 186.529296875 315.479492188 l 5
EndSplineSet
Fore
SplineSet
488 473 m 7
 488 391 428 349 354 334 c 5
 354 331 l 5
 427 323 480 285 504 227 c 4
 511 208 516 187 516 165 c 7
 516 78 464 27 393 10 c 4
 366 4 331 0 286 0 c 6
 32 0 l 5
 32 19 l 5
 101 34 l 5
 101 590 l 5
 32 606 l 5
 32 624 l 5
 272 624 l 6
 373 624 438 605 472 540 c 4
 483 520 488 497 488 473 c 7
187 361 m 5
 237 361 l 6
 342 361 397 366 397 475 c 7
 397 554 337 577 256 577 c 6
 187 577 l 5
 187 361 l 5
422 173 m 7
 422 278 363 305 255 305 c 6
 187 305 l 5
 187 105 l 6
 187 62 210 56 258 56 c 7
 365 56 422 69 422 173 c 7
EndSplineSet
Validated: 1
EndChar

StartChar: C
Encoding: 67 67 21
Width: 593
VWidth: 811
Flags: HMW
LayerCount: 2
Back
SplineSet
478.490234375 472.813476562 m 7
 478.490234375 390.90234375 418.475585938 349.541015625 344.674804688 334.131835938 c 5
 344.674804688 330.887695312 l 5
 417.665039062 322.778320312 471.19140625 284.661132812 494.709960938 227.080078125 c 4
 502.008789062 208.426757812 506.064453125 187.340820312 506.064453125 165.444335938 c 7
 506.064453125 78.6669921875 454.970703125 26.7626953125 383.602539062 9.732421875 c 4
 356.83984375 3.244140625 321.15625 0 276.55078125 0 c 6
 22.7080078125 0 l 5
 22.7080078125 18.6533203125 l 5
 91.642578125 34.0615234375 l 5
 91.642578125 590.408203125 l 5
 22.7080078125 605.817382812 l 5
 22.7080078125 624.469726562 l 5
 262.763671875 624.469726562 l 6
 364.138671875 624.469726562 428.208007812 605.005859375 462.26953125 540.125976562 c 4
 472.813476562 519.850585938 478.490234375 497.142578125 478.490234375 472.813476562 c 7
176.797851562 360.89453125 m 5
 227.080078125 360.89453125 l 6
 332.509765625 360.89453125 387.658203125 366.572265625 387.658203125 475.24609375 c 7
 387.658203125 554.745117188 327.823242188 576.62109375 246.543945312 576.62109375 c 6
 176.797851562 576.62109375 l 5
 176.797851562 360.89453125 l 5
411.98828125 172.743164062 m 7
 411.98828125 277.362304688 353.595703125 304.935546875 245.733398438 304.935546875 c 6
 176.797851562 304.935546875 l 5
 176.797851562 104.619140625 l 6
 176.797851562 61.6357421875 200.317382812 55.958984375 248.166015625 55.958984375 c 7
 355.217773438 55.958984375 411.98828125 68.9345703125 411.98828125 172.743164062 c 7
EndSplineSet
Fore
SplineSet
28 308 m 7
 28 495 139 633 325 633 c 7
 395 633 455 611 500 583 c 5
 503 583 l 5
 543 624 l 5
 557 624 l 5
 557 438 l 5
 533 438 l 5
 503 528 453 585 339 585 c 7
 188 585 131 475 131 314 c 7
 131 153 189 44 339 44 c 7
 458 44 516 109 535 212 c 5
 557 212 l 5
 557 0 l 5
 538 0 l 5
 500 54 l 5
 449 17 401 -8 322 -8 c 7
 138 -8 28 123 28 308 c 7
EndSplineSet
Validated: 1
EndChar

StartChar: D
Encoding: 68 68 22
Width: 631
VWidth: 811
Flags: HMW
LayerCount: 2
Back
SplineSet
488.221679688 472.813476562 m 7
 488.221679688 390.90234375 428.208007812 349.541015625 354.407226562 334.131835938 c 5
 354.407226562 330.887695312 l 5
 427.397460938 322.778320312 480.922851562 284.661132812 504.442382812 227.080078125 c 4
 511.741210938 208.426757812 515.795898438 187.340820312 515.795898438 165.444335938 c 7
 515.795898438 78.6669921875 464.703125 26.7626953125 393.334960938 9.732421875 c 4
 366.572265625 3.244140625 330.887695312 0 286.283203125 0 c 6
 32.4404296875 0 l 5
 32.4404296875 18.6533203125 l 5
 101.375 34.0615234375 l 5
 101.375 590.408203125 l 5
 32.4404296875 605.817382812 l 5
 32.4404296875 624.469726562 l 5
 272.49609375 624.469726562 l 6
 373.87109375 624.469726562 437.940429688 605.005859375 472.001953125 540.125976562 c 4
 482.544921875 519.850585938 488.221679688 497.142578125 488.221679688 472.813476562 c 7
186.530273438 360.89453125 m 5
 236.811523438 360.89453125 l 6
 342.2421875 360.89453125 397.389648438 366.572265625 397.389648438 475.24609375 c 7
 397.389648438 554.745117188 337.5546875 576.62109375 256.276367188 576.62109375 c 6
 186.530273438 576.62109375 l 5
 186.530273438 360.89453125 l 5
421.719726562 172.743164062 m 7
 421.719726562 277.362304688 363.328125 304.935546875 255.46484375 304.935546875 c 6
 186.530273438 304.935546875 l 5
 186.530273438 104.619140625 l 6
 186.530273438 61.6357421875 210.048828125 55.958984375 257.8984375 55.958984375 c 7
 364.950195312 55.958984375 421.719726562 68.9345703125 421.719726562 172.743164062 c 7
EndSplineSet
Fore
SplineSet
32 0 m 1
 32 19 l 1
 101 34 l 1
 101 590 l 1
 32 606 l 1
 32 624 l 1
 234 624 l 2
 464 624 603 535 603 311 c 3
 603 121 497 0 304 0 c 2
 32 0 l 1
187 105 m 2
 187 60 219 56 271 56 c 0
 440 56 502 153 502 320 c 3
 502 495 429 577 251 577 c 2
 187 577 l 1
 187 105 l 2
EndSplineSet
Validated: 1
EndChar

StartChar: E
Encoding: 69 69 23
Width: 542
VWidth: 811
Flags: HMW
LayerCount: 2
Back
SplineSet
488.221679688 472.813476562 m 7
 488.221679688 390.90234375 428.208007812 349.541015625 354.407226562 334.131835938 c 5
 354.407226562 330.887695312 l 5
 427.397460938 322.778320312 480.922851562 284.661132812 504.442382812 227.080078125 c 4
 511.741210938 208.426757812 515.795898438 187.340820312 515.795898438 165.444335938 c 7
 515.795898438 78.6669921875 464.703125 26.7626953125 393.334960938 9.732421875 c 4
 366.572265625 3.244140625 330.887695312 0 286.283203125 0 c 6
 32.4404296875 0 l 5
 32.4404296875 18.6533203125 l 5
 101.375 34.0615234375 l 5
 101.375 590.408203125 l 5
 32.4404296875 605.817382812 l 5
 32.4404296875 624.469726562 l 5
 272.49609375 624.469726562 l 6
 373.87109375 624.469726562 437.940429688 605.005859375 472.001953125 540.125976562 c 4
 482.544921875 519.850585938 488.221679688 497.142578125 488.221679688 472.813476562 c 7
186.530273438 360.89453125 m 5
 236.811523438 360.89453125 l 6
 342.2421875 360.89453125 397.389648438 366.572265625 397.389648438 475.24609375 c 7
 397.389648438 554.723632812 337.375976562 576.62109375 256.276367188 576.62109375 c 6
 186.530273438 576.62109375 l 5
 186.530273438 360.89453125 l 5
421.719726562 172.743164062 m 7
 421.719726562 277.362304688 363.328125 304.935546875 255.46484375 304.935546875 c 6
 186.530273438 304.935546875 l 5
 186.530273438 104.619140625 l 6
 186.530273438 61.6357421875 210.048828125 55.958984375 257.8984375 55.958984375 c 7
 364.950195312 55.958984375 421.719726562 68.9345703125 421.719726562 172.743164062 c 7
EndSplineSet
Fore
SplineSet
478 446 m 5
 464 496 444 534 419 577 c 5
 187 577 l 5
 187 361 l 5
 332 361 l 5
 346 391 356 407 362 443 c 5
 381 443 l 5
 381 216 l 5
 362 216 l 5
 357 249 347 273 332 305 c 5
 187 305 l 5
 187 57 l 5
 415 57 l 5
 446 107 463 132 483 190 c 5
 510 190 l 5
 480 0 l 5
 32 0 l 5
 32 19 l 5
 101 34 l 5
 101 590 l 5
 32 606 l 5
 32 624 l 5
 483 624 l 5
 497 446 l 5
 478 446 l 5
EndSplineSet
Validated: 1
EndChar

StartChar: H
Encoding: 72 72 24
Width: 686
VWidth: 811
Flags: HMW
LayerCount: 2
Back
SplineSet
491.465820312 472.813476562 m 3
 491.465820312 390.90234375 431.452148438 349.541015625 357.651367188 334.131835938 c 1
 357.651367188 330.887695312 l 1
 430.640625 322.778320312 484.166992188 284.661132812 507.685546875 227.080078125 c 0
 514.985351562 208.426757812 519.040039062 187.340820312 519.040039062 165.444335938 c 3
 519.040039062 78.6669921875 467.947265625 26.7626953125 396.579101562 9.732421875 c 0
 369.81640625 3.244140625 334.131835938 0 289.52734375 0 c 2
 35.68359375 0 l 1
 35.68359375 18.6533203125 l 1
 104.619140625 34.0615234375 l 1
 104.619140625 590.408203125 l 1
 35.68359375 605.817382812 l 1
 35.68359375 624.469726562 l 1
 275.740234375 624.469726562 l 2
 377.115234375 624.469726562 441.18359375 605.005859375 475.24609375 540.125976562 c 0
 485.7890625 519.850585938 491.465820312 497.142578125 491.465820312 472.813476562 c 3
189.774414062 360.89453125 m 1
 240.055664062 360.89453125 l 2
 345.486328125 360.89453125 400.633789062 366.572265625 400.633789062 475.24609375 c 3
 400.633789062 554.745117188 340.798828125 576.62109375 259.51953125 576.62109375 c 2
 189.774414062 576.62109375 l 1
 189.774414062 360.89453125 l 1
424.963867188 172.743164062 m 3
 424.963867188 277.362304688 366.572265625 304.935546875 258.708984375 304.935546875 c 2
 189.774414062 304.935546875 l 1
 189.774414062 104.619140625 l 2
 189.774414062 61.6357421875 213.29296875 55.958984375 261.141601562 55.958984375 c 3
 368.194335938 55.958984375 424.963867188 68.9345703125 424.963867188 172.743164062 c 3
EndSplineSet
Fore
SplineSet
497 305 m 5
 191 305 l 5
 191 34 l 5
 263 19 l 5
 263 0 l 5
 32 0 l 5
 32 19 l 5
 105 34 l 5
 105 590 l 5
 32 606 l 5
 32 624 l 5
 263 624 l 5
 263 606 l 5
 191 590 l 5
 191 361 l 5
 497 361 l 5
 497 590 l 5
 424 606 l 5
 424 624 l 5
 654 624 l 5
 654 604 l 5
 582 590 l 5
 582 34 l 5
 654 17 l 5
 654 0 l 5
 424 0 l 5
 424 19 l 5
 497 34 l 5
 497 305 l 5
EndSplineSet
Validated: 1
EndChar

StartChar: I
Encoding: 73 73 25
Width: 295
VWidth: 811
Flags: HMW
LayerCount: 2
Fore
SplineSet
105 590 m 1
 32 606 l 1
 32 624 l 1
 263 624 l 1
 263 606 l 1
 191 590 l 1
 191 34 l 1
 263 19 l 1
 263 0 l 1
 32 0 l 1
 32 19 l 1
 105 34 l 1
 105 590 l 1
EndSplineSet
Validated: 1
EndChar

StartChar: J
Encoding: 74 74 26
Width: 405
VWidth: 811
Flags: HMW
LayerCount: 2
Back
SplineSet
300.880859375 125.705078125 m 2
 300.880859375 85.6962890625 300.610351562 53.255859375 300.069335938 28.384765625 c 0
 299.528320312 3.513671875 298.176757812 -17.166015625 296.013671875 -33.65625 c 0
 293.850585938 -50.146484375 291.01171875 -63.6630859375 287.498046875 -74.2060546875 c 0
 283.983398438 -84.7490234375 279.252929688 -95.427734375 273.306640625 -106.241210938 c 0
 254.3828125 -140.302734375 229.91796875 -166.254882812 199.911132812 -184.096679688 c 0
 169.903320312 -201.939453125 138.139648438 -210.860351562 104.618164062 -210.860351562 c 0
 74.3408203125 -210.860351562 50.5517578125 -204.641601562 33.2509765625 -192.20703125 c 0
 15.9501953125 -179.771484375 7.298828125 -162.470703125 7.298828125 -140.303710938 c 0
 7.298828125 -124.083984375 11.6240234375 -111.243164062 20.275390625 -101.78125 c 0
 28.92578125 -92.3193359375 40.5498046875 -87.5888671875 55.1484375 -87.5888671875 c 0
 66.501953125 -87.5888671875 75.693359375 -90.697265625 82.7216796875 -96.9150390625 c 0
 89.7509765625 -103.1328125 95.427734375 -112.459960938 99.7529296875 -124.89453125 c 0
 105.700195312 -140.57421875 112.728515625 -151.791992188 120.838867188 -158.55078125 c 0
 128.94921875 -165.30859375 138.411132812 -168.688476562 149.223632812 -168.688476562 c 0
 168.147460938 -168.688476562 183.961914062 -158.009765625 196.66796875 -136.653320312 c 0
 209.373046875 -115.297851562 215.725585938 -82.7216796875 215.725585938 -38.927734375 c 2
 215.725585938 590.408203125 l 1
 142.736328125 605.817382812 l 1
 142.736328125 624.469726562 l 1
 373.059570312 624.469726562 l 1
 373.059570312 605.817382812 l 1
 300.880859375 590.408203125 l 1
 300.880859375 125.705078125 l 2
EndSplineSet
Fore
SplineSet
216 590 m 1
 143 606 l 1
 143 624 l 1
 373 624 l 1
 373 606 l 1
 301 590 l 1
 301 345 l 2
 300 109 257 0 109 0 c 3
 40 0 8 29 8 74 c 3
 8 103 28 123 56 123 c 0
 110 123 89 60 148 60 c 3
 203 60 217 166 217 285 c 2
 216 590 l 1
EndSplineSet
Validated: 1
EndChar

StartChar: O
Encoding: 79 79 27
Width: 645
VWidth: 811
Flags: HMW
LayerCount: 2
Back
SplineSet
467.135742188 472.813476562 m 7
 467.135742188 390.90234375 407.122070312 349.541015625 333.321289062 334.131835938 c 5
 333.321289062 330.887695312 l 5
 406.310546875 322.778320312 459.836914062 284.661132812 483.356445312 227.080078125 c 4
 490.655273438 208.426757812 494.709960938 187.340820312 494.709960938 165.444335938 c 7
 494.709960938 78.6669921875 443.6171875 26.7626953125 372.249023438 9.732421875 c 4
 345.486328125 3.244140625 309.801757812 0 265.197265625 0 c 6
 11.353515625 0 l 5
 11.353515625 18.6533203125 l 5
 80.2890625 34.0615234375 l 5
 80.2890625 590.408203125 l 5
 11.353515625 605.817382812 l 5
 11.353515625 624.469726562 l 5
 251.41015625 624.469726562 l 6
 352.78515625 624.469726562 416.853515625 605.005859375 450.916015625 540.125976562 c 4
 461.458984375 519.850585938 467.135742188 497.142578125 467.135742188 472.813476562 c 7
165.444335938 360.89453125 m 5
 215.725585938 360.89453125 l 6
 321.15625 360.89453125 376.303710938 366.572265625 376.303710938 475.24609375 c 7
 376.303710938 554.745117188 316.46875 576.62109375 235.190429688 576.62109375 c 6
 165.444335938 576.62109375 l 5
 165.444335938 360.89453125 l 5
400.633789062 172.743164062 m 7
 400.633789062 277.362304688 342.2421875 304.935546875 234.37890625 304.935546875 c 6
 165.444335938 304.935546875 l 5
 165.444335938 104.619140625 l 6
 165.444335938 61.6357421875 188.962890625 55.958984375 236.811523438 55.958984375 c 7
 343.864257812 55.958984375 400.633789062 68.9345703125 400.633789062 172.743164062 c 7
EndSplineSet
Fore
SplineSet
323 633 m 3
 503 633 617 493 617 312 c 3
 617 131 503 -8 323 -8 c 3
 143 -8 28 131 28 312 c 3
 28 493 143 633 323 633 c 3
131 313 m 3
 131 165 179 43 323 43 c 3
 467 43 515 167 515 315 c 3
 515 463 467 577 323 577 c 3
 178 577 131 461 131 313 c 3
EndSplineSet
Validated: 1
EndChar

StartChar: r
Encoding: 114 114 28
Width: 327
VWidth: 811
Flags: HMW
LayerCount: 2
Back
SplineSet
235.188476562 16.2197265625 m 1
 235.189453125 -0.001953125 l 1
 15.408203125 -0.001953125 l 1
 15.408203125 16.21875 l 1
 77.0439453125 28.3837890625 l 1
 77.0439453125 365.759765625 l 1
 17.0302734375 388.467773438 l 1
 17.0302734375 399.010742188 l 1
 142.735351562 438.749023438 l 1
 150.844726562 438.749023438 l 1
 150.844726562 349.5390625 l 1
 169.768554688 378.194335938 188.69140625 400.2265625 207.614257812 415.635742188 c 0
 226.537109375 431.044921875 244.649414062 438.749023438 261.950195312 438.749023438 c 0
 276.0078125 438.749023438 288.037109375 433.748046875 298.0390625 423.74609375 c 0
 308.041015625 413.744140625 313.04296875 401.713867188 313.04296875 387.657226562 c 0
 313.04296875 374.681640625 308.58203125 363.732421875 299.661132812 354.811523438 c 0
 290.740234375 345.890625 279.521484375 341.430664062 266.004882812 341.430664062 c 0
 253.029296875 341.430664062 242.755859375 346.56640625 235.186523438 356.838867188 c 0
 230.321289062 362.786132812 226.130859375 366.840820312 222.616210938 369.00390625 c 0
 219.102539062 371.166992188 214.912109375 372.248046875 210.045898438 372.248046875 c 0
 198.151367188 372.248046875 187.337890625 365.490234375 177.60546875 351.973632812 c 0
 168.415039062 339.538085938 162.467773438 331.158203125 159.764648438 326.833007812 c 0
 157.061523438 322.5078125 155.169921875 317.912109375 154.088867188 313.045898438 c 2
 154.088867188 28.384765625 l 1
 235.188476562 16.2197265625 l 1
EndSplineSet
Fore
SplineSet
315 388 m 3
 315 362 295 341 268 341 c 3
 255 341 245 346 238 357 c 0
 231 366 225 372 212 372 c 0
 188 372 160 331 157 313 c 1
 157 28 l 1
 238 16 l 1
 238 0 l 1
 18 0 l 1
 18 16 l 1
 79 28 l 1
 79 366 l 1
 16 388 l 1
 16 399 l 1
 91 414 114 424 145 439 c 1
 153 439 l 1
 153 391 l 1
 153 391 215 439 264 439 c 3
 292 439 315 416 315 388 c 3
EndSplineSet
Validated: 1
EndChar

StartChar: k
Encoding: 107 107 29
Width: 489
VWidth: 811
Flags: HMW
LayerCount: 2
Back
SplineSet
248.9765625 429.830078125 m 5
 430.641601562 429.83203125 l 5
 430.641601562 413.611328125 l 5
 414.421875 410.3671875 401.040039062 407.529296875 390.497070312 405.095703125 c 4
 379.954101562 402.663085938 371.168945312 399.82421875 364.139648438 396.581054688 c 4
 357.111328125 393.336914062 350.892578125 389.416992188 345.486328125 384.821289062 c 4
 340.079101562 380.225585938 334.40234375 374.413085938 328.455078125 367.383789062 c 6
 236.811523438 260.33203125 l 5
 429.830078125 28.3857421875 l 5
 497.954101562 16.220703125 l 5
 497.954101562 0.0009765625 l 5
 356.029296875 0.0009765625 l 5
 188.15234375 204.373046875 l 5
 156.5234375 167.06640625 l 5
 156.5234375 28.3857421875 l 5
 217.34765625 16.220703125 l 5
 217.34765625 0.0009765625 l 5
 20.275390625 0.0009765625 l 5
 20.275390625 16.220703125 l 5
 81.9111328125 28.3857421875 l 5
 81.9111328125 600.952148438 l 5
 22.7080078125 622.848632812 l 5
 22.7080078125 633.391601562 l 5
 148.413085938 673.130859375 l 5
 156.5234375 673.130859375 l 5
 156.5234375 210.860351562 l 5
 291.959960938 364.951171875 l 6
 303.314453125 377.926757812 308.991210938 387.659179688 308.991210938 394.146484375 c 4
 308.991210938 399.012695312 304.935546875 402.797851562 296.826171875 405.500976562 c 4
 288.715820312 408.204101562 272.765625 410.907226562 248.9765625 413.610351562 c 5
 248.9765625 429.830078125 l 5
EndSplineSet
Fore
SplineSet
157 673 m 1
 157 225 l 1
 292 379 l 2
 301 390 301 391 301 396 c 0
 301 410 274 412 249 414 c 1
 249 430 l 1
 431 430 l 1
 431 414 l 1
 386 405 352 381 328 353 c 2
 237 246 l 1
 430 28 l 1
 498 16 l 1
 498 0 l 1
 356 0 l 1
 188 190 l 1
 157 152 l 1
 157 28 l 1
 217 16 l 1
 217 0 l 1
 20 0 l 1
 20 16 l 1
 82 28 l 1
 82 601 l 1
 20 623 l 1
 20 634 l 1
 95 649 117 658 148 673 c 1
 157 673 l 1
EndSplineSet
Validated: 1
EndChar

StartChar: w
Encoding: 119 119 30
Width: 693
VWidth: 811
Flags: HMW
LayerCount: 2
Back
SplineSet
440.373046875 -8.1103515625 m 1
 342.239257812 295.206054688 l 1
 235.186523438 -8.1083984375 l 1
 199.502929688 -8.1083984375 l 1
 66.4990234375 378.73828125 l 2
 62.173828125 391.71484375 56.361328125 400.365234375 49.0625 404.690429688 c 0
 41.763671875 409.015625 28.111328125 411.989257812 8.1064453125 413.611328125 c 1
 8.1064453125 429.83203125 l 1
 209.234375 429.83203125 l 1
 209.234375 413.611328125 l 1
 196.799804688 412.530273438 186.797851562 411.583984375 179.228515625 410.7734375 c 0
 171.659179688 409.961914062 165.712890625 409.015625 161.387695312 407.934570312 c 0
 157.0625 406.853515625 154.223632812 405.3671875 152.872070312 403.474609375 c 0
 151.51953125 401.583007812 150.844726562 399.014648438 150.844726562 395.770507812 c 0
 150.844726562 393.067382812 151.655273438 389.41796875 153.27734375 384.822265625 c 0
 154.899414062 380.225585938 156.521484375 375.224609375 158.143554688 369.817382812 c 2
 239.243164062 100.565429688 l 1
 242.487304688 100.565429688 l 1
 326.831054688 343.0546875 l 1
 315.477539062 378.73828125 l 2
 311.15234375 391.173828125 305.33984375 399.689453125 298.041015625 404.28515625 c 0
 290.7421875 408.880859375 279.79296875 411.989257812 265.1953125 413.611328125 c 1
 265.1953125 429.83203125 l 1
 450.103515625 429.83203125 l 1
 450.103515625 413.611328125 l 1
 437.66796875 412.530273438 427.666015625 411.583984375 420.09765625 410.7734375 c 0
 412.528320312 409.961914062 406.581054688 409.015625 402.255859375 407.934570312 c 0
 397.930664062 406.853515625 395.092773438 405.3671875 393.740234375 403.474609375 c 0
 392.388671875 401.583007812 391.712890625 399.014648438 391.712890625 395.770507812 c 0
 391.712890625 393.067382812 392.524414062 389.41796875 394.146484375 384.822265625 c 0
 395.767578125 380.225585938 397.389648438 375.224609375 399.01171875 369.817382812 c 2
 480.112304688 100.565429688 l 1
 483.356445312 100.565429688 l 1
 570.944335938 351.975585938 l 2
 575.809570312 364.951171875 578.243164062 375.494140625 578.243164062 383.604492188 c 0
 578.243164062 392.255859375 574.188476562 398.608398438 566.078125 402.663085938 c 0
 557.967773438 406.717773438 542.829101562 410.3671875 520.662109375 413.611328125 c 1
 520.662109375 429.83203125 l 1
 685.294921875 429.83203125 l 1
 685.294921875 413.611328125 l 1
 670.15625 410.908203125 657.991210938 408.0703125 648.799804688 405.095703125 c 0
 639.609375 402.122070312 632.174804688 398.336914062 626.497070312 393.741210938 c 0
 620.8203125 389.145507812 616.224609375 383.333007812 612.7109375 376.303710938 c 0
 609.196289062 369.275390625 605.817382812 360.89453125 602.573242188 351.163085938 c 2
 476.056640625 -8.1103515625 l 1
 440.373046875 -8.1103515625 l 1
EndSplineSet
Fore
SplineSet
570 388 m 0
 570 409 549 410 521 414 c 1
 521 430 l 1
 685 430 l 1
 685 414 l 1
 650 408 626 402 613 376 c 0
 610 369 606 361 603 351 c 2
 476 -8 l 1
 440 -8 l 1
 342 295 l 1
 235 -8 l 1
 200 -8 l 1
 67 379 l 2
 57 407 45 411 8 414 c 1
 8 430 l 1
 209 430 l 1
 209 414 l 1
 190 412 176 411 161 408 c 0
 154 406 151 404 151 396 c 0
 151 388 156 378 158 370 c 2
 234 117 l 1
 238 117 l 1
 322 359 l 1
 315 379 l 2
 307 404 295 411 265 414 c 1
 265 430 l 1
 450 430 l 1
 450 414 l 1
 431 412 417 411 402 408 c 0
 395 406 392 404 392 396 c 0
 392 388 397 378 399 370 c 2
 475 118 l 1
 478 118 l 1
 566 369 l 2
 568 375 570 382 570 388 c 0
EndSplineSet
Validated: 1
EndChar

StartChar: F
Encoding: 70 70 31
Width: 525
VWidth: 811
Flags: HMW
LayerCount: 2
Back
SplineSet
477.678710938 446.049804688 m 5
 463.891601562 496.33203125 444.427734375 533.637695312 419.287109375 576.62109375 c 5
 186.530273438 576.62109375 l 5
 186.530273438 360.89453125 l 5
 331.69921875 360.89453125 l 5
 345.486328125 390.90234375 356.029296875 407.122070312 361.706054688 442.805664062 c 5
 381.169921875 442.805664062 l 5
 381.169921875 215.725585938 l 5
 361.706054688 215.725585938 l 5
 356.83984375 248.9765625 347.108398438 273.306640625 331.69921875 304.935546875 c 5
 186.530273438 304.935546875 l 5
 186.530273438 56.76953125 l 5
 415.232421875 56.76953125 l 5
 446.049804688 107.051757812 463.081054688 132.193359375 483.356445312 189.774414062 c 5
 510.119140625 189.774414062 l 5
 480.112304688 0 l 5
 32.4404296875 0 l 5
 32.4404296875 18.6533203125 l 5
 101.375 34.0615234375 l 5
 101.375 590.408203125 l 5
 32.4404296875 605.817382812 l 5
 32.4404296875 624.469726562 l 5
 483.356445312 624.469726562 l 5
 497.142578125 446.049804688 l 5
 477.678710938 446.049804688 l 5
EndSplineSet
Fore
SplineSet
478 446 m 1
 464 496 444 534 419 577 c 1
 187 577 l 1
 187 361 l 1
 332 361 l 1
 346 391 356 407 362 443 c 1
 381 443 l 1
 381 216 l 1
 362 216 l 1
 357 249 347 273 332 305 c 1
 187 305 l 1
 187 34 l 1
 279 19 l 1
 279 0 l 1
 32 0 l 1
 32 19 l 1
 101 34 l 1
 101 590 l 1
 32 606 l 1
 32 624 l 1
 483 624 l 1
 497 446 l 1
 478 446 l 1
EndSplineSet
Validated: 1
EndChar

StartChar: G
Encoding: 71 71 32
Width: 652
VWidth: 811
Flags: HMW
LayerCount: 2
Back
SplineSet
29.1962890625 308.1796875 m 3
 29.1962890625 495.521484375 140.302734375 632.580078125 326.022460938 632.580078125 c 3
 395.767578125 632.580078125 455.782226562 611.494140625 500.38671875 583.109375 c 1
 503.630859375 583.109375 l 1
 543.370117188 624.469726562 l 1
 557.967773438 624.469726562 l 1
 557.967773438 437.940429688 l 1
 533.637695312 437.940429688 l 1
 503.630859375 527.9609375 454.16015625 584.731445312 339.80859375 584.731445312 c 3
 188.962890625 584.731445312 131.381835938 474.434570312 131.381835938 313.857421875 c 3
 131.381835938 153.279296875 189.774414062 43.7939453125 339.80859375 43.7939453125 c 3
 459.026367188 43.7939453125 516.607421875 109.485351562 536.071289062 212.482421875 c 1
 557.967773438 212.482421875 l 1
 557.967773438 0 l 1
 538.50390625 0 l 1
 501.198242188 53.5263671875 l 1
 450.10546875 16.2197265625 402.255859375 -8.1103515625 322.778320312 -8.1103515625 c 3
 138.680664062 -8.1103515625 29.1962890625 123.272460938 29.1962890625 308.1796875 c 3
EndSplineSet
Fore
SplineSet
346 586 m 0
 189 586 132 474 132 305 c 0
 132 121 203 44 339 44 c 0
 408 44 460 67 460 137 c 2
 459 279 l 1
 386 294 l 1
 386 313 l 1
 616 313 l 1
 616 294 l 1
 544 279 l 1
 544 66 l 1
 507 31 448 9 386 -2 c 0
 365 -6 344 -8 323 -8 c 0
 230 -8 158 29 111 79 c 0
 62 131 28 208 28 305 c 0
 28 492 147 633 333 633 c 0
 398 633 453 614 488 583 c 1
 491 583 l 1
 535 624 l 1
 553 624 l 1
 553 438 l 1
 534 438 l 1
 498 521 461 586 346 586 c 0
EndSplineSet
Validated: 1
EndChar

StartChar: L
Encoding: 76 76 33
Width: 530
VWidth: 811
Flags: HMW
LayerCount: 2
Back
SplineSet
488.221679688 472.813476562 m 7
 488.221679688 390.90234375 428.208007812 349.541015625 354.407226562 334.131835938 c 5
 354.407226562 330.887695312 l 5
 427.397460938 322.778320312 480.922851562 284.661132812 504.442382812 227.080078125 c 4
 511.741210938 208.426757812 515.795898438 187.340820312 515.795898438 165.444335938 c 7
 515.795898438 78.6669921875 464.703125 26.7626953125 393.334960938 9.732421875 c 4
 366.572265625 3.244140625 330.887695312 0 286.283203125 0 c 6
 32.4404296875 0 l 5
 32.4404296875 18.6533203125 l 5
 101.375 34.0615234375 l 5
 101.375 590.408203125 l 5
 32.4404296875 605.817382812 l 5
 32.4404296875 624.469726562 l 5
 272.49609375 624.469726562 l 6
 373.87109375 624.469726562 437.940429688 605.005859375 472.001953125 540.125976562 c 4
 482.544921875 519.850585938 488.221679688 497.142578125 488.221679688 472.813476562 c 7
186.530273438 360.89453125 m 5
 236.811523438 360.89453125 l 6
 342.2421875 360.89453125 397.389648438 366.572265625 397.389648438 475.24609375 c 7
 397.389648438 554.723632812 337.375976562 576.62109375 256.276367188 576.62109375 c 6
 186.530273438 576.62109375 l 5
 186.530273438 360.89453125 l 5
421.719726562 172.743164062 m 7
 421.719726562 277.362304688 363.328125 304.935546875 255.46484375 304.935546875 c 6
 186.530273438 304.935546875 l 5
 186.530273438 104.619140625 l 6
 186.530273438 61.6357421875 210.048828125 55.958984375 257.8984375 55.958984375 c 7
 364.950195312 55.958984375 421.719726562 68.9345703125 421.719726562 172.743164062 c 7
EndSplineSet
Fore
SplineSet
187 590 m 1
 187 57 l 1
 421 57 l 1
 452 108 469 136 489 194 c 1
 510 194 l 1
 480 0 l 1
 32 0 l 1
 32 19 l 1
 101 34 l 1
 101 590 l 1
 32 606 l 1
 32 624 l 1
 264 624 l 1
 264 606 l 1
 187 590 l 1
EndSplineSet
Validated: 1
EndChar

StartChar: p
Encoding: 112 112 34
Width: 496
VWidth: 811
Flags: HMW
LayerCount: 2
Back
SplineSet
158.956054688 -175.17578125 m 5
 239.24609375 -187.338867188 l 5
 239.24609375 -202.748046875 l 5
 21.0869140625 -202.748046875 l 5
 21.0869140625 -187.338867188 l 5
 81.912109375 -175.173828125 l 5
 81.912109375 365.763671875 l 5
 22.708984375 387.66015625 l 5
 22.708984375 399.014648438 l 5
 147.602539062 437.942382812 l 5
 156.5234375 437.942382812 l 5
 156.5234375 366.57421875 l 5
 159.767578125 366.57421875 l 5
 175.987304688 391.4453125 195.993164062 409.557617188 219.782226562 420.911132812 c 4
 243.571289062 432.265625 267.630859375 437.942382812 291.9609375 437.942382812 c 4
 317.372070312 437.942382812 340.62109375 432.53515625 361.70703125 421.72265625 c 4
 382.79296875 410.909179688 400.770507812 395.90625 415.638671875 376.711914062 c 4
 430.506835938 357.517578125 442.130859375 334.674804688 450.510742188 308.181640625 c 4
 458.890625 281.688476562 463.081054688 252.762695312 463.081054688 221.403320312 c 4
 463.081054688 187.341796875 457.673828125 156.25390625 446.861328125 128.138671875 c 4
 436.047851562 100.0234375 420.638671875 75.8291015625 400.633789062 55.5546875 c 4
 380.62890625 35.279296875 356.83984375 19.6005859375 329.265625 8.5166015625 c 4
 301.692382812 -2.5673828125 271.14453125 -8.109375 237.623046875 -8.109375 c 4
 224.647460938 -8.109375 211.670898438 -7.1630859375 198.6953125 -5.2705078125 c 4
 185.71875 -3.37890625 172.47265625 -0.2705078125 158.956054688 4.0546875 c 5
 158.956054688 -175.17578125 l 5
240.868164062 16.22265625 m 4
 261.413085938 16.22265625 280.204101562 20.9521484375 297.234375 30.4140625 c 4
 314.265625 39.8759765625 328.86328125 52.9873046875 341.028320312 69.748046875 c 4
 353.193359375 86.509765625 362.520507812 106.6484375 369.0078125 130.16796875 c 4
 375.49609375 153.686523438 378.740234375 179.774414062 378.740234375 208.4296875 c 4
 378.740234375 263.577148438 367.385742188 306.830078125 344.677734375 338.189453125 c 4
 321.969726562 369.547851562 290.881835938 385.227539062 251.413085938 385.227539062 c 4
 234.65234375 385.227539062 217.485351562 380.766601562 199.9140625 371.845703125 c 4
 182.341796875 362.924804688 170.041992188 351.706054688 163.012695312 338.189453125 c 5
 163.012695312 95.7001953125 l 6
 163.012695312 71.9111328125 170.447265625 52.7177734375 185.315429688 38.119140625 c 4
 200.18359375 23.521484375 218.701171875 16.22265625 240.868164062 16.22265625 c 4
EndSplineSet
Fore
SplineSet
157 438 m 1
 157 394 l 1
 161 394 l 1
 161 394 200 438 293 438 c 3
 350 438 391 411 417 377 c 0
 445 340 464 286 464 221 c 3
 464 112 409 41 330 9 c 0
 302 -2 271 -8 238 -8 c 3
 208 -8 184 -4 160 4 c 1
 160 -175 l 1
 240 -187 l 1
 240 -203 l 1
 22 -203 l 1
 22 -187 l 1
 83 -175 l 1
 83 366 l 1
 20 388 l 1
 20 399 l 1
 95 414 117 423 148 438 c 1
 157 438 l 1
157 115 m 2
 157 69 197 36 242 36 c 3
 288 36 321 64 342 93 c 0
 366 126 380 150 380 208 c 3
 380 304 341 393 252 393 c 3
 216 393 170 365 157 341 c 1
 157 115 l 2
EndSplineSet
Validated: 1
EndChar

StartChar: q
Encoding: 113 113 35
Width: 484
VWidth: 811
Flags: HMW
LayerCount: 2
Back
SplineSet
338.998046875 -175.17578125 m 1
 338.999023438 47.037109375 l 1
 304.936523438 10.2724609375 263.845703125 -8.1103515625 215.7265625 -8.1103515625 c 0
 189.233398438 -8.1103515625 165.0390625 -3.109375 143.142578125 6.892578125 c 0
 121.245117188 16.89453125 102.322265625 30.9521484375 86.3720703125 49.0634765625 c 0
 70.421875 67.17578125 58.1220703125 88.802734375 49.470703125 113.944335938 c 0
 40.8203125 139.084960938 36.4951171875 166.793945312 36.4951171875 197.071289062 c 0
 36.4951171875 234.376953125 41.630859375 267.8984375 51.904296875 297.635742188 c 0
 62.1767578125 327.372070312 76.6396484375 352.6484375 95.29296875 373.46484375 c 0
 113.9453125 394.280273438 136.518554688 410.23046875 163.010742188 421.314453125 c 0
 189.50390625 432.3984375 218.700195312 437.940429688 250.598632812 437.940429688 c 0
 292.23046875 437.940429688 329.536132812 425.504882812 362.516601562 400.633789062 c 1
 366.572265625 400.633789062 l 1
 403.067382812 428.208007812 l 1
 416.04296875 428.208007812 l 1
 416.04296875 -175.17578125 l 1
 476.868164062 -187.340820312 l 1
 476.868164062 -202.75 l 1
 258.708984375 -202.75 l 1
 258.708984375 -187.340820312 l 1
 338.998046875 -175.17578125 l 1
250.599609375 411.987304688 m 0
 212.752929688 411.987304688 182.068359375 396.036132812 158.549804688 364.137695312 c 0
 135.030273438 332.23828125 123.271484375 284.119140625 123.271484375 219.780273438 c 0
 123.271484375 162.469726562 134.490234375 117.458984375 156.927734375 84.7490234375 c 0
 179.365234375 52.0390625 210.319335938 35.68359375 249.788085938 35.68359375 c 0
 268.170898438 35.68359375 284.931640625 39.4677734375 300.0703125 47.037109375 c 0
 315.209960938 54.6064453125 328.185546875 64.87890625 338.999023438 77.85546875 c 1
 338.999023438 309.80078125 l 2
 338.999023438 340.619140625 331.024414062 365.354492188 315.07421875 384.0078125 c 0
 299.124023438 402.661132812 277.6328125 411.987304688 250.599609375 411.987304688 c 0
EndSplineSet
Fore
SplineSet
339 -175 m 1
 339 19 l 1
 339 19 309 -8 216 -8 c 3
 127 -8 73 47 49 114 c 0
 40 139 36 167 36 197 c 3
 36 310 84 389 163 422 c 0
 190 433 219 438 251 438 c 3
 292 438 330 426 363 401 c 1
 367 401 l 1
 403 428 l 1
 416 428 l 1
 416 -175 l 1
 477 -187 l 1
 477 -203 l 1
 259 -203 l 1
 259 -187 l 1
 339 -175 l 1
339 307 m 2
 339 365 308 393 251 393 c 3
 163 393 123 320 123 220 c 3
 123 122 160 36 250 36 c 3
 291 36 320 54 339 78 c 1
 339 307 l 2
EndSplineSet
Validated: 1
EndChar

StartChar: m
Encoding: 109 109 36
Width: 738
VWidth: 811
Flags: HMW
LayerCount: 2
Back
SplineSet
227.080078125 16.2197265625 m 1
 227.077148438 0.0009765625 l 1
 27.5712890625 0.0009765625 l 1
 27.5712890625 16.220703125 l 1
 89.20703125 28.3857421875 l 1
 89.20703125 364.951171875 l 1
 29.1923828125 387.659179688 l 1
 29.1923828125 398.202148438 l 1
 154.897460938 437.940429688 l 1
 163.0078125 437.940429688 l 1
 163.0078125 369.005859375 l 1
 186.256835938 391.172851562 210.9921875 408.204101562 237.213867188 420.098632812 c 0
 263.436523438 431.994140625 289.5234375 437.940429688 315.475585938 437.940429688 c 0
 325.749023438 437.940429688 336.021484375 436.454101562 346.294921875 433.48046875 c 0
 356.567382812 430.506835938 365.89453125 426.045898438 374.274414062 420.098632812 c 0
 382.654296875 414.151367188 389.817382812 406.852539062 395.764648438 398.202148438 c 0
 401.711914062 389.55078125 405.766601562 379.548828125 407.9296875 368.194335938 c 1
 431.178710938 390.90234375 456.049804688 408.204101562 482.54296875 420.098632812 c 0
 509.03515625 431.994140625 535.2578125 437.940429688 561.209960938 437.940429688 c 0
 580.673828125 437.940429688 597.974609375 433.615234375 613.11328125 424.96484375 c 0
 628.252929688 416.313476562 639.606445312 404.418945312 647.17578125 389.280273438 c 0
 649.338867188 384.955078125 651.095703125 380.224609375 652.448242188 375.087890625 c 0
 653.799804688 369.952148438 654.880859375 363.05859375 655.692382812 354.408203125 c 0
 656.502929688 345.756835938 657.043945312 335.078125 657.313476562 322.372070312 c 0
 657.583984375 309.666992188 657.719726562 293.58203125 657.719726562 274.118164062 c 2
 657.719726562 27.57421875 l 1
 718.543945312 16.2197265625 l 1
 718.543945312 0 l 1
 519.849609375 0 l 1
 519.849609375 16.2197265625 l 1
 580.674804688 27.57421875 l 1
 580.674804688 266.0078125 l 2
 580.674804688 289.256835938 579.727539062 307.774414062 577.8359375 321.561523438 c 0
 575.943359375 335.348632812 573.646484375 346.837890625 570.943359375 356.029296875 c 0
 562.833007812 380.900390625 544.450195312 393.334960938 515.794921875 393.334960938 c 0
 495.790039062 393.334960938 476.731445312 388.874023438 458.620117188 379.953125 c 0
 440.5078125 371.032226562 424.422851562 358.192382812 410.366210938 341.430664062 c 1
 410.907226562 333.321289062 411.3125 323.859375 411.58203125 313.045898438 c 0
 411.852539062 302.233398438 411.98828125 289.256835938 411.98828125 274.118164062 c 2
 411.98828125 27.57421875 l 1
 472.813476562 16.2197265625 l 1
 472.813476562 0 l 1
 274.118164062 0 l 1
 274.118164062 16.2197265625 l 1
 334.943359375 27.57421875 l 1
 334.943359375 266.0078125 l 2
 334.943359375 289.256835938 333.99609375 307.774414062 332.104492188 321.561523438 c 0
 330.212890625 335.348632812 327.915039062 346.837890625 325.211914062 356.029296875 c 0
 316.560546875 380.900390625 298.177734375 393.334960938 270.063476562 393.334960938 c 0
 250.598632812 393.334960938 231.946289062 389.009765625 214.103515625 380.359375 c 0
 196.26171875 371.708007812 180.3125 359.2734375 166.254882812 343.052734375 c 1
 166.254882812 28.384765625 l 1
 227.080078125 16.2197265625 l 1
EndSplineSet
Fore
SplineSet
24 388 m 1
 24 399 l 1
 99 414 125 426 156 441 c 1
 163 441 l 1
 163 393 l 1
 200 429 251 438 315 438 c 3
 341 438 378 437 402 393 c 1
 439 429 496 438 561 438 c 3
 653 438 658 367 658 274 c 2
 658 28 l 1
 719 16 l 1
 719 0 l 1
 520 0 l 1
 520 16 l 1
 581 28 l 1
 581 266 l 2
 581 332 578 393 516 393 c 3
 469 393 434 369 410 341 c 1
 412 320 412 300 412 274 c 2
 412 28 l 1
 473 16 l 1
 473 0 l 1
 274 0 l 1
 274 16 l 1
 335 28 l 1
 335 266 l 2
 335 332 332 393 270 393 c 3
 224 393 187 369 163 341 c 1
 163 28 l 1
 227 16 l 1
 227 0 l 1
 28 0 l 1
 28 16 l 1
 89 28 l 1
 89 365 l 1
 24 388 l 1
EndSplineSet
Validated: 1
EndChar

StartChar: n
Encoding: 110 110 37
Width: 496
VWidth: 811
Flags: HMW
LayerCount: 2
Back
SplineSet
155.711914062 673.129882812 m 5
 165.444335938 673.129882812 l 5
 165.444335938 390.90234375 l 5
 205.994140625 426.5859375 260.331054688 437.940429688 327.643554688 437.940429688 c 4
 377.115234375 437.940429688 416.853515625 414.420898438 427.397460938 375.493164062 c 4
 432.262695312 357.651367188 432.262695312 337.375976562 432.262695312 315.478515625 c 6
 432.262695312 315.478515625 432.262695312 123.272460938 432.262695312 27.57421875 c 5
 493.087890625 16.2197265625 l 5
 493.087890625 0 l 5
 294.392578125 0 l 5
 294.392578125 16.2197265625 l 5
 355.217773438 27.57421875 l 5
 355.217773438 266.0078125 l 6
 355.217773438 338.186523438 351.163085938 393.334960938 282.227539062 393.334960938 c 4
 236.811523438 393.334960938 197.883789062 375.493164062 165.444335938 340.620117188 c 5
 165.444335938 28.384765625 l 5
 226.268554688 16.2197265625 l 5
 226.268554688 0 l 5
 26.7626953125 0 l 5
 26.7626953125 16.2197265625 l 5
 88.3994140625 28.384765625 l 5
 88.3994140625 600.951171875 l 5
 27.57421875 622.84765625 l 5
 27.57421875 634.202148438 l 5
 102.997070312 648.799804688 124.893554688 657.720703125 155.711914062 673.129882812 c 5
EndSplineSet
Fore
SplineSet
24 388 m 1
 24 399 l 1
 99 414 125 426 156 441 c 1
 165 441 l 1
 165 393 l 1
 202 429 251 438 315 438 c 3
 418 438 419 356 419 283 c 2
 419 28 l 1
 480 16 l 1
 480 0 l 1
 281 0 l 1
 281 16 l 1
 342 28 l 1
 342 266 l 2
 342 338 338 393 269 393 c 3
 223 393 189 369 165 341 c 1
 165 28 l 1
 226 16 l 1
 226 0 l 1
 27 0 l 1
 27 16 l 1
 88 28 l 1
 88 365 l 1
 24 388 l 1
EndSplineSet
Validated: 1
EndChar

StartChar: K
Encoding: 75 75 38
Width: 637
VWidth: 811
Flags: HMW
LayerCount: 2
Back
SplineSet
497.142578125 304.935546875 m 1
 190.584960938 304.935546875 l 1
 190.584960938 34.0615234375 l 1
 262.763671875 18.6533203125 l 1
 262.763671875 0 l 1
 32.4404296875 0 l 1
 32.4404296875 18.6533203125 l 1
 105.4296875 34.0615234375 l 1
 105.4296875 590.408203125 l 1
 32.4404296875 605.817382812 l 1
 32.4404296875 624.469726562 l 1
 262.763671875 624.469726562 l 1
 262.763671875 605.817382812 l 1
 190.584960938 590.408203125 l 1
 190.584960938 360.89453125 l 1
 497.142578125 360.89453125 l 1
 497.142578125 590.408203125 l 1
 424.153320312 605.817382812 l 1
 424.153320312 624.469726562 l 1
 654.4765625 624.469726562 l 1
 654.4765625 604.1953125 l 1
 582.297851562 590.408203125 l 1
 582.297851562 34.0615234375 l 1
 654.4765625 17.03125 l 1
 654.4765625 0 l 1
 424.153320312 0 l 1
 424.153320312 18.6533203125 l 1
 497.142578125 34.0615234375 l 1
 497.142578125 304.935546875 l 1
EndSplineSet
Fore
SplineSet
365 606 m 1
 365 624 l 1
 579 624 l 1
 579 606 l 1
 524 596 490 590 461 556 c 2
 300 372 l 1
 560 34 l 1
 637 19 l 5
 637 0 l 5
 474 0 l 1
 243 307 l 1
 191 247 l 1
 191 34 l 1
 263 19 l 1
 263 0 l 1
 32 0 l 1
 32 19 l 1
 105 34 l 1
 105 590 l 1
 32 606 l 1
 32 624 l 1
 263 624 l 1
 263 606 l 1
 191 590 l 1
 191 333 l 1
 399 566 l 2
 407 574 417 585 417 593 c 3
 417 601 408 606 380 606 c 3
 372 606 365 606 365 606 c 1
EndSplineSet
Validated: 1
EndChar

StartChar: M
Encoding: 77 77 39
Width: 812
VWidth: 811
Flags: HMW
LayerCount: 2
Back
SplineSet
105.4296875 590.408203125 m 5
 32.4404296875 605.817382812 l 5
 32.4404296875 624.469726562 l 5
 202.75 624.469726562 l 5
 404.689453125 143.546875 l 5
 408.744140625 143.546875 l 5
 610.682617188 624.469726562 l 5
 780.181640625 624.469726562 l 5
 780.181640625 605.817382812 l 5
 708.002929688 590.408203125 l 5
 708.002929688 34.0615234375 l 5
 780.181640625 18.6533203125 l 5
 780.181640625 0 l 5
 549.858398438 0 l 5
 549.858398438 18.6533203125 l 5
 622.84765625 34.0615234375 l 5
 622.84765625 532.015625 l 5
 619.603515625 532.015625 l 5
 389.280273438 -8.1103515625 l 5
 367.3828125 -8.1103515625 l 5
 141.114257812 535.259765625 l 5
 137.870117188 535.259765625 l 5
 137.870117188 34.0615234375 l 5
 210.048828125 18.6533203125 l 5
 210.048828125 0 l 5
 32.4404296875 0 l 5
 32.4404296875 18.6533203125 l 5
 105.4296875 34.0615234375 l 5
 105.4296875 590.408203125 l 5
EndSplineSet
Fore
SplineSet
404 182 m 1
 590 624 l 1
 780 624 l 1
 780 606 l 1
 708 590 l 1
 708 34 l 1
 780 19 l 1
 780 0 l 1
 550 0 l 1
 550 19 l 1
 623 34 l 1
 623 532 l 1
 620 532 l 1
 389 -8 l 1
 367 -8 l 1
 141 535 l 1
 138 535 l 1
 138 34 l 1
 210 19 l 1
 210 0 l 1
 32 0 l 1
 32 19 l 1
 85 30 l 1
 85 594 l 1
 32 606 l 1
 32 624 l 1
 203 624 l 1
 388 182 l 1
 404 182 l 1
EndSplineSet
Validated: 1
EndChar

StartChar: N
Encoding: 78 78 40
Width: 668
VWidth: 811
Flags: HMW
LayerCount: 2
Back
SplineSet
562.833984375 -16.2197265625 m 1
 537.693359375 -16.2197265625 l 1
 137.870117188 540.936523438 l 1
 137.870117188 34.0615234375 l 1
 210.048828125 18.6533203125 l 1
 210.048828125 0 l 1
 32.4404296875 0 l 1
 32.4404296875 18.6533203125 l 1
 105.4296875 34.0615234375 l 1
 105.4296875 590.408203125 l 1
 32.4404296875 605.817382812 l 1
 32.4404296875 624.469726562 l 1
 196.26171875 624.469726562 l 1
 530.393554688 165.444335938 l 1
 530.393554688 590.408203125 l 1
 458.21484375 605.817382812 l 1
 458.21484375 624.469726562 l 1
 635.82421875 624.469726562 l 1
 635.82421875 605.817382812 l 1
 562.833984375 590.408203125 l 1
 562.833984375 -16.2197265625 l 1
EndSplineSet
Fore
SplineSet
563 -16 m 1
 538 -16 l 1
 138 541 l 1
 138 34 l 1
 210 19 l 1
 210 0 l 1
 32 0 l 1
 32 19 l 1
 85 30 l 1
 85 594 l 1
 32 606 l 1
 32 624 l 1
 196 624 l 1
 510 194 l 1
 510 594 l 1
 458 606 l 1
 458 624 l 1
 636 624 l 1
 636 606 l 1
 563 590 l 1
 563 -16 l 1
EndSplineSet
Validated: 1
EndChar

StartChar: T
Encoding: 84 84 41
Width: 613
VWidth: 811
Flags: HMW
LayerCount: 2
Back
SplineSet
175.987304688 18.6533203125 m 1
 265.197265625 34.0615234375 l 1
 265.197265625 592.030273438 l 1
 102.185546875 592.030273438 l 1
 70.82421875 549.885742188 45.6171875 497.7734375 27.57421875 446.049804688 c 1
 8.1103515625 446.049804688 l 1
 38.1171875 624.469726562 l 1
 574.999023438 624.469726562 l 1
 605.005859375 446.049804688 l 1
 585.541992188 446.049804688 l 1
 567.525390625 497.700195312 542.249023438 549.944335938 510.9296875 592.030273438 c 1
 350.3515625 592.030273438 l 1
 350.3515625 34.0615234375 l 1
 438.750976562 18.6533203125 l 1
 438.750976562 0 l 1
 175.987304688 0 l 1
 175.987304688 18.6533203125 l 1
EndSplineSet
Fore
SplineSet
176 19 m 1
 265 34 l 1
 265 569 l 1
 94 569 l 1
 62 527 46 498 28 446 c 1
 8 446 l 1
 38 624 l 1
 575 624 l 1
 605 446 l 1
 586 446 l 1
 568 498 551 527 519 569 c 1
 350 569 l 1
 350 34 l 1
 439 19 l 1
 439 0 l 1
 176 0 l 1
 176 19 l 1
EndSplineSet
Validated: 1
EndChar

StartChar: U
Encoding: 85 85 42
Width: 630
VWidth: 811
Flags: HMW
LayerCount: 2
Back
SplineSet
186.530273438 184.096679688 m 6
 186.530273438 132.193359375 200.1796875 93.265625 227.484375 67.3134765625 c 4
 254.788085938 41.361328125 291.41796875 28.3857421875 337.375 28.3857421875 c 4
 366.571289062 28.3857421875 392.118164062 32.576171875 414.014648438 40.9560546875 c 4
 435.912109375 49.3359375 453.078125 61.9072265625 465.513671875 78.66796875 c 4
 476.326171875 93.265625 484.166015625 113.541015625 489.032226562 139.493164062 c 4
 493.8984375 165.444335938 496.331054688 200.047851562 496.331054688 243.30078125 c 6
 496.331054688 590.409179688 l 5
 424.15234375 605.817382812 l 5
 424.15234375 624.470703125 l 5
 601.760742188 624.470703125 l 5
 601.760742188 605.817382812 l 5
 528.771484375 590.409179688 l 5
 528.771484375 209.239257812 l 6
 528.771484375 175.176757812 526.337890625 146.521484375 521.47265625 123.272460938 c 4
 516.606445312 100.0234375 508.766601562 80.5595703125 497.953125 64.880859375 c 4
 482.274414062 41.6318359375 459.025390625 23.654296875 428.20703125 10.9482421875 c 4
 397.389648438 -1.7578125 361.435546875 -8.1103515625 320.34375 -8.1103515625 c 4
 278.171875 -8.1103515625 240.866210938 -1.6220703125 208.42578125 11.353515625 c 4
 175.986328125 24.330078125 150.844726562 42.712890625 133.002929688 66.501953125 c 4
 122.190429688 80.55859375 114.215820312 97.3203125 109.079101562 116.784179688 c 4
 103.943359375 136.248046875 101.375 162.741210938 101.375 196.26171875 c 6
 101.375 590.408203125 l 5
 28.384765625 605.817382812 l 5
 28.384765625 624.469726562 l 5
 258.708984375 624.469726562 l 5
 258.708984375 605.817382812 l 5
 186.530273438 590.408203125 l 5
 186.530273438 184.096679688 l 6
EndSplineSet
Fore
SplineSet
187 184 m 2
 187 85 240 28 337 28 c 3
 471 28 487 104 487 243 c 2
 486 593 l 1
 424 606 l 1
 424 624 l 1
 602 624 l 1
 602 606 l 1
 539 593 l 1
 539 209 l 2
 539 62 465 -8 320 -8 c 3
 214 -8 131 33 109 117 c 0
 104 136 101 163 101 196 c 2
 101 590 l 1
 28 606 l 1
 28 624 l 1
 259 624 l 1
 259 606 l 1
 187 590 l 1
 187 184 l 2
EndSplineSet
Validated: 1
EndChar

StartChar: V
Encoding: 86 86 43
Width: 627
VWidth: 811
Flags: HMW
LayerCount: 2
Back
SplineSet
302.500976562 -8.1103515625 m 1
 90.830078125 556.346679688 l 2
 87.5859375 565.538085938 84.072265625 573.106445312 80.287109375 579.053710938 c 0
 76.5029296875 585.000976562 71.63671875 589.8671875 65.689453125 593.65234375 c 0
 59.7421875 597.436523438 52.1728515625 600.139648438 42.982421875 601.76171875 c 0
 33.791015625 603.383789062 22.1669921875 604.736328125 8.1103515625 605.817382812 c 1
 8.1103515625 624.469726562 l 1
 271.684570312 624.469726562 l 1
 271.684570312 605.817382812 l 1
 253.301757812 604.736328125 238.568359375 603.655273438 227.484375 602.57421875 c 0
 216.400390625 601.493164062 207.75 600.140625 201.532226562 598.518554688 c 0
 195.314453125 596.896484375 191.258789062 594.599609375 189.3671875 591.625 c 0
 187.474609375 588.651367188 186.528320312 585.001953125 186.528320312 580.676757812 c 0
 186.528320312 576.3515625 187.609375 570.944335938 189.772460938 564.45703125 c 0
 191.935546875 557.96875 194.368164062 550.939453125 197.071289062 543.37109375 c 2
 334.130859375 148.4140625 l 1
 338.185546875 148.4140625 l 1
 466.323242188 517.418945312 l 2
 469.026367188 524.98828125 471.053710938 531.881835938 472.40625 538.099609375 c 0
 473.7578125 544.317382812 474.43359375 550.129882812 474.43359375 555.536132812 c 0
 474.43359375 569.59375 468.350585938 580.40625 456.185546875 587.975585938 c 0
 444.020507812 595.544921875 422.529296875 601.4921875 391.7109375 605.817382812 c 1
 391.7109375 624.469726562 l 1
 619.602539062 624.469726562 l 1
 619.602539062 605.817382812 l 1
 597.975585938 602.573242188 580.674804688 598.788085938 567.698242188 594.462890625 c 0
 554.72265625 590.137695312 544.1796875 584.4609375 536.069335938 577.431640625 c 0
 527.958984375 570.403320312 521.471679688 562.0234375 516.60546875 552.291015625 c 0
 511.739257812 542.55859375 506.873046875 530.393554688 502.0078125 515.795898438 c 2
 316.288085938 -8.1103515625 l 1
 302.500976562 -8.1103515625 l 1
EndSplineSet
Fore
SplineSet
303 -8 m 1
 91 556 l 2
 82 581 71 597 43 602 c 0
 34 604 22 605 8 606 c 1
 8 624 l 1
 272 624 l 1
 272 606 l 1
 244 604 221 605 201 599 c 0
 190 597 187 592 187 581 c 0
 187 569 193 554 197 543 c 2
 320 191 l 1
 324 191 l 1
 452 560 l 2
 454 566 456 572 456 578 c 3
 456 593 444 606 392 606 c 1
 392 624 l 1
 620 624 l 1
 620 606 l 1
 570 599 536 588 517 552 c 0
 512 542 507 531 502 516 c 2
 316 -8 l 1
 303 -8 l 1
EndSplineSet
Validated: 1
EndChar

StartChar: W
Encoding: 87 87 44
Width: 926
VWidth: 811
Flags: HMW
LayerCount: 2
Back
SplineSet
302.502929688 -8.1103515625 m 1
 90.8291015625 556.346679688 l 2
 87.5849609375 565.538085938 84.0703125 573.106445312 80.2861328125 579.053710938 c 0
 76.5009765625 585.000976562 71.634765625 589.8671875 65.6875 593.65234375 c 0
 59.7412109375 597.436523438 52.171875 600.139648438 42.98046875 601.76171875 c 0
 33.7900390625 603.383789062 22.1650390625 604.736328125 8.1083984375 605.817382812 c 1
 8.1083984375 624.469726562 l 1
 271.68359375 624.469726562 l 1
 271.68359375 605.817382812 l 1
 252.760742188 604.1953125 237.62109375 602.708007812 226.267578125 601.356445312 c 0
 214.913085938 600.004882812 206.262695312 598.517578125 200.315429688 596.896484375 c 0
 194.368164062 595.274414062 190.583007812 593.24609375 188.9609375 590.813476562 c 0
 187.33984375 588.380859375 186.528320312 585.271484375 186.528320312 581.487304688 c 0
 186.528320312 577.162109375 187.204101562 572.56640625 188.555664062 567.700195312 c 0
 189.908203125 562.833984375 192.74609375 554.723632812 197.071289062 543.370117188 c 2
 334.130859375 148.413085938 l 1
 338.185546875 148.413085938 l 1
 437.126953125 467.135742188 l 1
 403.875976562 556.345703125 l 2
 400.6328125 565.537109375 397.118164062 573.106445312 393.333007812 579.052734375 c 0
 389.548828125 585 384.682617188 589.866210938 378.735351562 593.651367188 c 0
 372.788085938 597.436523438 365.219726562 600.139648438 356.028320312 601.760742188 c 0
 346.836914062 603.3828125 335.212890625 604.735351562 321.15625 605.81640625 c 1
 321.15625 624.46875 l 1
 584.731445312 624.46875 l 1
 584.731445312 605.81640625 l 1
 565.266601562 604.735351562 549.993164062 603.3828125 538.909179688 601.760742188 c 0
 527.825195312 600.139648438 519.4453125 598.381835938 513.768554688 596.489257812 c 0
 508.091796875 594.59765625 504.577148438 592.165039062 503.225585938 589.190429688 c 0
 501.874023438 586.216796875 501.198242188 582.836914062 501.198242188 579.052734375 c 0
 501.198242188 571.483398438 504.171875 559.588867188 510.119140625 543.368164062 c 2
 647.177734375 148.411132812 l 1
 651.233398438 148.411132812 l 1
 765.583984375 517.416015625 l 2
 770.450195312 532.555664062 772.8828125 545.53125 772.8828125 556.344726562 c 0
 772.8828125 570.401367188 767.0703125 581.080078125 755.446289062 588.37890625 c 0
 743.822265625 595.677734375 722.331054688 601.490234375 690.971679688 605.815429688 c 1
 690.971679688 624.46875 l 1
 918.86328125 624.46875 l 1
 918.86328125 605.815429688 l 1
 897.236328125 602.571289062 879.799804688 598.786132812 866.553710938 594.4609375 c 0
 853.307617188 590.13671875 842.62890625 584.594726562 834.518554688 577.836914062 c 0
 826.409179688 571.079101562 820.056640625 562.698242188 815.4609375 552.696289062 c 0
 810.864257812 542.694335938 806.133789062 530.393554688 801.267578125 515.795898438 c 2
 634.202148438 -8.1103515625 l 1
 615.548828125 -8.1103515625 l 1
 456.592773438 416.04296875 l 1
 321.15625 -8.1103515625 l 1
 302.502929688 -8.1103515625 l 1
EndSplineSet
Fore
SplineSet
303 -8 m 1
 91 556 l 2
 82 581 71 597 43 602 c 0
 34 604 22 605 8 606 c 1
 8 624 l 1
 272 624 l 1
 272 606 l 1
 243 604 220 603 200 597 c 0
 190 595 187 591 187 581 c 0
 187 566 191 560 197 543 c 2
 320 188 l 1
 324 188 l 1
 428 491 l 1
 404 556 l 2
 395 581 384 597 356 602 c 0
 347 604 335 605 321 606 c 1
 321 624 l 1
 585 624 l 1
 585 606 l 1
 554 604 501 606 501 579 c 3
 501 572 504 559 510 543 c 2
 632 193 l 1
 636 193 l 1
 750 562 l 2
 752 567 753 571 753 574 c 3
 753 598 721 602 691 606 c 1
 691 624 l 1
 919 624 l 1
 919 606 l 1
 870 599 832 590 815 553 c 0
 810 543 806 531 801 516 c 2
 634 -8 l 1
 616 -8 l 1
 461 402 l 1
 321 -8 l 1
 303 -8 l 1
EndSplineSet
Validated: 1
EndChar

StartChar: Y
Encoding: 89 89 45
Width: 611
VWidth: 811
Flags: HMW
LayerCount: 2
Back
SplineSet
184.908203125 18.6533203125 m 1
 257.8984375 34.0615234375 l 1
 257.8984375 265.196289062 l 1
 93.265625 556.344726562 l 2
 88.3994140625 564.99609375 83.939453125 572.16015625 79.884765625 577.836914062 c 0
 75.8291015625 583.513671875 70.828125 588.244140625 64.880859375 592.029296875 c 0
 58.93359375 595.814453125 51.4990234375 598.788085938 42.578125 600.951171875 c 0
 33.6572265625 603.114257812 22.16796875 604.736328125 8.1103515625 605.817382812 c 1
 8.1103515625 624.469726562 l 1
 274.119140625 624.469726562 l 1
 274.119140625 605.817382812 l 1
 256.276367188 604.736328125 241.814453125 603.383789062 230.73046875 601.76171875 c 0
 219.646484375 600.139648438 210.995117188 598.112304688 204.77734375 595.6796875 c 0
 198.559570312 593.24609375 194.369140625 590.272460938 192.206054688 586.758789062 c 0
 190.04296875 583.244140625 188.961914062 579.594726562 188.961914062 575.809570312 c 0
 188.961914062 567.159179688 192.4765625 556.345703125 199.504882812 543.370117188 c 2
 333.3203125 304.125 l 1
 336.564453125 304.125 l 1
 449.29296875 517.41796875 l 2
 455.78125 530.393554688 459.025390625 542.018554688 459.025390625 552.291015625 c 0
 459.025390625 583.650390625 430.91015625 601.4921875 374.681640625 605.817382812 c 1
 374.681640625 624.469726562 l 1
 603.3828125 624.469726562 l 1
 603.3828125 605.817382812 l 1
 581.755859375 602.573242188 564.860351562 598.517578125 552.6953125 593.65234375 c 0
 540.530273438 588.786132812 530.663085938 582.838867188 523.09375 575.809570312 c 0
 515.525390625 568.78125 509.172851562 560.401367188 504.036132812 550.668945312 c 0
 498.900390625 540.936523438 492.818359375 529.3125 485.7890625 515.795898438 c 2
 343.052734375 250.598632812 l 1
 343.052734375 34.0615234375 l 1
 415.232421875 18.6533203125 l 1
 415.232421875 0 l 1
 184.908203125 0 l 1
 184.908203125 18.6533203125 l 1
EndSplineSet
Fore
SplineSet
185 19 m 5
 258 34 l 5
 258 265 l 5
 93 556 l 6
 80 579 71 595 43 601 c 4
 34 603 22 605 8 606 c 5
 8 624 l 5
 274 624 l 5
 274 606 l 5
 246 604 223 602 204 595 c 4
 194 591 189 587 189 576 c 4
 189 567 193 556 200 543 c 6
 323 323 l 5
 326 323 l 5
 439 536 l 5
 445 547 448 557 448 566 c 4
 448 588 428 602 375 606 c 5
 375 624 l 5
 603 624 l 5
 603 606 l 5
 529 595 514 570 486 516 c 6
 343 251 l 5
 343 34 l 5
 415 19 l 5
 415 0 l 5
 185 0 l 5
 185 19 l 5
EndSplineSet
Validated: 1
EndChar

StartChar: P
Encoding: 80 80 46
Width: 521
VWidth: 811
Flags: HMW
LayerCount: 2
Back
SplineSet
32.4404296875 624.469726562 m 1
 284.66015625 624.470703125 l 2
 316.559570312 624.470703125 345.754882812 620.416015625 372.248046875 612.305664062 c 0
 398.741210938 604.1953125 421.584960938 592.30078125 440.778320312 576.622070312 c 0
 459.97265625 560.942382812 474.840820312 541.478515625 485.383789062 518.229492188 c 0
 495.926757812 494.98046875 501.198242188 468.48828125 501.198242188 438.750976562 c 0
 501.198242188 411.176757812 495.926757812 386.711914062 485.383789062 365.35546875 c 0
 474.840820312 343.999023438 459.701171875 326.022460938 439.967773438 311.423828125 c 0
 420.233398438 296.826171875 396.173828125 285.877929688 367.788085938 278.578125 c 0
 339.403320312 271.279296875 307.638671875 267.629882812 272.49609375 267.629882812 c 2
 186.530273438 267.629882812 l 1
 186.530273438 34.0615234375 l 1
 278.984375 18.6533203125 l 1
 278.984375 0 l 1
 32.4404296875 0 l 1
 32.4404296875 18.6533203125 l 1
 101.375 34.0615234375 l 1
 101.375 590.408203125 l 1
 32.4404296875 605.817382812 l 1
 32.4404296875 624.469726562 l 1
186.529296875 299.259765625 m 1
 247.35546875 299.262695312 l 2
 281.416992188 299.262695312 308.315429688 303.047851562 328.049804688 310.6171875 c 0
 347.783203125 318.185546875 363.59765625 328.999023438 375.493164062 343.056640625 c 0
 387.927734375 357.11328125 396.443359375 373.198242188 401.0390625 391.309570312 c 0
 405.635742188 409.421875 407.932617188 427.939453125 407.932617188 446.862304688 c 0
 407.932617188 482.005859375 401.4453125 511.06640625 388.46875 534.043945312 c 0
 375.493164062 557.022460938 357.110351562 573.106445312 333.321289062 582.297851562 c 0
 324.129882812 586.083007812 313.9921875 588.651367188 302.908203125 590.002929688 c 0
 291.82421875 591.35546875 277.90234375 592.03125 261.141601562 592.03125 c 2
 186.529296875 592.03125 l 1
 186.529296875 299.259765625 l 1
EndSplineSet
Fore
SplineSet
32 624 m 1
 285 624 l 2
 384 624 455 586 486 518 c 0
 497 494 501 469 501 439 c 3
 501 347 442 298 367 279 c 0
 339 272 307 268 272 268 c 2
 187 268 l 1
 187 34 l 1
 279 19 l 1
 279 0 l 1
 32 0 l 1
 32 19 l 1
 101 34 l 1
 101 590 l 1
 32 606 l 1
 32 624 l 1
187 322 m 1
 247 322 l 2
 353 322 408 365 408 447 c 3
 408 546 361 577 261 577 c 2
 187 577 l 1
 187 322 l 1
EndSplineSet
Validated: 1
EndChar

StartChar: R
Encoding: 82 82 47
Width: 571
VWidth: 811
Flags: HMW
LayerCount: 2
Back
SplineSet
32.4404296875 624.469726562 m 1
 284.661132812 624.469726562 l 2
 383.602539062 624.469726562 454.970703125 586.352539062 485.7890625 518.228515625 c 0
 496.33203125 494.709960938 501.198242188 468.7578125 501.198242188 438.750976562 c 3
 501.198242188 346.296875 442.805664062 298.448242188 367.3828125 278.984375 c 0
 338.998046875 271.684570312 307.369140625 267.629882812 272.49609375 267.629882812 c 2
 186.530273438 267.629882812 l 1
 186.530273438 34.0615234375 l 1
 278.984375 18.6533203125 l 1
 278.984375 0 l 1
 32.4404296875 0 l 1
 32.4404296875 18.6533203125 l 1
 101.375 34.0615234375 l 1
 101.375 590.408203125 l 1
 32.4404296875 605.817382812 l 1
 32.4404296875 624.469726562 l 1
186.530273438 321.966796875 m 1
 247.35546875 321.966796875 l 2
 353.595703125 321.966796875 407.932617188 364.950195312 407.932617188 446.861328125 c 3
 407.932617188 545.802734375 360.89453125 576.62109375 261.141601562 576.62109375 c 2
 186.530273438 576.62109375 l 1
 186.530273438 321.966796875 l 1
EndSplineSet
Fore
SplineSet
493 447 m 7
 493 357 444 298 367 279 c 5
 471 34 l 5
 564 19 l 5
 564 0 l 5
 388 0 l 5
 275 268 l 5
 187 268 l 5
 187 34 l 5
 279 19 l 5
 279 0 l 5
 32 0 l 5
 32 19 l 5
 101 34 l 5
 101 590 l 5
 32 606 l 5
 32 624 l 5
 277 624 l 6
 374 624 445 589 477 523 c 4
 488 501 493 475 493 447 c 7
239 322 m 6
 340 322 400 358 400 455 c 7
 400 551 350 577 253 577 c 6
 187 577 l 5
 187 322 l 5
 239 322 l 6
EndSplineSet
Validated: 1
EndChar

StartChar: S
Encoding: 83 83 48
Width: 450
VWidth: 811
Flags: HMW
LayerCount: 2
Back
SplineSet
476.868164062 472.813476562 m 7
 476.868164062 390.90234375 416.853515625 349.541015625 343.052734375 334.131835938 c 5
 343.052734375 330.887695312 l 5
 416.04296875 322.778320312 469.569335938 284.661132812 493.087890625 227.080078125 c 4
 500.38671875 208.426757812 504.442382812 187.340820312 504.442382812 165.444335938 c 7
 504.442382812 78.6669921875 453.348632812 26.7626953125 381.981445312 9.732421875 c 4
 355.217773438 3.244140625 319.534179688 0 274.928710938 0 c 6
 21.0859375 0 l 5
 21.0859375 18.6533203125 l 5
 90.021484375 34.0615234375 l 5
 90.021484375 590.408203125 l 5
 21.0859375 605.817382812 l 5
 21.0859375 624.469726562 l 5
 261.141601562 624.469726562 l 6
 362.516601562 624.469726562 426.5859375 605.005859375 460.6484375 540.125976562 c 4
 471.19140625 519.850585938 476.868164062 497.142578125 476.868164062 472.813476562 c 7
175.17578125 360.89453125 m 5
 225.458007812 360.89453125 l 6
 330.887695312 360.89453125 386.036132812 366.572265625 386.036132812 475.24609375 c 7
 386.036132812 554.723632812 326.022460938 576.62109375 244.921875 576.62109375 c 6
 175.17578125 576.62109375 l 5
 175.17578125 360.89453125 l 5
410.366210938 172.743164062 m 7
 410.366210938 277.362304688 351.973632812 304.935546875 244.111328125 304.935546875 c 6
 175.17578125 304.935546875 l 5
 175.17578125 104.619140625 l 6
 175.17578125 61.6357421875 198.6953125 55.958984375 246.543945312 55.958984375 c 7
 353.595703125 55.958984375 410.366210938 68.9345703125 410.366210938 172.743164062 c 7
EndSplineSet
Fore
SplineSet
223 49 m 4
 292 49 344 83 344 150 c 7
 344 190 323 200 298 221 c 4
 270 245 230 264 194 283 c 4
 139 312 86 342 58 399 c 4
 49 417 45 437 45 461 c 7
 45 543 95 596 155 620 c 4
 177 629 200 633 226 633 c 7
 282 633 317 612 349 582 c 5
 375 624 l 5
 391 624 l 5
 398 446 l 5
 377 446 l 5
 364 498 346 522 322 546 c 4
 298 570 267 582 230 582 c 7
 170 582 131 549 131 490 c 7
 131 447 152 435 176 414 c 4
 204 390 241 373 275 354 c 4
 329 325 379 295 406 239 c 4
 414 221 418 200 418 176 c 7
 418 119 394 74 363 45 c 4
 331 16 283 -7 225 -7 c 4
 170 -7 135 9 96 33 c 5
 63 0 l 5
 47 0 l 5
 32 208 l 5
 53 212 l 5
 69 146 90 121 117 92 c 4
 144 63 178 49 223 49 c 4
EndSplineSet
Validated: 1
EndChar

StartChar: asciitilde
Encoding: 126 126 49
Width: 478
VWidth: 811
Flags: HMW
LayerCount: 2
Fore
SplineSet
144 224 m 3
 108 224 97 208 89 181 c 1
 65 181 l 1
 65 226 85 261 114 280 c 0
 126 287 142 291 161 291 c 3
 228 291 267 249 334 249 c 3
 370 249 381 264 389 291 c 1
 414 291 l 1
 414 245 394 211 364 192 c 0
 352 185 337 181 318 181 c 3
 286 181 258 194 232 203 c 0
 207 212 176 224 144 224 c 3
EndSplineSet
Validated: 1
EndChar

StartChar: bar
Encoding: 124 124 50
Width: 218
VWidth: 811
Flags: HMW
LayerCount: 2
Fore
SplineSet
81 -138 m 5
 81 664 l 5
 138 664 l 5
 138 -138 l 5
 81 -138 l 5
EndSplineSet
Validated: 1
EndChar

StartChar: braceleft
Encoding: 123 123 51
Width: 266
VWidth: 811
Flags: HMW
LayerCount: 2
Fore
SplineSet
151 -53 m 3
 151 -99 161 -127 204 -127 c 3
 215 -127 227 -125 238 -122 c 1
 242 -146 l 1
 223 -153 209 -157 185 -157 c 3
 113 -157 81 -129 81 -57 c 3
 81 17 102 82 102 157 c 3
 102 225 88 260 24 260 c 1
 24 278 l 1
 84 278 102 312 102 375 c 3
 102 427 90 479 84 526 c 0
 82 541 81 557 81 569 c 3
 81 637 122 672 191 672 c 3
 212 672 227 667 242 661 c 1
 238 640 l 1
 223 642 218 644 204 644 c 3
 165 644 151 608 151 567 c 3
 151 539 157 506 161 478 c 0
 165 447 171 409 171 376 c 7
 171 320 152 284 113 269 c 1
 113 266 l 1
 154 250 171 222 171 164 c 3
 171 107 160 47 154 -7 c 0
 152 -26 151 -41 151 -53 c 3
EndSplineSet
Validated: 1
EndChar

StartChar: braceright
Encoding: 125 125 52
Width: 266
VWidth: 811
Flags: HMW
LayerCount: 2
Fore
SplineSet
186 -57 m 7
 186 -129 154 -157 82 -157 c 7
 58 -157 43 -153 24 -146 c 5
 29 -122 l 5
 40 -125 50 -127 62 -127 c 7
 105 -127 116 -99 116 -53 c 7
 116 -22 109 18 105 50 c 4
 101 85 96 128 96 164 c 7
 96 222 113 250 154 266 c 5
 154 269 l 5
 115 284 96 320 96 376 c 7
 96 427 107 480 113 526 c 4
 115 541 116 556 116 567 c 7
 116 608 101 644 62 644 c 7
 48 644 44 642 29 640 c 5
 24 661 l 5
 39 667 55 672 76 672 c 7
 145 672 186 637 186 569 c 7
 186 503 165 442 165 375 c 7
 165 312 182 278 242 278 c 5
 242 260 l 5
 178 260 165 225 165 157 c 7
 165 99 176 44 182 -9 c 4
 184 -26 186 -42 186 -57 c 7
EndSplineSet
Validated: 1
EndChar

StartChar: Z
Encoding: 90 90 53
Width: 548
VWidth: 811
Flags: HMW
LayerCount: 2
Back
SplineSet
504.442382812 624.469726562 m 5
 504.442382812 602.572265625 l 5
 131.381835938 32.439453125 l 5
 402.255859375 32.439453125 l 5
 411.98828125 47.037109375 l 6
 430.911132812 76.2333984375 446.861328125 104.482421875 459.836914062 131.787109375 c 4
 472.813476562 159.090820312 483.0859375 181.93359375 490.655273438 200.317382812 c 5
 511.741210938 197.883789062 l 5
 469.569335938 0 l 5
 24.330078125 0 l 5
 24.330078125 22.7080078125 l 5
 395.767578125 592.030273438 l 5
 137.870117188 592.030273438 l 5
 128.137695312 574.188476562 l 6
 112.458984375 544.9921875 99.888671875 519.581054688 90.4267578125 497.954101562 c 4
 80.96484375 476.327148438 74.0712890625 459.295898438 69.74609375 446.861328125 c 5
 48.66015625 447.671875 l 5
 82.7216796875 624.469726562 l 5
 504.442382812 624.469726562 l 5
EndSplineSet
Fore
SplineSet
504 624 m 1
 504 603 l 1
 147 56 l 1
 418 56 l 1
 427 71 l 2
 448 106 471 151 491 200 c 1
 512 198 l 1
 470 0 l 1
 24 0 l 1
 24 23 l 1
 380 569 l 1
 125 569 l 1
 112 543 l 2
 93 506 83 484 70 447 c 1
 49 448 l 1
 83 624 l 1
 504 624 l 1
EndSplineSet
Validated: 1
EndChar

StartChar: X
Encoding: 88 88 54
Width: 664
VWidth: 811
Flags: HMW
LayerCount: 2
Back
SplineSet
8.1103515625 16.2197265625 m 5
 23.7890625 18.3828125 37.7138671875 20.814453125 49.87890625 23.517578125 c 4
 62.0439453125 26.220703125 72.9921875 29.734375 82.724609375 34.0595703125 c 4
 92.4560546875 38.384765625 101.107421875 43.7919921875 108.676757812 50.279296875 c 4
 116.245117188 56.767578125 123.544921875 64.607421875 130.573242188 73.798828125 c 6
 302.505859375 305.744140625 l 5
 128.951171875 570.94140625 l 6
 125.70703125 576.348632812 121.922851562 580.80859375 117.59765625 584.323242188 c 4
 113.272460938 587.836914062 107.73046875 590.9453125 100.97265625 593.6484375 c 4
 94.21484375 596.3515625 85.69921875 598.649414062 75.42578125 600.541992188 c 4
 65.1533203125 602.43359375 51.9072265625 604.19140625 35.6875 605.813476562 c 5
 35.6875 624.465820312 l 5
 280.609375 624.465820312 l 5
 280.609375 605.813476562 l 5
 256.8203125 604.732421875 241.546875 602.83984375 234.788085938 600.13671875 c 4
 228.030273438 597.43359375 224.651367188 593.919921875 224.651367188 589.594726562 c 4
 224.651367188 585.809570312 225.326171875 581.889648438 226.678710938 577.834960938 c 4
 228.030273438 573.780273438 230.869140625 568.508789062 235.194335938 562.020507812 c 6
 360.899414062 369.813476562 l 5
 491.469726562 547.422851562 l 6
 500.12109375 559.317382812 504.446289062 569.049804688 504.446289062 576.618164062 c 4
 504.446289062 584.1875 499.715820312 590.270507812 490.25390625 594.866210938 c 4
 480.791992188 599.461914062 465.517578125 603.111328125 444.431640625 605.814453125 c 5
 444.431640625 624.467773438 l 5
 645.559570312 624.467773438 l 5
 645.559570312 605.814453125 l 5
 630.961914062 603.111328125 618.391601562 600.408203125 607.848632812 597.705078125 c 4
 597.305664062 595.001953125 587.84375 591.623046875 579.463867188 587.568359375 c 4
 571.083007812 583.512695312 563.37890625 578.51171875 556.349609375 572.564453125 c 4
 549.321289062 566.6171875 542.022460938 559.047851562 534.453125 549.857421875 c 6
 379.551757812 341.430664062 l 5
 568.514648438 52.7138671875 l 6
 572.299804688 46.767578125 576.760742188 41.765625 581.896484375 37.7109375 c 4
 587.032226562 33.6552734375 592.979492188 30.2763671875 599.737304688 27.5732421875 c 4
 606.49609375 24.8701171875 614.470703125 22.8427734375 623.661132812 21.490234375 c 4
 632.852539062 20.138671875 643.665039062 18.921875 656.100585938 17.8408203125 c 5
 656.100585938 -0.0009765625 l 5
 412.80078125 -0.0009765625 l 5
 412.80078125 17.8408203125 l 5
 438.211914062 20.00390625 455.107421875 22.1669921875 463.487304688 24.330078125 c 4
 471.8671875 26.4931640625 476.057617188 29.7373046875 476.057617188 34.0615234375 c 4
 476.057617188 36.7646484375 475.111328125 40.14453125 473.219726562 44.19921875 c 4
 471.327148438 48.2548828125 467.948242188 54.0673828125 463.08203125 61.6357421875 c 6
 322.778320312 274.928710938 l 5
 173.5546875 74.6123046875 l 6
 164.36328125 62.1767578125 159.767578125 51.6337890625 159.767578125 42.9833984375 c 4
 159.767578125 35.9541015625 165.174804688 30.412109375 175.987304688 26.357421875 c 4
 186.80078125 22.302734375 204.1015625 18.9228515625 227.890625 16.2197265625 c 5
 227.890625 0 l 5
 8.1103515625 0 l 5
 8.1103515625 16.2197265625 l 5
EndSplineSet
Fore
SplineSet
444 606 m 1
 444 624 l 1
 646 624 l 1
 646 606 l 1
 609 599 580 592 556 573 c 0
 549 567 541 559 534 550 c 2
 380 341 l 1
 569 53 l 2
 586 26 615 21 656 18 c 1
 656 0 l 1
 413 0 l 1
 413 18 l 1
 438 20 455 22 463 24 c 0
 471 26 476 30 476 34 c 0
 476 45 469 52 463 62 c 2
 323 275 l 1
 174 75 l 2
 165 63 160 52 160 43 c 3
 160 36 165 30 176 26 c 0
 187 22 204 18 228 16 c 1
 228 0 l 1
 8 0 l 1
 8 16 l 1
 57 22 66 22 118 92 c 2
 290 324 l 1
 129 571 l 1
 113 598 77 602 36 606 c 1
 36 624 l 1
 281 624 l 1
 281 606 l 1
 257 605 241 602 235 600 c 0
 229 598 225 594 225 590 c 0
 225 578 229 572 235 562 c 2
 349 388 l 1
 479 566 l 2
 485 575 489 582 489 587 c 3
 489 599 472 603 444 606 c 1
EndSplineSet
Validated: 1
EndChar

StartChar: equal
Encoding: 61 61 55
Width: 459
VWidth: 811
Flags: HMW
LayerCount: 2
Fore
SplineSet
63 325 m 5
 63 361 l 5
 396 361 l 5
 396 325 l 5
 63 325 l 5
63 195 m 5
 63 230 l 5
 396 230 l 5
 396 195 l 5
 63 195 l 5
EndSplineSet
Validated: 1
EndChar

StartChar: less
Encoding: 60 60 56
Width: 420
VWidth: 811
Flags: HMW
LayerCount: 2
Fore
SplineSet
32 251 m 1
 32 293 l 1
 364 451 l 1
 364 401 l 1
 91 277 l 1
 91 273 l 1
 364 147 l 1
 364 94 l 1
 32 251 l 1
EndSplineSet
Validated: 1
EndChar

StartChar: greater
Encoding: 62 62 57
Width: 420
VWidth: 811
Flags: HMW
LayerCount: 2
Fore
SplineSet
57 98 m 5
 57 147 l 5
 330 273 l 5
 330 277 l 5
 57 401 l 5
 57 455 l 5
 388 297 l 5
 388 255 l 5
 57 98 l 5
EndSplineSet
Validated: 1
EndChar

StartChar: at
Encoding: 64 64 58
Width: 708
VWidth: 811
Flags: HMW
LayerCount: 2
Fore
SplineSet
358 -84 m 0
 420 -84 464 -74 501 -52 c 1
 510 -75 l 1
 456 -102 398 -116 337 -116 c 0
 202 -116 113 -58 69 36 c 0
 53 72 45 115 45 165 c 0
 45 370 184 519 388 519 c 0
 515 519 601 455 637 364 c 0
 649 333 656 301 656 266 c 0
 656 197 632 139 601 98 c 0
 573 61 529 25 469 25 c 0
 422 25 385 49 385 92 c 0
 385 102 384 106 389 111 c 1
 386 112 l 1
 366 84 344 64 323 53 c 0
 302 42 281 36 261 36 c 0
 205 36 178 76 178 132 c 0
 178 196 210 256 242 294 c 0
 273 330 321 373 381 373 c 0
 413 373 432 360 444 341 c 1
 448 341 l 1
 457 373 l 1
 521 373 l 1
 456 138 l 2
 452 127 448 111 448 97 c 0
 448 73 460 66 482 66 c 0
 524 66 556 94 575 122 c 0
 599 156 616 206 616 264 c 0
 616 377 553 444 467 470 c 0
 439 479 410 483 380 483 c 0
 283 483 213 439 167 385 c 0
 122 332 90 256 90 164 c 0
 90 96 108 39 142 -2 c 0
 186 -55 257 -84 358 -84 c 0
249 134 m 0
 249 102 255 80 283 80 c 0
 300 80 317 87 335 102 c 0
 367 129 392 173 409 221 c 0
 417 244 421 266 421 290 c 0
 421 318 413 338 385 338 c 0
 370 338 353 332 337 320 c 0
 303 295 276 254 261 208 c 0
 253 184 249 159 249 134 c 0
EndSplineSet
Validated: 1
EndChar

StartChar: colon
Encoding: 58 58 59
Width: 230
VWidth: 811
Flags: HMW
LayerCount: 2
Fore
SplineSet
114 270 m 3
 82 270 59 293 59 325 c 3
 59 357 81 382 114 382 c 3
 147 382 171 358 171 325 c 3
 171 293 146 270 114 270 c 3
114 -8 m 3
 82 -8 59 15 59 47 c 3
 59 79 81 104 114 104 c 3
 147 104 171 80 171 47 c 3
 171 15 146 -8 114 -8 c 3
EndSplineSet
Validated: 1
EndChar

StartChar: semicolon
Encoding: 59 59 60
Width: 231
VWidth: 811
Flags: HMW
LayerCount: 2
Fore
SplineSet
115 270 m 3
 83 270 60 293 60 325 c 3
 60 357 82 382 115 382 c 3
 148 382 172 358 172 325 c 3
 172 293 147 270 115 270 c 3
114 104 m 3
 153 104 173 66 173 24 c 3
 173 -44 132 -90 87 -122 c 1
 71 -99 l 1
 86 -88 98 -75 107 -62 c 0
 116 -49 121 -38 121 -29 c 3
 121 -11 102 -3 90 4 c 0
 75 13 59 24 59 49 c 3
 59 80 83 104 114 104 c 3
EndSplineSet
Validated: 1
EndChar

StartChar: Q
Encoding: 81 81 61
Width: 679
VWidth: 811
Flags: HMW
LayerCount: 2
Back
SplineSet
338.998046875 632.580078125 m 0
 381.169921875 632.580078125 420.098632812 624.47265625 455.783203125 608.251953125 c 0
 491.466796875 592.032226562 522.5546875 569.594726562 549.047851562 540.939453125 c 0
 575.541015625 512.284179688 596.221679688 478.357421875 611.088867188 439.159179688 c 0
 625.95703125 399.961914062 633.391601562 357.654296875 633.391601562 312.23828125 c 0
 633.391601562 271.688476562 627.309570312 233.571289062 615.14453125 197.88671875 c 0
 602.979492188 162.203125 585.8125 130.57421875 563.645507812 103 c 0
 541.478515625 75.42578125 514.8515625 53.1240234375 483.762695312 36.0927734375 c 0
 452.674804688 19.0615234375 418.20703125 8.923828125 380.360351562 5.6796875 c 1
 380.360351562 2.4365234375 l 1
 393.877929688 -0.8076171875 407.39453125 -5.5380859375 420.911132812 -11.755859375 c 0
 434.428710938 -17.974609375 448.21484375 -24.3271484375 462.272460938 -30.814453125 c 0
 476.329101562 -37.302734375 490.927734375 -42.8447265625 506.06640625 -47.4404296875 c 0
 521.205078125 -52.0361328125 537.155273438 -54.333984375 553.916015625 -54.333984375 c 0
 572.298828125 -54.333984375 587.438476562 -50.8193359375 599.333007812 -43.791015625 c 0
 611.227539062 -36.76171875 622.58203125 -25.94921875 633.39453125 -11.3505859375 c 1
 655.291992188 -19.4609375 l 1
 638.53125 -57.84765625 617.309570312 -86.3681640625 591.627929688 -105.021484375 c 0
 565.9453125 -123.674804688 539.046875 -133.000976562 510.932617188 -133.000976562 c 0
 494.171875 -133.000976562 479.16796875 -129.892578125 465.921875 -123.674804688 c 0
 452.67578125 -117.456054688 440.375 -109.887695312 429.021484375 -100.966796875 c 0
 417.666992188 -92.044921875 406.71875 -82.177734375 396.17578125 -71.365234375 c 0
 385.6328125 -60.5517578125 374.819335938 -50.6845703125 363.736328125 -41.763671875 c 0
 352.65234375 -32.8427734375 340.756835938 -25.2734375 328.05078125 -19.0556640625 c 0
 315.344726562 -12.8369140625 301.15234375 -9.728515625 285.473632812 -9.728515625 c 0
 268.172851562 -9.728515625 255.466796875 -13.2431640625 247.356445312 -20.271484375 c 0
 239.247070312 -27.30078125 235.19140625 -35.9521484375 235.19140625 -46.224609375 c 0
 235.19140625 -51.0908203125 235.8671875 -55.009765625 237.21875 -57.984375 c 0
 238.571289062 -60.9580078125 240.193359375 -63.931640625 242.084960938 -66.90625 c 0
 243.977539062 -69.8798828125 245.599609375 -73.1240234375 246.951171875 -76.6376953125 c 0
 248.302734375 -80.15234375 248.978515625 -84.3427734375 248.978515625 -89.2080078125 c 0
 248.978515625 -101.103515625 245.05859375 -110.834960938 237.21875 -118.404296875 c 0
 229.37890625 -125.973632812 219.51171875 -129.758789062 207.6171875 -129.758789062 c 0
 195.181640625 -129.758789062 185.314453125 -125.703125 178.015625 -117.59375 c 0
 170.715820312 -109.483398438 167.06640625 -98.669921875 167.06640625 -85.1533203125 c 0
 167.06640625 -65.689453125 175.041015625 -47.5771484375 190.991210938 -30.81640625 c 0
 206.94140625 -14.0556640625 228.703125 -0.2685546875 256.276367188 10.544921875 c 1
 256.276367188 13.7890625 l 1
 224.377929688 20.8173828125 195.452148438 33.3876953125 169.5 51.5 c 0
 143.547851562 69.6123046875 121.380859375 91.779296875 102.998046875 118.000976562 c 0
 84.615234375 144.223632812 70.287109375 173.959960938 60.013671875 207.2109375 c 0
 49.7412109375 240.461914062 44.60546875 275.470703125 44.60546875 312.235351562 c 0
 44.60546875 357.651367188 52.0390625 399.958984375 66.9072265625 439.157226562 c 0
 81.775390625 478.35546875 102.456054688 512.282226562 128.94921875 540.936523438 c 0
 155.442382812 569.591796875 186.530273438 592.030273438 222.213867188 608.25 c 0
 257.8984375 624.469726562 296.826171875 632.580078125 338.998046875 632.580078125 c 0
146.791992188 313.048828125 m 0
 146.791992188 268.713867188 151.115234375 228.975585938 159.766601562 193.83203125 c 0
 168.416992188 158.689453125 181.123046875 128.817382812 197.883789062 104.217773438 c 0
 214.64453125 79.6171875 234.784179688 60.8291015625 258.303710938 47.8525390625 c 0
 281.822265625 34.876953125 308.720703125 28.388671875 338.998046875 28.388671875 c 0
 368.735351562 28.388671875 395.498046875 34.876953125 419.287109375 47.8525390625 c 0
 443.076171875 60.8291015625 463.350585938 79.6171875 480.112304688 104.217773438 c 0
 496.873046875 128.817382812 509.579101562 158.689453125 518.229492188 193.83203125 c 0
 526.880859375 228.975585938 531.206054688 268.984375 531.206054688 313.859375 c 0
 531.206054688 403.069335938 514.4453125 472.41015625 480.923828125 521.880859375 c 0
 447.40234375 571.3515625 400.364257812 596.086914062 339.809570312 596.086914062 c 0
 309.533203125 596.086914062 282.5 589.734375 258.7109375 577.029296875 c 0
 234.921875 564.323242188 214.646484375 545.805664062 197.885742188 521.475585938 c 0
 181.125 497.145507812 168.418945312 467.408203125 159.767578125 432.265625 c 0
 151.1171875 397.122070312 146.791992188 357.383789062 146.791992188 313.048828125 c 0
EndSplineSet
Fore
SplineSet
147 313 m 0
 147 165 195 43 339 43 c 0
 483 43 531 167 531 315 c 0
 531 463 483 577 339 577 c 0
 194 577 147 461 147 313 c 0
339 633 m 0
 519 633 633 493 633 312 c 0
 633 212 599 125 537 67 c 1
 543 52 576 19 655 -20 c 1
 648 -35 l 1
 546 -20 492 -4 436 7 c 1
 406 -3 374 -8 339 -8 c 0
 159 -8 45 131 45 312 c 0
 45 493 159 633 339 633 c 0
EndSplineSet
Validated: 1
EndChar

StartChar: plus
Encoding: 43 43 62
Width: 405
VWidth: 811
Flags: HMW
LayerCount: 2
Fore
SplineSet
182 255 m 5
 36 255 l 5
 36 295 l 5
 182 295 l 5
 182 441 l 5
 224 441 l 5
 224 295 l 5
 369 295 l 5
 369 255 l 5
 224 255 l 5
 224 109 l 5
 182 109 l 5
 182 255 l 5
EndSplineSet
Validated: 1
EndChar

StartChar: comma
Encoding: 44 44 63
Width: 209
VWidth: 811
Flags: HMW
LayerCount: 2
Fore
SplineSet
103 104 m 3
 139 104 161 71 161 35 c 3
 161 -41 124 -86 75 -122 c 1
 59 -99 l 1
 74 -88 87 -75 96 -62 c 0
 105 -49 109 -38 109 -29 c 3
 109 -9 93 -1 79 6 c 0
 63 15 49 24 49 49 c 3
 49 80 72 104 103 104 c 3
EndSplineSet
Validated: 1
EndChar

StartChar: quotesingle
Encoding: 39 39 64
Width: 176
VWidth: 811
Flags: HMW
LayerCount: 2
Fore
SplineSet
88 673 m 3
 116 673 131 655 131 628 c 3
 131 599 123 569 117 540 c 0
 110 501 102 456 101 410 c 1
 76 410 l 1
 74 477 60 534 49 588 c 0
 46 603 45 614 45 624 c 3
 45 653 60 673 88 673 c 3
EndSplineSet
Validated: 1
EndChar

StartChar: quotedbl
Encoding: 34 34 65
Width: 300
VWidth: 811
Flags: HMW
LayerCount: 2
Fore
SplineSet
88 673 m 3
 116 673 131 655 131 628 c 3
 131 599 123 569 117 540 c 0
 110 501 102 456 101 410 c 1
 76 410 l 1
 74 477 60 534 49 588 c 0
 46 603 45 614 45 624 c 3
 45 653 60 673 88 673 c 3
212 673 m 3
 240 673 255 655 255 628 c 3
 255 599 246 568 240 539 c 0
 233 500 225 456 224 410 c 1
 200 410 l 1
 198 477 184 534 173 588 c 0
 170 603 169 614 169 624 c 3
 169 653 184 673 212 673 c 3
EndSplineSet
Validated: 1
EndChar

StartChar: numbersign
Encoding: 35 35 66
Width: 546
VWidth: 811
Flags: HMW
LayerCount: 2
Fore
SplineSet
420 564 m 1
 398 426 l 1
 514 426 l 1
 504 380 l 1
 391 380 l 1
 371 258 l 1
 485 258 l 1
 474 212 l 1
 364 212 l 1
 343 75 l 1
 297 75 l 1
 318 212 l 1
 197 212 l 1
 176 75 l 1
 129 75 l 1
 150 212 l 1
 32 212 l 1
 44 258 l 1
 157 258 l 1
 177 380 l 1
 63 380 l 1
 73 426 l 1
 184 426 l 1
 206 564 l 1
 253 564 l 1
 231 426 l 1
 352 426 l 1
 374 564 l 1
 420 564 l 1
204 258 m 1
 325 258 l 1
 345 380 l 1
 224 380 l 1
 204 258 l 1
EndSplineSet
Validated: 1
EndChar

StartChar: dollar
Encoding: 36 36 67
Width: 433
VWidth: 811
Flags: HMW
LayerCount: 2
Back
SplineSet
240.053710938 49.470703125 m 0
 308.98828125 49.470703125 360.892578125 83.533203125 360.892578125 150.03515625 c 3
 360.892578125 189.774414062 339.806640625 199.505859375 314.666015625 220.591796875 c 0
 286.280273438 244.921875 246.541992188 264.385742188 210.857421875 283.0390625 c 0
 155.709960938 312.235351562 102.994140625 342.2421875 75.4208984375 399.01171875 c 0
 66.5 416.853515625 62.4443359375 437.940429688 62.4443359375 461.458984375 c 3
 62.4443359375 543.370117188 111.916015625 596.084960938 171.9296875 619.603515625 c 0
 193.826171875 628.525390625 217.345703125 632.580078125 243.297851562 632.580078125 c 3
 299.256835938 632.580078125 334.129882812 612.3046875 365.758789062 582.297851562 c 1
 391.7109375 624.469726562 l 1
 407.930664062 624.469726562 l 1
 415.229492188 446.049804688 l 1
 394.143554688 446.049804688 l 1
 381.16796875 497.954101562 362.514648438 521.47265625 338.99609375 545.802734375 c 0
 315.4765625 570.1328125 284.658203125 582.297851562 247.352539062 582.297851562 c 3
 187.338867188 582.297851562 147.599609375 549.046875 147.599609375 489.84375 c 3
 147.599609375 446.861328125 168.685546875 435.506835938 193.015625 414.420898438 c 0
 220.58984375 390.090820312 257.895507812 372.249023438 291.958007812 353.595703125 c 0
 346.294921875 324.400390625 395.765625 295.204101562 422.528320312 239.245117188 c 0
 430.638671875 221.403320312 435.504882812 200.317382812 435.504882812 175.987304688 c 3
 435.504882812 119.216796875 410.36328125 74.6123046875 379.545898438 45.416015625 c 0
 347.916992188 16.2197265625 300.87890625 -7.298828125 242.486328125 -7.298828125 c 0
 187.338867188 -7.298828125 151.654296875 9.732421875 112.7265625 33.2509765625 c 1
 80.287109375 0 l 1
 64.06640625 0 l 1
 49.46875 207.616210938 l 1
 69.7431640625 212.482421875 l 1
 85.9638671875 146.791015625 107.049804688 121.650390625 133.8125 92.4541015625 c 0
 160.575195312 63.2578125 195.448242188 49.470703125 240.053710938 49.470703125 c 0
EndSplineSet
Fore
SplineSet
41 98 m 0
 41 126 56 146 84 146 c 0
 137 146 128 77 152 49 c 0
 164 35 182 28 207 26 c 1
 207 269 l 1
 149 300 92 332 62 392 c 0
 53 411 48 433 48 459 c 0
 48 536 88 585 141 611 c 0
 161 621 183 628 207 631 c 1
 207 720 l 1
 241 720 l 1
 241 633 l 1
 300 630 349 606 373 567 c 0
 379 555 384 541 384 527 c 0
 384 499 367 479 339 479 c 0
 305 479 297 506 290 534 c 0
 281 566 271 588 241 597 c 1
 241 366 l 1
 296 335 351 304 379 246 c 0
 388 227 393 204 393 178 c 0
 393 99 352 47 301 19 c 0
 282 8 263 1 241 -3 c 1
 241 -83 l 1
 207 -83 l 1
 207 -7 l 1
 138 -7 81 16 54 57 c 0
 45 70 41 83 41 98 c 0
241 28 m 1
 286 39 318 74 318 129 c 0
 318 157 310 179 295 198 c 0
 280 217 263 232 241 247 c 1
 241 28 l 1
207 598 m 1
 162 592 133 556 133 504 c 0
 133 477 140 455 154 436 c 0
 168 417 186 402 207 388 c 1
 207 598 l 1
EndSplineSet
Validated: 1
EndChar

StartChar: percent
Encoding: 37 37 68
Width: 653
VWidth: 811
Flags: HMW
LayerCount: 2
Fore
SplineSet
156 603 m 3
 119 603 112 566 108 529 c 0
 106 510 105 486 105 458 c 3
 105 411 106 374 117 344 c 0
 124 326 134 316 156 316 c 3
 194 316 200 351 204 388 c 0
 206 407 207 430 207 458 c 3
 207 505 206 543 195 574 c 0
 189 593 179 603 156 603 c 3
497 337 m 3
 538 337 569 312 588 285 c 0
 610 255 625 212 625 162 c 3
 625 88 594 33 547 6 c 0
 532 -3 515 -8 497 -8 c 3
 456 -8 425 15 406 41 c 0
 384 70 370 113 370 162 c 3
 370 237 400 295 447 323 c 0
 462 332 479 337 497 337 c 3
497 308 m 3
 460 308 453 271 449 234 c 0
 447 215 447 191 447 163 c 3
 447 116 447 79 458 49 c 0
 465 31 475 21 497 21 c 3
 535 21 541 55 545 92 c 0
 547 111 548 135 548 163 c 3
 548 210 547 248 536 279 c 0
 530 298 520 308 497 308 c 3
461 578 m 1
 429 560 399 555 360 555 c 3
 325 555 293 556 252 571 c 1
 252 571 267 547 273 526 c 0
 279 505 284 481 284 457 c 3
 284 383 253 328 206 301 c 0
 191 292 174 287 156 287 c 3
 115 287 84 311 65 337 c 0
 43 366 28 408 28 457 c 3
 28 532 59 590 106 618 c 0
 121 627 138 632 156 632 c 3
 174 632 191 627 206 618 c 1
 258 592 307 579 353 579 c 3
 402 579 448 594 490 624 c 1
 547 624 l 1
 165 0 l 1
 109 0 l 1
 461 578 l 1
EndSplineSet
Validated: 1
EndChar

StartChar: period
Encoding: 46 46 69
Width: 209
VWidth: 811
Flags: HMW
LayerCount: 2
Fore
SplineSet
104 -8 m 3
 72 -8 49 15 49 47 c 3
 49 79 71 104 104 104 c 3
 137 104 161 80 161 47 c 3
 161 15 136 -8 104 -8 c 3
EndSplineSet
Validated: 1
EndChar

StartChar: exclam
Encoding: 33 33 71
Width: 243
VWidth: 811
Flags: HMW
LayerCount: 2
Fore
SplineSet
122 633 m 7
 154 633 170 610 170 579 c 7
 170 568 168 549 165 521 c 4
 153 418 145 301 138 187 c 5
 105 187 l 5
 98 301 89 417 77 520 c 4
 74 548 72 566 72 577 c 7
 72 608 90 633 122 633 c 7
121 -8 m 7
 91 -8 69 15 69 44 c 7
 69 75 89 97 121 97 c 7
 153 97 174 76 174 44 c 7
 174 14 153 -8 121 -8 c 7
EndSplineSet
Validated: 1
EndChar

StartChar: zero
Encoding: 48 48 72
Width: 512
VWidth: 811
Flags: HMW
LayerCount: 2
Fore
SplineSet
255 633 m 7
 326 633 374 587 406 539 c 4
 443 482 468 401 468 309 c 7
 468 176 421 67 339 16 c 4
 313 0 285 -8 255 -8 c 7
 184 -8 136 36 105 83 c 4
 69 138 45 218 45 309 c 7
 45 444 91 554 172 607 c 4
 198 624 225 633 255 633 c 7
255 591 m 7
 206 591 184 564 169 525 c 4
 146 467 144 399 144 310 c 7
 144 222 146 155 169 97 c 4
 184 59 206 33 255 33 c 7
 304 33 328 59 343 97 c 4
 366 154 369 222 369 310 c 7
 369 398 366 466 343 524 c 4
 328 563 304 591 255 591 c 7
EndSplineSet
Validated: 1
EndChar

StartChar: one
Encoding: 49 49 73
Width: 341
VWidth: 811
Flags: HMW
LayerCount: 2
Fore
SplineSet
36 527 m 1
 103 549 157 585 208 633 c 1
 225 626 l 1
 225 34 l 1
 329 18 l 1
 329 0 l 1
 32 0 l 1
 32 18 l 1
 139 34 l 1
 139 510 l 1
 36 510 l 1
 36 527 l 1
EndSplineSet
Validated: 1
EndChar

StartChar: two
Encoding: 50 50 74
Width: 469
VWidth: 811
Flags: HMW
LayerCount: 2
Fore
SplineSet
354 73 m 1
 378 100 400 135 419 168 c 1
 437 161 l 1
 375 0 l 1
 28 0 l 1
 20 19 l 1
 74 71 120 117 157 158 c 0
 194 199 224 236 247 269 c 0
 270 302 286 334 297 362 c 0
 308 390 313 416 313 442 c 0
 313 500 290 542 251 561 c 0
 238 567 223 571 208 571 c 0
 145 571 95 522 71 477 c 1
 54 486 l 1
 78 548 122 599 184 622 c 0
 203 629 224 633 244 633 c 0
 295 633 334 610 360 582 c 0
 387 554 406 513 406 459 c 0
 406 432 401 406 390 378 c 0
 379 350 363 321 340 290 c 0
 317 259 287 226 251 190 c 0
 215 154 173 115 122 73 c 1
 354 73 l 1
EndSplineSet
Validated: 1
EndChar

StartChar: three
Encoding: 51 51 75
Width: 448
VWidth: 811
Flags: HMW
LayerCount: 2
Fore
SplineSet
189 305 m 0
 174 305 159 303 143 301 c 1
 138 323 l 1
 182 342 215 367 239 395 c 0
 263 423 275 455 275 488 c 0
 275 536 247 576 202 576 c 0
 139 576 95 528 75 479 c 1
 56 484 l 1
 69 551 114 600 172 622 c 0
 191 629 212 633 234 633 c 0
 294 633 336 605 355 564 c 0
 361 549 365 534 365 517 c 0
 365 489 356 463 338 438 c 0
 320 413 295 392 263 373 c 1
 263 370 l 1
 348 363 404 299 404 207 c 0
 404 141 375 89 341 54 c 0
 307 19 257 -8 191 -8 c 0
 125 -8 73 18 49 59 c 0
 41 73 36 87 36 102 c 0
 36 132 53 152 82 152 c 0
 118 152 128 118 137 90 c 0
 148 58 165 28 208 28 c 0
 266 28 302 71 319 114 c 0
 325 130 328 146 328 165 c 0
 328 230 289 274 243 294 c 0
 226 301 208 305 189 305 c 0
EndSplineSet
Validated: 1
EndChar

StartChar: four
Encoding: 52 52 76
Width: 472
VWidth: 811
Flags: HMW
LayerCount: 2
Fore
SplineSet
274 173 m 5
 15 173 l 5
 8 187 l 5
 335 633 l 5
 356 624 l 5
 356 234 l 5
 431 234 l 5
 431 173 l 5
 356 173 l 5
 356 34 l 5
 428 19 l 5
 428 0 l 5
 177 0 l 5
 177 19 l 5
 274 34 l 5
 274 173 l 5
274 471 m 5
 271 471 l 5
 103 238 l 5
 104 234 l 5
 274 234 l 5
 274 471 l 5
EndSplineSet
Validated: 1
EndChar

StartChar: five
Encoding: 53 53 77
Width: 445
VWidth: 811
Flags: HMW
LayerCount: 2
Fore
SplineSet
28 94 m 4
 28 123 43 141 71 141 c 4
 119 141 120 87 139 58 c 4
 150 41 168 28 197 28 c 4
 238 28 267 49 287 73 c 4
 309 99 324 138 324 183 c 4
 324 256 289 305 237 327 c 4
 219 334 200 338 178 338 c 4
 145 338 115 328 90 307 c 5
 78 308 l 5
 120 614 l 5
 378 614 l 5
 356 541 l 5
 148 541 l 5
 127 401 l 5
 151 409 169 414 198 414 c 4
 294 414 358 365 386 297 c 4
 396 273 401 246 401 217 c 4
 401 147 372 93 336 57 c 4
 300 21 245 -8 176 -8 c 4
 113 -8 64 15 40 54 c 4
 33 66 28 79 28 94 c 4
EndSplineSet
Validated: 1
EndChar

StartChar: six
Encoding: 54 54 78
Width: 476
VWidth: 811
Flags: HMW
LayerCount: 2
Back
SplineSet
150.844726562 334.131835938 m 5
 174.427734375 358.78515625 223.801757812 376.303710938 272.495117188 376.303710938 c 4
 357.93359375 376.303710938 411.541015625 329.725585938 435.505859375 266.819335938 c 4
 444.157226562 244.111328125 448.482421875 218.969726562 448.482421875 191.396484375 c 4
 448.482421875 95.5234375 396.629882812 33.6630859375 326.427734375 6.48828125 c 4
 301.286132812 -3.244140625 273.577148438 -8.1103515625 243.299804688 -8.1103515625 c 4
 142.499023438 -8.1103515625 83.65625 46.80078125 58.3916015625 124.083007812 c 4
 49.201171875 152.198242188 44.60546875 184.096679688 44.60546875 219.78125 c 4
 44.60546875 321.6171875 80.802734375 404.563476562 127.732421875 467.135742188 c 4
 181.520507812 538.853515625 258.422851562 595.940429688 350.3515625 630.146484375 c 5
 356.838867188 609.87109375 l 5
 305.404296875 582.439453125 257.241210938 535.165039062 222.212890625 488.626953125 c 4
 190.9609375 447.104492188 158.712890625 391.829101562 150.844726562 334.131835938 c 5
139.4921875 195.451171875 m 4
 139.4921875 108.985351562 169.748046875 34.0615234375 248.166015625 34.0615234375 c 4
 320.946289062 34.0615234375 351.973632812 98.8037109375 351.973632812 177.609375 c 4
 351.973632812 260.506835938 317.879882812 330.077148438 240.866210938 330.077148438 c 4
 200.173828125 330.077148438 166.953125 310.907226562 149.223632812 286.282226562 c 5
 143.989257812 262.203125 139.4921875 224.916992188 139.4921875 195.451171875 c 4
EndSplineSet
Fore
SplineSet
151 334 m 1
 175 358 223 376 272 376 c 0
 357 376 412 330 436 267 c 0
 445 244 448 219 448 191 c 0
 448 95 397 34 326 6 c 0
 301 -4 273 -8 243 -8 c 0
 142 -8 83 47 58 124 c 0
 49 152 45 184 45 220 c 0
 45 322 81 405 128 467 c 0
 182 538 258 596 350 630 c 1
 357 610 l 1
 306 582 257 534 222 488 c 0
 190 447 159 392 151 334 c 1
139 195 m 0
 139 108 169 34 248 34 c 0
 321 34 352 99 352 178 c 0
 352 261 318 330 241 330 c 0
 200 330 165 296 147 272 c 1
 142 247 139 224 139 195 c 0
EndSplineSet
Validated: 1
EndChar

StartChar: seven
Encoding: 55 55 79
Width: 402
VWidth: 811
Flags: HMW
LayerCount: 2
Fore
SplineSet
89 541 m 1
 66 522 55 507 37 479 c 1
 20 488 l 1
 76 616 l 1
 388 616 l 1
 394 604 l 1
 330 457 279 326 227 167 c 0
 215 131 201 88 186 39 c 0
 176 7 159 -8 134 -8 c 0
 109 -8 95 8 95 33 c 0
 95 44 98 56 104 71 c 0
 110 86 117 105 127 125 c 1
 306 541 l 1
 89 541 l 1
EndSplineSet
Validated: 1
EndChar

StartChar: eight
Encoding: 56 56 80
Width: 480
VWidth: 811
Flags: HMW
LayerCount: 2
Fore
SplineSet
302 357 m 1
 348 329 382 301 403 272 c 0
 424 243 436 210 436 174 c 0
 436 62 346 -8 234 -8 c 0
 129 -8 45 54 45 158 c 0
 45 244 101 290 168 325 c 1
 112 362 64 401 64 478 c 0
 64 576 142 633 241 633 c 0
 331 633 407 584 407 496 c 0
 407 438 373 392 302 357 c 1
236 596 m 0
 179 596 140 561 140 505 c 0
 140 433 202 401 264 373 c 1
 312 408 336 449 336 496 c 0
 336 556 296 596 236 596 c 0
246 28 m 0
 316 28 362 70 362 139 c 0
 362 231 284 269 204 305 c 1
 158 277 126 229 126 159 c 0
 126 81 169 28 246 28 c 0
EndSplineSet
Validated: 1
EndChar

StartChar: nine
Encoding: 57 57 81
Width: 480
VWidth: 811
Flags: HMW
LayerCount: 2
Fore
SplineSet
330 288 m 1
 306 264 257 246 208 246 c 3
 99 246 32 322 32 431 c 3
 32 553 116 630 238 630 c 3
 371 630 436 536 436 402 c 3
 436 300 400 217 353 155 c 0
 299 84 223 25 131 -8 c 1
 124 12 l 1
 175 40 224 88 259 134 c 0
 291 175 322 230 330 288 c 1
341 427 m 3
 341 514 312 586 233 586 c 3
 160 586 129 523 129 444 c 3
 129 361 163 300 240 300 c 3
 281 300 314 320 332 344 c 1
 337 368 341 398 341 427 c 3
EndSplineSet
Validated: 1
EndChar

StartChar: question
Encoding: 63 63 82
Width: 351
VWidth: 811
Flags: HMW
LayerCount: 2
Back
SplineSet
159.766601562 632.580078125 m 3
 192.20703125 632.580078125 208.426757812 609.872070312 208.426757812 579.053710938 c 3
 208.426757812 568.510742188 206.8046875 549.046875 203.560546875 521.47265625 c 0
 191.396484375 418.475585938 183.286132812 300.0703125 175.987304688 186.530273438 c 1
 142.736328125 186.530273438 l 1
 135.436523438 300.0703125 127.327148438 416.853515625 115.162109375 519.850585938 c 0
 111.91796875 547.424804688 110.295898438 566.078125 110.295898438 576.62109375 c 3
 110.295898438 607.439453125 128.137695312 632.580078125 159.766601562 632.580078125 c 3
158.956054688 -8.1103515625 m 3
 128.94921875 -8.1103515625 107.051757812 14.59765625 107.051757812 43.7939453125 c 3
 107.051757812 74.6123046875 127.327148438 97.3203125 158.956054688 97.3203125 c 3
 191.396484375 97.3203125 212.482421875 76.234375 212.482421875 43.7939453125 c 3
 212.482421875 13.787109375 190.584960938 -8.1103515625 158.956054688 -8.1103515625 c 3
EndSplineSet
Fore
SplineSet
159 -8 m 3
 127 -8 107 14 107 45 c 3
 107 76 129 97 160 97 c 3
 191 97 212 76 212 45 c 3
 212 14 190 -8 159 -8 c 3
101 493 m 0
 101 469 110 476 110 453 c 0
 110 434 86 424 71 424 c 0
 58 424 36 431 36 459 c 0
 36 529 104 586 179 586 c 0
 262 586 315 523 315 449 c 3
 315 385 265 350 227 322 c 0
 188 294 177 277 177 222 c 2
 177 187 l 25
 143 187 l 25
 143 224 l 2
 143 259 147 306 200 354 c 0
 232 384 244 408 244 446 c 3
 244 499 221 535 175 535 c 0
 129 535 101 517 101 493 c 0
EndSplineSet
Validated: 1
EndChar

StartChar: uni0000
Encoding: 0 0 83
Width: 695
VWidth: 811
Flags: HMW
LayerCount: 2
Back
SplineSet
501.198242188 304.935546875 m 5
 194.639648438 304.935546875 l 5
 194.639648438 34.0615234375 l 5
 266.819335938 18.6533203125 l 5
 266.819335938 0 l 5
 36.4951171875 0 l 5
 36.4951171875 18.6533203125 l 5
 109.485351562 34.0615234375 l 5
 109.485351562 590.408203125 l 5
 36.4951171875 605.817382812 l 5
 36.4951171875 624.469726562 l 5
 266.819335938 624.469726562 l 5
 266.819335938 605.817382812 l 5
 194.639648438 590.408203125 l 5
 194.639648438 360.89453125 l 5
 501.198242188 360.89453125 l 5
 501.198242188 590.408203125 l 5
 428.208007812 605.817382812 l 5
 428.208007812 624.469726562 l 5
 658.532226562 624.469726562 l 5
 658.532226562 604.1953125 l 5
 586.352539062 590.408203125 l 5
 586.352539062 34.0615234375 l 5
 658.532226562 17.03125 l 5
 658.532226562 0 l 5
 428.208007812 0 l 5
 428.208007812 18.6533203125 l 5
 501.198242188 34.0615234375 l 5
 501.198242188 304.935546875 l 5
EndSplineSet
Fore
SplineSet
36 624 m 1
 659 624 l 1
 659 0 l 1
 36 0 l 1
 36 624 l 1
109 551 m 1
 109 73 l 1
 586 73 l 1
 586 551 l 1
 109 551 l 1
347 496 m 0
 316 496 302 478 292 453 c 0
 277 416 276 372 276 315 c 0
 276 280 277 251 281 224 c 1
 404 451 l 2
 403 453 l 0
 393 478 378 496 347 496 c 0
347 521 m 0
 392 521 424 492 444 461 c 0
 468 425 483 374 483 315 c 0
 483 230 454 159 401 127 c 0
 385 116 366 112 347 112 c 0
 302 112 270 139 251 169 c 0
 227 205 212 257 212 315 c 0
 212 401 242 472 294 506 c 0
 310 517 328 521 347 521 c 0
289 186 m 2
 290 184 291 180 292 178 c 0
 302 154 316 138 347 138 c 0
 378 138 393 155 403 179 c 0
 418 215 420 259 420 315 c 0
 420 353 419 386 414 414 c 1
 289 186 l 2
EndSplineSet
Validated: 1
EndChar

StartChar: plusminus
Encoding: 177 177 84
Width: 467
VWidth: 811
Flags: HMW
LayerCount: 2
Fore
SplineSet
213 342 m 1
 67 342 l 1
 67 382 l 1
 213 382 l 1
 213 528 l 1
 255 528 l 1
 255 382 l 1
 400 382 l 1
 400 342 l 1
 255 342 l 1
 255 195 l 1
 213 195 l 1
 213 342 l 1
67 86 m 1
 67 126 l 1
 400 126 l 1
 400 86 l 1
 67 86 l 1
EndSplineSet
Validated: 1
EndChar

StartChar: uni00B2
Encoding: 178 178 85
Width: 328
VWidth: 811
Flags: HMW
LayerCount: 2
Fore
SplineSet
36 650 m 1
 56 704 100 751 168 751 c 0
 222 751 260 720 276 681 c 0
 282 667 285 652 285 636 c 0
 285 593 268 563 245 535 c 0
 207 487 159 450 105 407 c 1
 239 407 l 1
 254 422 267 441 278 461 c 1
 298 457 l 1
 255 337 l 1
 28 337 l 1
 23 368 l 1
 78 420 125 467 164 521 c 0
 179 541 189 559 195 576 c 0
 201 593 205 610 205 625 c 0
 205 667 182 700 141 700 c 0
 100 700 69 667 54 638 c 1
 36 650 l 1
EndSplineSet
Validated: 1
EndChar

StartChar: uni00B3
Encoding: 179 179 86
Width: 315
VWidth: 811
Flags: HMW
LayerCount: 2
Fore
SplineSet
126 533 m 4
 117 533 104 532 97 530 c 5
 90 554 l 5
 118 565 141 579 157 598 c 4
 173 617 182 635 182 655 c 4
 182 683 164 702 136 702 c 4
 100 702 73 677 60 651 c 5
 43 659 l 5
 54 711 100 751 162 751 c 4
 215 751 256 720 256 668 c 4
 256 623 221 594 184 584 c 5
 184 581 l 5
 241 576 281 535 281 473 c 4
 281 407 239 361 191 342 c 4
 173 335 154 332 134 332 c 4
 89 332 53 348 36 376 c 4
 30 385 28 395 28 406 c 4
 28 428 40 444 62 444 c 4
 87 444 94 423 101 405 c 4
 109 385 118 366 146 366 c 4
 186 366 208 399 208 441 c 4
 208 495 178 533 126 533 c 4
EndSplineSet
Validated: 1
EndChar

StartChar: degree
Encoding: 176 176 87
Width: 275
VWidth: 811
Flags: HMW
LayerCount: 2
Fore
SplineSet
138 476 m 3
 80 476 40 517 40 574 c 3
 40 631 81 673 138 673 c 3
 195 673 236 631 236 574 c 3
 236 516 195 476 138 476 c 3
138 641 m 3
 100 641 73 612 73 574 c 3
 73 537 101 509 138 509 c 3
 176 509 203 536 203 574 c 3
 203 613 177 641 138 641 c 3
EndSplineSet
Validated: 1
EndChar

StartChar: acute
Encoding: 180 180 88
Width: 137
VWidth: 811
Flags: HMW
LayerCount: 2
Fore
SplineSet
98 697 m 0
 117 697 130 681 130 662 c 0
 130 640 119 627 105 612 c 2
 25 512 l 1
 8 521 l 1
 54 659 l 2
 61 680 71 697 98 697 c 0
EndSplineSet
Validated: 1
EndChar

StartChar: periodcentered
Encoding: 183 183 89
Width: 228
VWidth: 811
Flags: HMW
LayerCount: 2
Fore
SplineSet
114 178 m 7
 82 178 58 201 58 233 c 7
 58 265 81 290 114 290 c 7
 147 290 170 266 170 233 c 7
 170 201 146 178 114 178 c 7
EndSplineSet
Validated: 1
EndChar

StartChar: multiply
Encoding: 215 215 90
Width: 398
VWidth: 811
Flags: HMW
LayerCount: 2
Fore
SplineSet
169 276 m 1
 56 389 l 1
 86 419 l 1
 200 306 l 1
 313 419 l 1
 345 388 l 1
 231 274 l 1
 344 161 l 1
 314 131 l 1
 201 244 l 1
 87 130 l 1
 55 161 l 1
 169 276 l 1
EndSplineSet
Validated: 1
EndChar

StartChar: dieresis
Encoding: 168 168 91
Width: 257
VWidth: 811
Flags: HMW
LayerCount: 2
Fore
SplineSet
53 543 m 3
 27 543 8 563 8 588 c 3
 8 614 26 633 53 633 c 3
 81 633 97 615 97 588 c 3
 97 562 80 543 53 543 c 3
204 543 m 3
 178 543 160 563 160 588 c 3
 160 614 177 633 204 633 c 3
 232 633 249 615 249 588 c 3
 249 562 231 543 204 543 c 3
EndSplineSet
Validated: 1
EndChar

StartChar: macron
Encoding: 175 175 92
Width: 248
VWidth: 811
Flags: HMW
LayerCount: 2
Fore
SplineSet
8 575 m 1
 8 633 l 1
 241 633 l 1
 241 575 l 1
 8 575 l 1
EndSplineSet
Validated: 1
EndChar

StartChar: bracketleft
Encoding: 91 91 93
Width: 262
VWidth: 811
Flags: HMW
LayerCount: 2
Fore
SplineSet
82 -152 m 5
 82 665 l 5
 243 665 l 5
 243 639 l 5
 148 639 l 5
 148 -127 l 5
 243 -127 l 5
 243 -152 l 5
 82 -152 l 5
EndSplineSet
Validated: 1
EndChar

StartChar: backslash
Encoding: 92 92 94
Width: 291
VWidth: 811
Flags: HMW
LayerCount: 2
Fore
SplineSet
200 -137 m 5
 36 664 l 5
 93 664 l 5
 255 -137 l 5
 200 -137 l 5
EndSplineSet
Validated: 1
EndChar

StartChar: bracketright
Encoding: 93 93 95
Width: 262
VWidth: 811
Flags: HMW
LayerCount: 2
Fore
SplineSet
19 -152 m 5
 19 -127 l 5
 115 -127 l 5
 115 639 l 5
 19 639 l 5
 19 665 l 5
 181 665 l 5
 181 -152 l 5
 19 -152 l 5
EndSplineSet
Validated: 1
EndChar

StartChar: asciicircum
Encoding: 94 94 96
Width: 401
VWidth: 811
Flags: HMW
LayerCount: 2
Fore
SplineSet
36 269 m 1
 187 577 l 1
 216 577 l 1
 365 269 l 1
 331 269 l 1
 202 526 l 1
 199 526 l 1
 71 269 l 1
 36 269 l 1
EndSplineSet
Validated: 1
EndChar

StartChar: underscore
Encoding: 95 95 97
Width: 567
VWidth: 811
Flags: HMW
LayerCount: 2
Fore
SplineSet
61 -60 m 5
 61 -24 l 5
 507 -24 l 5
 507 -60 l 5
 61 -60 l 5
EndSplineSet
Validated: 1
EndChar

StartChar: grave
Encoding: 96 96 98
Width: 137
VWidth: 811
Flags: HMW
LayerCount: 2
Fore
SplineSet
8 662 m 3
 8 681 21 697 40 697 c 3
 67 697 77 680 84 659 c 2
 130 521 l 1
 113 512 l 1
 32 612 l 2
 18 627 8 640 8 662 c 3
EndSplineSet
Validated: 1
EndChar

StartChar: quotedblleft
Encoding: 8220 8220 99
Width: 354
VWidth: 811
Flags: HMW
LayerCount: 2
Fore
SplineSet
101 447 m 3
 65 447 43 480 43 516 c 3
 43 592 79 637 128 673 c 1
 144 650 l 1
 129 639 117 626 108 613 c 0
 99 600 94 589 94 580 c 3
 94 560 110 552 124 545 c 0
 140 536 155 526 155 501 c 3
 155 470 132 447 101 447 c 3
256 447 m 3
 220 447 199 480 199 516 c 3
 199 592 235 637 284 673 c 1
 300 650 l 1
 285 639 273 626 264 613 c 0
 255 600 250 589 250 580 c 3
 250 560 266 552 280 545 c 0
 296 536 311 526 311 501 c 3
 311 470 287 447 256 447 c 3
EndSplineSet
Validated: 1
EndChar

StartChar: quotedblright
Encoding: 8221 8221 100
Width: 351
VWidth: 811
Flags: HMW
LayerCount: 2
Fore
SplineSet
255 673 m 3
 291 673 313 640 313 604 c 3
 313 528 277 483 228 447 c 1
 212 470 l 1
 227 481 239 494 248 507 c 0
 257 520 262 531 262 540 c 7
 262 560 246 568 232 575 c 0
 216 584 201 594 201 619 c 3
 201 650 224 673 255 673 c 3
100 673 m 3
 136 673 157 640 157 604 c 3
 157 528 121 483 72 447 c 1
 56 470 l 1
 71 481 83 494 92 507 c 0
 101 520 106 531 106 540 c 7
 106 560 90 568 76 575 c 0
 60 584 45 594 45 619 c 3
 45 650 69 673 100 673 c 3
EndSplineSet
Validated: 1
EndChar

StartChar: quotedblbase
Encoding: 8222 8222 101
Width: 369
VWidth: 811
Flags: HMW
LayerCount: 2
Fore
SplineSet
260 104 m 3
 296 104 318 71 318 35 c 3
 318 -41 282 -86 233 -122 c 1
 217 -99 l 1
 232 -88 244 -75 253 -62 c 0
 262 -49 267 -38 267 -29 c 3
 267 -9 251 -1 237 6 c 0
 221 15 206 24 206 49 c 3
 206 80 229 104 260 104 c 3
105 104 m 3
 141 104 162 71 162 35 c 3
 162 -41 126 -86 77 -122 c 1
 61 -99 l 1
 76 -88 88 -75 97 -62 c 0
 106 -49 111 -38 111 -29 c 3
 111 -9 95 -1 81 6 c 0
 65 15 50 24 50 49 c 3
 50 80 74 104 105 104 c 3
EndSplineSet
Validated: 1
EndChar

StartChar: quoteleft
Encoding: 8216 8216 102
Width: 198
VWidth: 811
Flags: HMW
LayerCount: 2
Fore
SplineSet
101 447 m 7
 65 447 43 480 43 516 c 7
 43 592 79 637 128 673 c 5
 144 650 l 5
 129 639 117 626 108 613 c 4
 99 600 94 589 94 580 c 7
 94 560 110 552 124 545 c 4
 140 536 155 526 155 501 c 7
 155 470 132 447 101 447 c 7
EndSplineSet
Validated: 1
EndChar

StartChar: quoteright
Encoding: 8217 8217 103
Width: 196
VWidth: 811
Flags: HMW
LayerCount: 2
Fore
SplineSet
100 673 m 3
 136 673 157 640 157 604 c 3
 157 528 121 483 72 447 c 1
 56 470 l 1
 71 481 83 494 92 507 c 0
 101 520 106 531 106 540 c 3
 106 560 90 568 76 575 c 0
 60 584 45 594 45 619 c 3
 45 650 69 673 100 673 c 3
EndSplineSet
Validated: 1
EndChar

StartChar: ellipsis
Encoding: 8230 8230 104
Width: 666
VWidth: 811
Flags: HMW
LayerCount: 2
Fore
SplineSet
105 -8 m 4
 73 -8 50 15 50 47 c 4
 50 79 72 104 105 104 c 4
 138 104 162 80 162 47 c 4
 162 15 137 -8 105 -8 c 4
333 -8 m 4
 301 -8 277 15 277 47 c 4
 277 79 300 104 333 104 c 4
 366 104 389 80 389 47 c 4
 389 15 365 -8 333 -8 c 4
560 -8 m 4
 528 -8 504 15 504 47 c 4
 504 79 527 104 560 104 c 4
 593 104 616 80 616 47 c 4
 616 15 592 -8 560 -8 c 4
EndSplineSet
Validated: 1
EndChar

StartChar: fraction
Encoding: 8260 8260 105
Width: 178
VWidth: 811
Flags: HMW
LayerCount: 2
Fore
SplineSet
-129 0 m 5
 251 624 l 5
 308 624 l 5
 -73 0 l 5
 -129 0 l 5
EndSplineSet
Validated: 1
EndChar

StartChar: bullet
Encoding: 8226 8226 106
Width: 332
VWidth: 811
Flags: HMW
LayerCount: 2
Fore
SplineSet
69 303 m 3
 69 357 112 397 166 397 c 3
 220 397 264 357 264 303 c 3
 264 249 220 210 166 210 c 3
 112 210 69 249 69 303 c 3
EndSplineSet
Validated: 1
EndChar

StartChar: dagger
Encoding: 8224 8224 107
Width: 360
VWidth: 811
Flags: HMW
LayerCount: 2
Fore
SplineSet
180 571 m 0
 195 571 207 554 207 534 c 2
 207 375 l 25
 283 377 l 2
 308 377 315 361 315 350 c 0
 315 339 308 321 283 321 c 0
 261 321 237 331 207 337 c 1
 207 182 l 2
 207 50 198 -81 192 -147 c 0
 190 -164 190 -175 180 -175 c 0
 169 -175 170 -160 168 -147 c 0
 162 -81 152 50 152 182 c 2
 152 337 l 1
 122 331 95 321 76 321 c 0
 51 321 45 340 45 350 c 0
 45 364 54 377 76 377 c 2
 152 375 l 25
 152 534 l 2
 152 554 165 571 180 571 c 0
EndSplineSet
Validated: 1
EndChar

StartChar: daggerdbl
Encoding: 8225 8225 108
Width: 360
VWidth: 811
Flags: HMW
LayerCount: 2
Back
SplineSet
45.416015625 17.841796875 m 0
 45.416015625 30.0068359375 51.904296875 46.2265625 77.044921875 46.2265625 c 0
 102.997070312 46.2265625 141.924804688 30.0068359375 171.12109375 26.7626953125 c 1
 169.499023438 68.1240234375 151.657226562 131.381835938 151.657226562 167.06640625 c 0
 151.657226562 197.883789062 171.12109375 201.939453125 180.041992188 201.939453125 c 0
 190.584960938 201.939453125 208.426757812 195.451171875 208.426757812 170.309570312 c 0
 208.426757812 127.327148438 190.584960938 74.6123046875 188.15234375 26.7626953125 c 1
 220.591796875 30.0068359375 257.086914062 46.2265625 283.0390625 46.2265625 c 0
 303.314453125 46.2265625 314.66796875 34.0615234375 314.66796875 17.841796875 c 0
 314.66796875 7.298828125 308.991210938 -10.54296875 283.0390625 -10.54296875 c 0
 257.086914062 -10.54296875 217.34765625 5.6767578125 188.15234375 8.9208984375 c 1
 189.774414062 -32.4404296875 208.426757812 -95.6982421875 208.426757812 -131.381835938 c 0
 208.426757812 -162.200195312 188.962890625 -166.254882812 180.041992188 -166.254882812 c 0
 169.499023438 -166.254882812 151.657226562 -158.956054688 151.657226562 -133.815429688 c 0
 151.657226562 -90.83203125 168.688476562 -38.927734375 171.12109375 8.9208984375 c 1
 137.870117188 5.6767578125 102.185546875 -10.54296875 77.044921875 -10.54296875 c 0
 51.904296875 -10.54296875 45.416015625 8.1103515625 45.416015625 17.841796875 c 0
45.416015625 387.658203125 m 0
 45.416015625 397.389648438 50.2822265625 415.232421875 77.044921875 415.232421875 c 0
 105.4296875 415.232421875 137.870117188 399.01171875 171.12109375 395.767578125 c 1
 169.499023438 437.12890625 151.657226562 501.198242188 151.657226562 536.881835938 c 0
 151.657226562 567.700195312 171.12109375 570.944335938 180.041992188 570.944335938 c 0
 190.584960938 570.944335938 208.426757812 564.456054688 208.426757812 539.315429688 c 0
 208.426757812 496.33203125 190.584960938 443.6171875 188.15234375 395.767578125 c 1
 218.159179688 399.01171875 255.46484375 415.232421875 282.227539062 415.232421875 c 0
 308.1796875 415.232421875 314.66796875 399.01171875 314.66796875 387.658203125 c 0
 314.66796875 377.115234375 308.991210938 359.2734375 283.0390625 359.2734375 c 0
 254.654296875 359.2734375 221.403320312 375.493164062 188.15234375 378.737304688 c 1
 189.774414062 337.375976562 208.426757812 273.306640625 208.426757812 237.623046875 c 0
 208.426757812 206.8046875 188.962890625 203.560546875 180.041992188 203.560546875 c 0
 169.499023438 203.560546875 151.657226562 210.048828125 151.657226562 235.190429688 c 0
 151.657226562 278.172851562 168.688476562 330.887695312 171.12109375 378.737304688 c 1
 142.736328125 376.303710938 102.997070312 359.2734375 76.234375 359.2734375 c 0
 50.2822265625 359.2734375 45.416015625 377.92578125 45.416015625 387.658203125 c 0
EndSplineSet
Fore
SplineSet
207 248 m 25
 283 251 l 2
 308 251 315 234 315 223 c 0
 315 212 308 195 283 195 c 0
 261 195 237 205 207 211 c 1
 207 182 l 2
 207 50 198 -81 192 -147 c 0
 190 -164 190 -175 180 -175 c 0
 169 -175 170 -160 168 -147 c 0
 162 -81 152 50 152 182 c 2
 152 211 l 1
 122 205 95 195 76 195 c 0
 51 195 45 213 45 223 c 0
 45 237 54 251 76 251 c 2
 152 248 l 25
 152 337 l 1
 122 331 95 321 76 321 c 0
 51 321 45 340 45 350 c 0
 45 364 54 377 76 377 c 2
 152 375 l 25
 152 534 l 2
 152 554 165 571 180 571 c 0
 195 571 207 554 207 534 c 2
 207 375 l 25
 283 377 l 2
 308 377 315 361 315 350 c 0
 315 339 308 321 283 321 c 0
 261 321 237 331 207 337 c 1
 207 248 l 25
EndSplineSet
Validated: 1
EndChar

StartChar: endash
Encoding: 8211 8211 109
Width: 610
VWidth: 811
Flags: HMW
LayerCount: 2
Back
SplineSet
63.2578125 325.2109375 m 1
 63.2578125 360.89453125 l 1
 395.767578125 360.89453125 l 1
 395.767578125 325.2109375 l 1
 63.2578125 325.2109375 l 1
63.2578125 194.639648438 m 1
 63.2578125 230.32421875 l 1
 395.767578125 230.32421875 l 1
 395.767578125 194.639648438 l 1
 63.2578125 194.639648438 l 1
613.116210938 94.076171875 m 0
 613.116210938 123.272460938 627.713867188 141.114257812 656.098632812 141.114257812 c 0
 703.948242188 141.114257812 704.758789062 86.77734375 724.22265625 57.5810546875 c 0
 735.577148438 40.5498046875 752.608398438 28.384765625 781.803710938 28.384765625 c 0
 822.353515625 28.384765625 851.549804688 49.470703125 871.825195312 72.990234375 c 0
 893.721679688 98.9423828125 909.130859375 137.870117188 909.130859375 183.286132812 c 0
 909.130859375 256.276367188 873.447265625 304.935546875 821.54296875 326.833007812 c 0
 803.701171875 334.131835938 784.237304688 338.186523438 762.33984375 338.186523438 c 0
 729.088867188 338.186523438 699.892578125 327.643554688 674.751953125 306.557617188 c 1
 662.586914062 308.1796875 l 1
 704.758789062 613.926757812 l 1
 962.657226562 613.926757812 l 1
 940.759765625 540.936523438 l 1
 732.333007812 540.936523438 l 1
 712.057617188 400.633789062 l 1
 735.577148438 408.744140625 753.418945312 413.610351562 782.615234375 413.610351562 c 0
 878.313476562 413.610351562 942.381835938 364.950195312 970.766601562 296.826171875 c 0
 980.499023438 272.49609375 985.365234375 245.733398438 985.365234375 216.537109375 c 0
 985.365234375 146.791015625 956.98046875 93.2646484375 920.485351562 56.76953125 c 0
 883.990234375 21.0859375 829.653320312 -8.1103515625 760.717773438 -8.1103515625 c 0
 697.459960938 -8.1103515625 647.989257812 14.59765625 624.469726562 53.5263671875 c 0
 617.170898438 65.69140625 613.116210938 79.4775390625 613.116210938 94.076171875 c 0
-157.333984375 172.743164062 m 1
 -416.853515625 172.743164062 l 1
 -423.341796875 186.530273438 l 1
 -96.5087890625 632.580078125 l 1
 -75.4228515625 624.469726562 l 1
 -75.4228515625 234.37890625 l 1
 0 234.37890625 l 1
 0 172.743164062 l 1
 -75.4228515625 172.743164062 l 1
 -75.4228515625 34.0615234375 l 1
 -3.244140625 18.6533203125 l 1
 -3.244140625 0 l 1
 -254.654296875 0 l 1
 -254.654296875 18.6533203125 l 1
 -157.333984375 34.0615234375 l 1
 -157.333984375 172.743164062 l 1
-161.388671875 471.19140625 m 1
 -164.6328125 471.19140625 l 1
 -332.509765625 237.623046875 l 1
 -331.69921875 234.37890625 l 1
 -161.388671875 234.37890625 l 1
 -161.388671875 471.19140625 l 1
EndSplineSet
Fore
SplineSet
62 255 m 5
 62 304 l 5
 548 304 l 5
 548 255 l 5
 62 255 l 5
EndSplineSet
Validated: 1
EndChar

StartChar: emdash
Encoding: 8212 8212 110
Width: 871
VWidth: 811
Flags: HMW
LayerCount: 2
Fore
SplineSet
62 180 m 5
 62 229 l 5
 809 229 l 5
 809 180 l 5
 62 180 l 5
EndSplineSet
Validated: 1
EndChar

StartChar: asterisk
Encoding: 42 42 111
Width: 393
VWidth: 811
Flags: HMW
LayerCount: 2
Back
SplineSet
340.620117188 394.146484375 m 0
 340.620117188 374.745117188 326.7265625 362.516601562 307.369140625 362.516601562 c 0
 288.8359375 362.516601562 277.640625 373.541992188 267.629882812 384.008789062 c 0
 254.828125 397.393554688 242.211914062 412.858398438 227.080078125 424.963867188 c 2
 205.994140625 441.18359375 l 1
 210.051757812 413.610351562 l 2
 212.754882812 395.227539062 216.404296875 379.006835938 221 364.950195312 c 0
 225.595703125 350.892578125 227.893554688 338.458007812 227.893554688 327.64453125 c 0
 227.893554688 308.942382812 216.927734375 295.205078125 197.88671875 295.205078125 c 0
 177.684570312 295.205078125 167.068359375 310.2578125 167.068359375 330.888671875 c 0
 167.068359375 342.784179688 169.63671875 355.759765625 174.772460938 369.81640625 c 0
 179.909179688 383.874023438 183.55859375 398.7421875 185.721679688 414.420898438 c 2
 188.965820312 441.18359375 l 1
 166.2578125 424.153320312 l 1
 144.862304688 407.037109375 129.962890625 382.462890625 107.459960938 367.788085938 c 0
 101.2421875 363.733398438 94.078125 361.706054688 85.96875 361.706054688 c 0
 66.3486328125 361.706054688 52.7177734375 374.219726562 52.7177734375 393.333984375 c 0
 52.7177734375 413.749023438 69.3662109375 420.3125 86.3740234375 425.369140625 c 0
 109.09765625 432.125976562 134.3515625 436.33984375 155.71484375 446.049804688 c 2
 179.233398438 456.592773438 l 1
 154.092773438 467.135742188 l 2
 125.491210938 478.8359375 84.8076171875 479.912109375 62.04296875 496.737304688 c 0
 55.8251953125 501.333007812 52.716796875 508.497070312 52.716796875 518.228515625 c 0
 52.716796875 537.760742188 65.62890625 550.668945312 85.9677734375 550.668945312 c 0
 104.473632812 550.668945312 114.870117188 539.659179688 124.89453125 529.177734375 c 0
 138.252929688 515.211914062 150.1328125 499.364257812 167.06640625 487.411132812 c 2
 188.15234375 472.001953125 l 1
 184.909179688 499.576171875 l 2
 182.74609375 517.41796875 179.096679688 532.151367188 173.959960938 543.775390625 c 0
 168.82421875 555.399414062 166.255859375 567.700195312 166.255859375 580.67578125 c 0
 166.255859375 603.1484375 176.689453125 617.982421875 197.07421875 617.982421875 c 0
 216.721679688 617.982421875 227.081054688 602.653320312 227.081054688 580.67578125 c 0
 227.081054688 566.583007812 222.057617188 555.248046875 218.56640625 543.775390625 c 0
 214.328125 529.848632812 209.440429688 516.16796875 208.427734375 497.954101562 c 2
 205.995117188 472.001953125 l 1
 226.26953125 488.221679688 l 2
 244.220703125 502.393554688 256.283203125 517.154296875 270.469726562 532.015625 c 0
 280.038085938 542.0390625 289.817382812 551.478515625 307.370117188 551.478515625 c 0
 328.044921875 551.478515625 340.62109375 538.3984375 340.62109375 519.038085938 c 0
 340.62109375 498.04296875 324.673828125 491.405273438 307.370117188 486.598632812 c 0
 285.159179688 480.4296875 260.517578125 476.647460938 239.245117188 467.9453125 c 2
 214.103515625 457.40234375 l 1
 237.623046875 446.859375 l 2
 260.245117188 436.491210938 284.348632812 432.39453125 308.1796875 425.775390625 c 0
 325.10546875 421.07421875 340.620117188 414.361328125 340.620117188 394.146484375 c 0
EndSplineSet
Fore
SplineSet
179 457 m 1
 86 486 l 2
 69 491 53 497 53 518 c 0
 53 537 66 551 86 551 c 0
 104 551 113 541 123 531 c 2
 188 472 l 1
 166 581 l 3
 166 604 177 618 197 618 c 3
 216 618 227 603 227 581 c 0
 206 472 l 1
 271 532 l 2
 281 542 289 551 307 551 c 0
 327 551 341 538 341 519 c 0
 341 498 324 492 307 487 c 2
 214 457 l 1
 308 426 l 2
 324 420 341 414 341 394 c 0
 341 375 326 363 307 363 c 0
 288 363 281 372 268 384 c 2
 206 441 l 1
 228 328 l 0
 228 309 217 295 198 295 c 3
 178 295 167 311 167 331 c 0
 189 441 l 1
 126 383 l 2
 113 371 105 362 86 362 c 0
 67 362 53 374 53 393 c 0
 53 413 69 419 85 425 c 2
 179 457 l 1
EndSplineSet
Validated: 1
EndChar

StartChar: hyphen
Encoding: 45 45 112
Width: 380
VWidth: 811
Flags: HMW
LayerCount: 2
Fore
SplineSet
61 170 m 5
 61 238 l 5
 320 238 l 5
 320 170 l 5
 61 170 l 5
EndSplineSet
Validated: 1
EndChar

StartChar: slash
Encoding: 47 47 113
Width: 291
VWidth: 811
Flags: HMW
LayerCount: 2
Fore
SplineSet
36 -137 m 5
 199 664 l 5
 255 664 l 5
 92 -137 l 5
 36 -137 l 5
EndSplineSet
Validated: 1
EndChar

StartChar: parenright
Encoding: 41 41 114
Width: 246
VWidth: 811
Flags: HMW
LayerCount: 2
Fore
SplineSet
30 -152 m 5
 92 -52 134 81 134 247 c 4
 134 338 115 426 93 497 c 4
 74 558 48 623 20 665 c 5
 29 673 l 5
 76 634 119 569 148 505 c 4
 180 435 208 345 208 247 c 4
 208 145 185 61 152 -8 c 4
 123 -69 84 -120 43 -162 c 5
 30 -152 l 5
EndSplineSet
Validated: 1
EndChar

StartChar: parenleft
Encoding: 40 40 115
Width: 244
VWidth: 811
Flags: HMW
LayerCount: 2
Fore
SplineSet
111 247 m 0
 111 81 153 -52 215 -152 c 1
 202 -162 l 1
 110 -68 36 59 36 247 c 0
 36 345 65 436 97 506 c 0
 126 570 169 634 216 673 c 1
 225 665 l 1
 197 623 171 558 152 498 c 0
 130 427 111 338 111 247 c 0
EndSplineSet
Validated: 1
EndChar

StartChar: cent
Encoding: 162 162 116
Width: 446
VWidth: 811
Flags: W
HStem: -6 57<263 326.68> 382 55<168.485 229 263 308.562>
VStem: 36 83<123.11 314.686> 229 34<-105 -8 54 382 436.499 544> 313 85<303.172 378.337>
LayerCount: 2
Back
SplineSet
262.763671875 437.940429688 m 5
 283.849609375 437.399414062 303.584960938 434.5625 321.967773438 429.42578125 c 4
 340.350585938 424.290039062 356.165039062 417.396484375 369.411132812 408.745117188 c 4
 382.657226562 400.094726562 393.064453125 390.092773438 400.633789062 378.73828125 c 4
 408.203125 367.384765625 411.98828125 355.219726562 411.98828125 342.243164062 c 4
 411.98828125 328.186523438 408.744140625 316.967773438 402.255859375 308.587890625 c 4
 395.767578125 300.208007812 386.577148438 296.017578125 374.681640625 296.017578125 c 4
 360.625 296.017578125 349.811523438 300.208007812 342.243164062 308.587890625 c 4
 334.673828125 316.967773438 329.538085938 329.80859375 326.834960938 347.109375 c 4
 323.590820312 367.654296875 316.697265625 382.927734375 306.154296875 392.930664062 c 4
 295.611328125 402.932617188 281.1484375 409.014648438 262.765625 411.177734375 c 5
 262.765625 51.09375 l 5
 288.176757812 51.09375 311.560546875 55.9599609375 332.916015625 65.69140625 c 4
 354.272460938 75.423828125 372.25 90.2919921875 386.84765625 110.296875 c 6
 395.768554688 122.461914062 l 5
 411.177734375 114.3515625 l 5
 407.123046875 103.80859375 l 6
 394.6875 71.369140625 376.03515625 45.6865234375 351.1640625 26.763671875 c 4
 326.29296875 7.8408203125 296.827148438 -3.2431640625 262.764648438 -6.4873046875 c 5
 262.764648438 -105.4296875 l 5
 228.703125 -105.4296875 l 5
 228.703125 -7.2978515625 l 5
 201.12890625 -5.67578125 175.852539062 0.6767578125 152.874023438 11.7607421875 c 4
 129.896484375 22.84375 110.296875 37.84765625 94.0771484375 56.7705078125 c 4
 77.8564453125 75.6943359375 65.150390625 98.1318359375 55.9599609375 124.083984375 c 4
 46.7685546875 150.036132812 42.1728515625 178.420898438 42.1728515625 209.239257812 c 4
 42.1728515625 240.056640625 46.6328125 268.577148438 55.5546875 294.798828125 c 4
 64.4755859375 321.021484375 77.181640625 343.999023438 93.6708984375 363.733398438 c 4
 110.161132812 383.467773438 129.895507812 399.6875 152.873046875 412.393554688 c 4
 175.8515625 425.099609375 201.127929688 433.07421875 228.702148438 436.318359375 c 5
 228.702148438 543.370117188 l 5
 262.763671875 543.370117188 l 5
 262.763671875 437.940429688 l 5
124.89453125 225.459960938 m 4
 124.89453125 177.880859375 133.815429688 139.493164062 151.657226562 110.296875 c 4
 169.499023438 81.1005859375 195.180664062 62.7177734375 228.702148438 55.1484375 c 5
 228.702148438 410.3671875 l 5
 214.64453125 407.6640625 201.3984375 401.311523438 188.963867188 391.309570312 c 4
 176.528320312 381.306640625 165.580078125 368.331054688 156.118164062 352.380859375 c 4
 146.65625 336.431640625 139.086914062 317.778320312 133.41015625 296.421875 c 4
 127.733398438 275.06640625 124.89453125 251.411132812 124.89453125 225.459960938 c 4
EndSplineSet
Fore
SplineSet
398 342 m 0
 398 316 386 296 361 296 c 0
 333 296 317 313 313 347 c 0
 310 379 291 382 263 383 c 1
 263 51 l 1
 317 52 357 76 381 110 c 2
 390 122 l 1
 406 114 l 1
 401 104 l 2
 379 46 333 4 263 -6 c 1
 263 -105 l 1
 229 -105 l 1
 229 -8 l 1
 113 -5 36 86 36 209 c 0
 36 335 114 426 229 437 c 1
 229 544 l 1
 263 544 l 1
 263 438 l 1
 328 434 398 399 398 342 c 0
229 382 m 1
 145 374 119 319 119 225 c 0
 119 135 154 68 229 54 c 1
 229 382 l 1
EndSplineSet
Validated: 1
EndChar

StartChar: sterling
Encoding: 163 163 117
Width: 549
VWidth: 811
Flags: W
HStem: -8 79<275.116 435.332> -7 35<70.381 133.201> 84 36<72.2388 151.705> 261 36<105 195 298 444> 570 59<347.518 413.675>
VStem: 26 43<29.0901 80.7651> 463 28<108.212 132>
LayerCount: 2
Fore
SplineSet
26 49 m 0x7e
 26 94 67 120 114 120 c 0
 129 120 146 118 165 113 c 1
 177 161 186 205 195 261 c 1
 105 261 l 1
 105 297 l 1
 202 297 l 1
 221 392 l 2
 237 473 260 533 290 571 c 0
 320 609 358 629 404 629 c 0
 451 629 503 609 503 567 c 0
 503 540 482 520 456 520 c 0
 431 520 420 538 411 555 c 0
 404 570 397 570 376 570 c 0
 362 570 351 561 345 544 c 0
 329 486 320 427 307 349 c 2
 298 297 l 1
 444 297 l 1
 444 261 l 1
 291 261 l 1
 276 197 261 145 237 94 c 1
 271 79 308 71 349 71 c 0
 413 71 451 91 463 132 c 1
 491 132 l 1
 491 44 448 -8 361 -8 c 0xbe
 316 -8 286 6 255 25 c 0
 243 32 228 42 213 54 c 1
 185 22 148 -7 97 -7 c 0
 57 -7 26 11 26 49 c 0x7e
69 53 m 0
 69 38 80 28 96 28 c 0x7e
 124 28 143 51 152 75 c 1
 140 81 130 84 114 84 c 0
 89 84 69 77 69 53 c 0
EndSplineSet
Validated: 1
EndChar

StartChar: currency
Encoding: 164 164 118
Width: 514
VWidth: 811
Flags: W
HStem: 123 52<189.758 324.594> 420 52<189.406 324.449>
VStem: 83 56<226.405 368.754> 375 56<226.421 369.589>
LayerCount: 2
Back
SplineSet
101.375 102.997070312 m 5
 62.447265625 141.923828125 l 5
 116.784179688 195.450195312 l 5
 94.076171875 223.024414062 82.7216796875 257.356445312 82.7216796875 298.447265625 c 4
 82.7216796875 337.375 94.076171875 371.4375 116.784179688 400.6328125 c 5
 62.447265625 453.348632812 l 5
 101.375 492.276367188 l 5
 154.901367188 437.939453125 l 5
 183.555664062 460.647460938 217.618164062 472.000976562 257.086914062 472.000976562 c 4
 294.392578125 472.000976562 328.724609375 460.916992188 360.083984375 438.75 c 5
 412.798828125 492.276367188 l 5
 451.7265625 453.348632812 l 5
 397.389648438 399.822265625 l 5
 420.09765625 371.166992188 431.452148438 337.375 431.452148438 298.447265625 c 4
 431.452148438 260.060546875 420.368164062 225.728515625 398.201171875 195.451171875 c 5
 451.7265625 141.924804688 l 5
 412.798828125 102.997070312 l 5
 359.2734375 157.333984375 l 5
 330.618164062 134.625976562 296.555664062 123.272460938 257.086914062 123.272460938 c 4
 218.159179688 123.272460938 184.096679688 134.625976562 154.901367188 157.333984375 c 5
 101.375 102.997070312 l 5
257.086914062 175.174804688 m 4
 273.306640625 175.174804688 288.446289062 178.418945312 302.502929688 184.907226562 c 4
 316.560546875 191.395507812 328.995117188 200.180664062 339.80859375 211.264648438 c 4
 350.62109375 222.348632812 359.13671875 235.32421875 365.354492188 250.192382812 c 4
 371.572265625 265.060546875 374.681640625 280.875 374.681640625 297.635742188 c 4
 374.681640625 314.397460938 371.572265625 330.211914062 365.354492188 345.080078125 c 4
 359.13671875 359.948242188 350.62109375 372.923828125 339.80859375 384.0078125 c 4
 328.995117188 395.091796875 316.560546875 403.876953125 302.502929688 410.365234375 c 4
 288.446289062 416.853515625 273.306640625 420.09765625 257.086914062 420.09765625 c 4
 240.8671875 420.09765625 225.728515625 416.853515625 211.670898438 410.365234375 c 4
 197.614257812 403.876953125 185.178710938 395.091796875 174.366210938 384.0078125 c 4
 163.552734375 372.923828125 155.037109375 360.083007812 148.819335938 345.485351562 c 4
 142.6015625 330.887695312 139.493164062 315.208007812 139.493164062 298.447265625 c 4
 139.493164062 281.686523438 142.6015625 265.872070312 148.819335938 251.00390625 c 4
 155.037109375 236.135742188 163.552734375 223.024414062 174.366210938 211.669921875 c 4
 185.178710938 200.31640625 197.614257812 191.395507812 211.670898438 184.907226562 c 4
 225.728515625 178.418945312 240.8671875 175.174804688 257.086914062 175.174804688 c 4
EndSplineSet
Fore
SplineSet
101 103 m 1
 62 142 l 1
 117 195 l 1
 94 223 83 257 83 298 c 3
 83 337 94 372 117 401 c 1
 62 453 l 1
 101 492 l 1
 155 438 l 1
 183 461 217 472 257 472 c 3
 294 472 328 461 360 439 c 1
 413 492 l 1
 452 453 l 1
 397 400 l 1
 420 372 431 337 431 298 c 3
 431 260 420 225 398 195 c 1
 452 142 l 1
 413 103 l 1
 359 157 l 1
 331 134 297 123 257 123 c 3
 218 123 184 134 155 157 c 1
 101 103 l 1
257 175 m 3
 325 175 375 230 375 298 c 3
 375 366 325 420 257 420 c 3
 189 420 139 365 139 298 c 3
 139 230 189 175 257 175 c 3
EndSplineSet
Validated: 1
EndChar

StartChar: yen
Encoding: 165 165 119
Width: 611
VWidth: 811
Flags: W
HStem: 0 19<148 182.067 344.4 378> 169 36<85 221 306 435> 268 35<85 205 320 435> 606 18<28 66.9024 217.559 253 321 365.388 468.474 501>
VStem: 221 85<34 169 205 268>
LayerCount: 2
Back
SplineSet
85.1552734375 303.314453125 m 5
 205.182617188 303.315429688 l 5
 96.5078125 556.34765625 l 6
 92.18359375 566.079101562 88.1279296875 573.919921875 84.3427734375 579.866210938 c 4
 80.55859375 585.813476562 76.09765625 590.543945312 70.9619140625 594.05859375 c 4
 65.8251953125 597.572265625 59.87890625 600.140625 53.1201171875 601.762695312 c 4
 46.3623046875 603.384765625 37.8466796875 604.736328125 27.57421875 605.817382812 c 5
 27.57421875 624.470703125 l 5
 253.032226562 624.470703125 l 5
 253.032226562 605.817382812 l 5
 232.487304688 602.033203125 217.75390625 597.708007812 208.83203125 592.841796875 c 4
 199.911132812 587.975585938 195.451171875 580.947265625 195.451171875 571.755859375 c 4
 195.451171875 564.186523438 197.883789062 554.724609375 202.75 543.37109375 c 6
 291.149414062 328.456054688 l 5
 294.392578125 328.456054688 l 5
 382.791992188 544.181640625 l 6
 386.036132812 552.833007812 387.658203125 560.672851562 387.658203125 567.701171875 c 4
 387.658203125 578.514648438 382.65625 586.89453125 372.654296875 592.841796875 c 4
 362.65234375 598.7890625 345.486328125 603.114257812 321.15625 605.817382812 c 5
 321.15625 624.469726562 l 5
 501.198242188 624.469726562 l 5
 501.198242188 605.817382812 l 5
 488.221679688 603.114257812 477.409179688 600.275390625 468.7578125 597.301757812 c 4
 460.107421875 594.327148438 452.538085938 589.731445312 446.049804688 583.513671875 c 4
 439.561523438 577.295898438 433.34375 568.780273438 427.397460938 557.966796875 c 4
 421.450195312 547.154296875 414.961914062 533.096679688 407.932617188 515.795898438 c 6
 320.344726562 303.314453125 l 5
 434.696289062 303.314453125 l 5
 434.696289062 267.629882812 l 5
 305.747070312 267.629882812 l 5
 305.747070312 205.182617188 l 5
 434.696289062 205.182617188 l 5
 434.696289062 169.499023438 l 5
 305.747070312 169.499023438 l 5
 305.747070312 34.0615234375 l 5
 377.92578125 18.6533203125 l 5
 377.92578125 0 l 5
 147.6015625 0 l 5
 147.6015625 18.6533203125 l 5
 220.591796875 34.0615234375 l 5
 220.591796875 169.499023438 l 5
 85.1552734375 169.499023438 l 5
 85.1552734375 205.182617188 l 5
 220.591796875 205.182617188 l 5
 220.591796875 267.629882812 l 5
 85.1552734375 267.629882812 l 5
 85.1552734375 303.314453125 l 5
EndSplineSet
Fore
SplineSet
376 586 m 3
 376 597 355 602 321 606 c 1
 321 624 l 1
 501 624 l 1
 501 606 l 1
 477 601 461 597 446 583 c 0
 428 567 419 544 408 516 c 2
 320 303 l 1
 435 303 l 1
 435 268 l 1
 306 268 l 1
 306 205 l 1
 435 205 l 1
 435 169 l 1
 306 169 l 1
 306 34 l 1
 378 19 l 1
 378 0 l 1
 148 0 l 1
 148 19 l 1
 221 34 l 1
 221 169 l 1
 85 169 l 1
 85 205 l 1
 221 205 l 1
 221 268 l 1
 85 268 l 1
 85 303 l 1
 205 303 l 1
 97 556 l 2
 87 579 78 596 54 602 c 0
 47 604 39 605 28 606 c 1
 28 624 l 1
 253 624 l 1
 253 606 l 1
 233 602 217 598 209 593 c 0
 199 588 195 581 195 572 c 0
 195 565 198 554 203 543 c 2
 281 354 l 1
 284 354 l 1
 372 569 l 2
 375 578 376 579 376 586 c 3
EndSplineSet
Validated: 1
EndChar

StartChar: section
Encoding: 167 167 120
Width: 811
VWidth: 0
Flags: W
HStem: -128 51<141.557 295.826> 622 51<141.895 292.565>
VStem: 52 75<240.504 338.554> 56 64<-56.0753 3.40854 505.702 600.951> 320 63<-53.2482 49.7807 207.711 301.292>
LayerCount: 2
Back
SplineSet
231.946289062 673.129882812 m 4
 253.573242188 673.129882812 273.579101562 671.102539062 291.961914062 667.047851562 c 4
 310.345703125 662.9921875 326.294921875 657.315429688 339.8125 650.016601562 c 4
 353.329101562 642.717773438 363.736328125 633.931640625 371.036132812 623.659179688 c 4
 378.334960938 613.385742188 381.984375 602.301757812 381.984375 590.407226562 c 4
 381.984375 577.971679688 378.334960938 567.69921875 371.036132812 559.588867188 c 4
 363.736328125 551.479492188 353.869140625 547.423828125 341.434570312 547.423828125 c 4
 328.999023438 547.423828125 319.942382812 551.884765625 314.265625 560.805664062 c 4
 308.588867188 569.7265625 302.505859375 582.296875 296.018554688 598.517578125 c 4
 292.233398438 607.708007812 288.313476562 615.413085938 284.258789062 621.630859375 c 4
 280.204101562 627.848632812 275.47265625 632.849609375 270.06640625 636.634765625 c 4
 264.659179688 640.419921875 258.170898438 643.123046875 250.602539062 644.745117188 c 4
 243.033203125 646.3671875 234.112304688 647.177734375 223.838867188 647.177734375 c 4
 190.858398438 647.177734375 165.311523438 639.87890625 147.19921875 625.28125 c 4
 129.087890625 610.682617188 120.03125 589.8671875 120.03125 562.833984375 c 4
 120.03125 539.584960938 126.654296875 520.662109375 139.900390625 506.064453125 c 4
 153.146484375 491.465820312 169.63671875 478.895507812 189.37109375 468.352539062 c 4
 209.104492188 457.809570312 230.4609375 447.942382812 253.439453125 438.750976562 c 4
 276.416992188 429.559570312 297.7734375 418.611328125 317.506835938 405.905273438 c 4
 337.241210938 393.19921875 353.731445312 377.520507812 366.977539062 358.8671875 c 4
 380.223632812 340.21484375 386.846679688 316.290039062 386.846679688 287.09375 c 4
 386.846679688 256.817382812 379.68359375 230.053710938 365.35546875 206.8046875 c 4
 351.02734375 183.555664062 331.158203125 165.444335938 305.747070312 152.467773438 c 5
 327.374023438 138.951171875 345.62109375 122.190429688 360.489257812 102.185546875 c 4
 375.357421875 82.1806640625 382.791992188 55.6875 382.791992188 22.7060546875 c 4
 382.791992188 -24.33203125 366.977539062 -61.232421875 335.348632812 -87.9951171875 c 4
 303.719726562 -114.7578125 260.060546875 -128.139648438 204.372070312 -128.139648438 c 4
 182.205078125 -128.139648438 161.794921875 -125.9765625 143.141601562 -121.651367188 c 4
 124.48828125 -117.326171875 108.404296875 -111.108398438 94.88671875 -102.999023438 c 4
 81.3701171875 -94.888671875 70.8271484375 -85.2919921875 63.2578125 -74.2080078125 c 4
 55.6884765625 -63.1240234375 51.904296875 -51.0947265625 51.904296875 -38.1181640625 c 4
 51.904296875 -25.142578125 55.5537109375 -14.599609375 62.8525390625 -6.4892578125 c 4
 70.1513671875 1.6201171875 80.0185546875 5.67578125 92.4541015625 5.67578125 c 4
 104.348632812 5.67578125 113.134765625 1.4853515625 118.811523438 -6.8955078125 c 4
 124.48828125 -15.275390625 130.571289062 -28.115234375 137.05859375 -45.4169921875 c 4
 140.302734375 -53.5263671875 143.817382812 -61.095703125 147.6015625 -68.125 c 4
 151.38671875 -75.1533203125 156.1171875 -81.236328125 161.794921875 -86.3720703125 c 4
 167.471679688 -91.5087890625 174.770507812 -95.427734375 183.69140625 -98.130859375 c 4
 192.612304688 -100.833984375 203.831054688 -102.185546875 217.34765625 -102.185546875 c 4
 249.788085938 -102.185546875 275.064453125 -94.2119140625 293.176757812 -78.26171875 c 4
 311.288085938 -62.3115234375 320.344726562 -40.279296875 320.344726562 -12.1640625 c 4
 320.344726562 12.70703125 313.721679688 32.8466796875 300.475585938 48.2548828125 c 4
 287.229492188 63.6640625 270.603515625 76.91015625 250.598632812 87.994140625 c 4
 230.59375 99.078125 209.102539062 109.215820312 186.124023438 118.407226562 c 4
 163.146484375 127.59765625 141.655273438 138.276367188 121.650390625 150.44140625 c 4
 101.645507812 162.606445312 85.01953125 177.474609375 71.7734375 195.045898438 c 4
 58.52734375 212.618164062 51.904296875 235.461914062 51.904296875 263.576171875 c 4
 51.904296875 294.935546875 60.8251953125 321.96875 78.6669921875 344.676757812 c 4
 96.5087890625 367.384765625 121.379882812 384.145507812 153.279296875 394.958984375 c 5
 140.302734375 401.987304688 127.868164062 409.692382812 115.97265625 418.072265625 c 4
 104.078125 426.452148438 93.6708984375 436.048828125 84.7490234375 446.861328125 c 4
 75.828125 457.674804688 68.7998046875 470.110351562 63.6630859375 484.166992188 c 4
 58.52734375 498.223632812 55.958984375 514.173828125 55.958984375 532.015625 c 4
 55.958984375 575.809570312 71.50390625 610.27734375 102.591796875 635.418945312 c 4
 133.6796875 660.559570312 176.797851562 673.129882812 231.946289062 673.129882812 c 4
324.401367188 253.842773438 m 4
 324.401367188 270.063476562 320.616210938 284.12109375 313.047851562 296.015625 c 4
 305.478515625 307.911132812 295.206054688 318.723632812 282.229492188 328.456054688 c 4
 269.25390625 338.1875 254.520507812 346.973632812 238.030273438 354.813476562 c 4
 221.540039062 362.653320312 204.374023438 370.627929688 186.53125 378.737304688 c 5
 165.4453125 372.791015625 148.415039062 362.112304688 135.438476562 346.703125 c 4
 122.462890625 331.293945312 115.974609375 313.31640625 115.974609375 292.771484375 c 4
 115.974609375 274.9296875 120.705078125 260.061523438 130.166992188 248.166992188 c 4
 139.62890625 236.271484375 151.9296875 225.864257812 167.068359375 216.943359375 c 4
 182.20703125 208.022460938 199.102539062 200.047851562 217.755859375 193.018554688 c 4
 236.409179688 185.990234375 254.926757812 178.150390625 273.309570312 169.499023438 c 5
 288.98828125 178.150390625 301.423828125 189.774414062 310.614257812 204.372070312 c 4
 319.805664062 218.969726562 324.401367188 235.459960938 324.401367188 253.842773438 c 4
EndSplineSet
Fore
SplineSet
56 532 m 3xd8
 56 628 131 673 232 673 c 3
 291 673 347 658 371 624 c 0
 378 613 382 602 382 590 c 0
 382 566 366 547 341 547 c 3
 286 547 334 622 224 622 c 3
 163 622 120 599 120 563 c 3xd8
 120 539 127 521 140 506 c 0
 183 458 262 442 318 406 c 0
 355 382 387 348 387 287 c 3
 387 221 352 176 306 152 c 1
 328 138 345 122 360 102 c 0
 375 82 383 56 383 23 c 3
 383 -77 308 -128 204 -128 c 3
 142 -128 88 -111 63 -75 c 0
 56 -64 52 -51 52 -38 c 0
 52 -13 67 6 92 6 c 0
 104 6 112 1 118 -7 c 0
 146 -48 123 -77 217 -77 c 3
 278 -77 320 -51 320 -12 c 3
 320 13 313 34 300 49 c 0
 257 98 180 116 122 151 c 0
 85 174 52 205 52 264 c 3xe8
 52 335 97 376 153 395 c 1
 104 422 56 456 56 532 c 3xd8
268 180 m 1
 293 194 314 220 314 256 c 3
 314 288 296 308 276 323 c 0
 252 342 220 354 190 368 c 1
 157 358 127 332 127 291 c 3xe8
 127 255 149 237 173 223 c 0
 201 206 236 195 268 180 c 1
EndSplineSet
Validated: 1
EndChar

StartChar: brokenbar
Encoding: 166 166 121
Width: 223
VWidth: 811
Flags: W
VStem: 84 55<-139 175 350 664>
LayerCount: 2
Fore
SplineSet
84 350 m 1
 84 664 l 1
 139 664 l 1
 139 350 l 1
 84 350 l 1
84 -139 m 1
 84 175 l 1
 139 175 l 1
 139 -139 l 1
 84 -139 l 1
EndSplineSet
Validated: 1
EndChar

StartChar: uni00AD
Encoding: 173 173 122
Width: 377
VWidth: 811
Flags: W
HStem: 170 68<59 318>
VStem: 59 259<170 238>
LayerCount: 2
Fore
SplineSet
59 170 m 5
 59 238 l 5
 318 238 l 5
 318 170 l 5
 59 170 l 5
EndSplineSet
Validated: 1
EndChar

StartChar: logicalnot
Encoding: 172 172 123
Width: 463
VWidth: 811
Flags: W
HStem: 214 36<68 359>
VStem: 359 42<119 214>
LayerCount: 2
Fore
SplineSet
359 214 m 5
 68 214 l 5
 68 250 l 5
 401 250 l 5
 401 119 l 5
 359 119 l 5
 359 214 l 5
EndSplineSet
Validated: 1
EndChar

StartChar: paragraph
Encoding: 182 182 124
Width: 472
VWidth: 811
Flags: W
HStem: 579 45<276 324> 604 20<399.5 425>
VStem: 25 251<360.506 538.104> 226 50<-88 276> 324 50<-88 579>
LayerCount: 2
Back
SplineSet
238.43359375 -87.587890625 m 5
 238.43359375 275.737304688 l 5
 193.017578125 275.737304688 l 6
 167.06640625 275.737304688 143.817382812 280.333984375 123.272460938 289.524414062 c 4
 102.7265625 298.715820312 85.1552734375 311.286132812 70.556640625 327.236328125 c 4
 55.958984375 343.186523438 44.740234375 361.569335938 36.900390625 382.384765625 c 4
 29.060546875 403.201171875 25.140625 425.502929688 25.140625 449.291992188 c 4
 25.140625 475.78515625 29.4658203125 499.845703125 38.1171875 521.47265625 c 4
 46.767578125 543.099609375 59.203125 561.482421875 75.4228515625 576.62109375 c 4
 91.642578125 591.759765625 111.376953125 603.51953125 134.625976562 611.899414062 c 4
 157.875 620.279296875 184.096679688 624.469726562 213.29296875 624.469726562 c 6
 424.963867188 624.469726562 l 5
 424.963867188 604.1953125 l 5
 361.706054688 590.408203125 l 5
 361.706054688 -87.587890625 l 5
 324.400390625 -87.587890625 l 5
 324.400390625 592.030273438 l 5
 275.740234375 592.030273438 l 5
 275.740234375 -87.587890625 l 5
 238.43359375 -87.587890625 l 5
EndSplineSet
Fore
SplineSet
226 -88 m 1x98
 226 276 l 1x98
 193 276 l 2
 111 276 59 323 37 382 c 0
 29 403 25 425 25 449 c 0
 25 536 70 588 135 611 c 0
 159 620 184 624 213 624 c 2
 425 624 l 1
 425 604 l 1x68
 374 590 l 1
 374 -88 l 1
 324 -88 l 1
 324 579 l 1
 276 579 l 1
 276 -88 l 1
 226 -88 l 1x98
EndSplineSet
Validated: 1
EndChar

StartChar: cedilla
Encoding: 184 184 125
Width: 186
VWidth: 811
Flags: W
HStem: -208 30<17.087 107.371> -101 54<85 115.461>
VStem: 118 60<-170.392 -104.08>
LayerCount: 2
Fore
SplineSet
178 -127 m 0
 178 -181 129 -208 71 -208 c 0
 46 -208 22 -200 8 -189 c 1
 19 -165 l 1
 34 -174 44 -178 65 -178 c 0
 94 -178 118 -164 118 -136 c 0
 118 -112 105 -101 79 -101 c 0
 65 -101 51 -104 37 -108 c 1
 30 -101 l 1
 79 14 l 1
 109 14 l 1
 85 -47 l 1
 138 -47 178 -77 178 -127 c 0
EndSplineSet
Validated: 1
EndChar

StartChar: guillemotleft
Encoding: 171 171 126
Width: 353
VWidth: 811
Flags: W
HStem: 43 311
VStem: 47 247
LayerCount: 2
Fore
SplineSet
160 43 m 1
 47 191 l 1
 47 207 l 1
 158 354 l 1
 168 350 l 1
 114 200 l 1
 169 49 l 1
 160 43 l 1
286 43 m 1
 174 191 l 1
 174 207 l 1
 285 354 l 1
 294 350 l 1
 241 200 l 1
 296 49 l 1
 286 43 l 1
EndSplineSet
Validated: 1
EndChar

StartChar: exclamdown
Encoding: 161 161 127
Width: 243
VWidth: 811
Flags: W
HStem: -8 21G<106 138> 418 20G<101.5 141.5> 527 106<78.366 164.983>
VStem: 72 98<0.804424 277.008 534.311 625.537>
LayerCount: 2
Fore
SplineSet
122 -8 m 3
 90 -8 72 17 72 48 c 3
 72 59 74 77 77 105 c 0
 89 208 98 324 105 438 c 1
 138 438 l 1
 145 324 153 206 165 103 c 0
 168 75 170 56 170 45 c 3
 170 14 154 -8 122 -8 c 3
121 633 m 3
 153 633 174 611 174 581 c 3
 174 549 153 527 121 527 c 3
 89 527 69 550 69 581 c 3
 69 610 91 633 121 633 c 3
EndSplineSet
Validated: 1
EndChar

StartChar: mu
Encoding: 181 181 128
Width: 484
VWidth: 811
Flags: W
HStem: -8 44<177.952 284.399> 410 20G<85 162 333 410>
VStem: 85 77<51.5594 430> 85 50<-141 4> 333 77<83.8213 430>
LayerCount: 2
Back
SplineSet
343.052734375 -8.1103515625 m 5
 337.375976562 -8.1103515625 l 5
 337.375976562 48.66015625 l 5
 334.131835938 49.470703125 l 5
 301.692382812 8.9208984375 254.654296875 -8.1103515625 188.962890625 -8.1103515625 c 4
 128.94921875 -8.1103515625 92.4541015625 23.5185546875 86.77734375 78.6669921875 c 4
 85.1552734375 97.3203125 85.1552734375 115.162109375 85.1552734375 137.05859375 c 6
 85.1552734375 401.4453125 l 5
 24.330078125 413.610351562 l 5
 24.330078125 429.830078125 l 5
 162.200195312 429.830078125 l 5
 162.200195312 156.5234375 l 6
 162.200195312 87.587890625 163.010742188 35.68359375 228.702148438 35.68359375 c 4
 274.928710938 35.68359375 308.991210938 80.2890625 332.509765625 109.485351562 c 5
 332.509765625 304.125 l 4
 332.509765625 401.4453125 l 5
 271.684570312 413.610351562 l 5
 271.684570312 429.830078125 l 5
 409.5546875 429.830078125 l 5
 409.5546875 60.8251953125 l 5
 471.19140625 42.171875 l 5
 471.19140625 30.818359375 l 5
 395.767578125 16.2197265625 373.87109375 7.298828125 343.052734375 -8.1103515625 c 5
EndSplineSet
Fore
SplineSet
88 -141 m 25xd8
 85 137 l 2
 85 430 l 1
 162 430 l 1
 162 157 l 2xe8
 162 88 163 36 229 36 c 0
 275 36 309 80 333 109 c 1
 333 304 l 1
 333 430 l 1
 410 430 l 1
 410 61 l 1
 471 42 l 1
 471 31 l 1
 396 16 374 7 343 -8 c 1
 337 -8 l 1
 337 49 l 1
 334 49 l 1
 302 8 250 -8 200 -8 c 3
 169 -8 154 -7 135 4 c 1
 135 -141 l 25
 88 -141 l 25xd8
EndSplineSet
Validated: 1
EndChar

StartChar: guillemotright
Encoding: 187 187 129
Width: 353
VWidth: 811
Flags: W
HStem: 43 311
VStem: 58 249
LayerCount: 2
Fore
SplineSet
184 49 m 5
 239 200 l 5
 186 350 l 5
 195 354 l 5
 307 207 l 5
 307 191 l 5
 194 43 l 5
 184 49 l 5
58 49 m 5
 113 200 l 5
 59 350 l 5
 69 354 l 5
 180 207 l 5
 180 191 l 5
 67 43 l 5
 58 49 l 5
EndSplineSet
Validated: 1
EndChar

StartChar: questiondown
Encoding: 191 191 130
Width: 351
VWidth: 811
Flags: W
HStem: -8 51<128.505 242.631> 481 105<148.634 235.634>
VStem: 36 72<63.2577 194.247> 139 106<490.296 576.34> 175 34<286.698 392> 251 64<55.0764 138.485>
LayerCount: 2
Fore
SplineSet
193 586 m 7xf4
 225 586 245 565 245 534 c 7
 245 503 223 481 192 481 c 7
 161 481 139 503 139 534 c 7
 139 565 162 586 193 586 c 7xf4
251 85 m 4
 251 109 242 103 242 126 c 4
 242 145 266 154 281 154 c 4
 294 154 315 147 315 119 c 4
 315 49 248 -8 173 -8 c 4
 90 -8 36 55 36 129 c 7
 36 193 87 228 125 256 c 4
 164 284 175 301 175 356 c 6
 175 392 l 29
 209 392 l 29
 209 354 l 6xec
 209 319 205 272 152 224 c 4
 120 194 108 170 108 132 c 7
 108 79 131 43 177 43 c 4
 223 43 251 61 251 85 c 4
EndSplineSet
Validated: 1
EndChar

StartChar: registered
Encoding: 174 174 131
Width: 559
VWidth: 811
Flags: W
HStem: 184 25<211.159 348.734> 288 7<185 212 247 283 360 397> 395 22<247 281> 518 20<247 316.949> 530 8<185 212> 608 25<210.973 348.919>
VStem: 54 30<330.11 487.951> 212 35<302 395 417 518> 332 37<427.854 510.302> 475 30<330.11 487.751>
LayerCount: 2
Back
SplineSet
184.908203125 537.693359375 m 1
 280.606445312 537.693359375 l 2
 308.1796875 537.693359375 330.482421875 531.747070312 347.513671875 519.8515625 c 0
 364.544921875 507.95703125 373.059570312 490.65625 373.059570312 467.948242188 c 0
 373.059570312 451.186523438 368.05859375 437.669921875 358.056640625 427.397460938 c 0
 348.0546875 417.124023438 334.131835938 409.825195312 316.290039062 405.5 c 1
 371.438476562 304.125 l 1
 395.767578125 297.63671875 l 1
 395.767578125 287.905273438 l 1
 326.022460938 287.905273438 l 1
 268.44140625 401.4453125 l 1
 249.788085938 401.4453125 l 1
 249.788085938 304.125 l 1
 278.984375 297.63671875 l 1
 278.984375 287.905273438 l 1
 184.908203125 287.905273438 l 1
 184.908203125 297.63671875 l 1
 205.994140625 304.125 l 1
 205.994140625 520.662109375 l 1
 184.908203125 527.150390625 l 1
 184.908203125 537.693359375 l 1
249.788085938 418.4765625 m 1
 270.874023438 418.4765625 288.581054688 422.26171875 302.908203125 429.831054688 c 0
 317.236328125 437.399414062 324.400390625 450.645507812 324.400390625 469.569335938 c 0
 324.400390625 486.330078125 318.72265625 499.036132812 307.369140625 507.686523438 c 0
 296.014648438 516.337890625 276.821289062 520.663085938 249.788085938 520.663085938 c 1
 249.788085938 418.4765625 l 1
EndSplineSet
Fore
SplineSet
369 466 m 3xf7c0
 369 430 350 407 319 400 c 1
 360 302 l 1
 397 295 l 1
 397 288 l 1
 327 288 l 1
 281 395 l 1
 247 395 l 1
 247 302 l 1
 283 295 l 1
 283 288 l 1
 185 288 l 1
 185 295 l 1
 212 302 l 1
 212 524 l 1
 185 530 l 1
 185 538 l 1xefc0
 282 538 l 2
 321 538 350 523 363 497 c 0
 367 488 369 477 369 466 c 3xf7c0
268 417 m 2
 309 417 332 431 332 470 c 3
 332 508 312 518 273 518 c 2
 247 518 l 1xf7c0
 247 417 l 1
 268 417 l 2
54 409 m 3
 54 538 151 633 280 633 c 3
 409 633 505 537 505 409 c 3
 505 281 408 184 280 184 c 3
 152 184 54 281 54 409 c 3
84 409 m 3
 84 296 167 209 280 209 c 3
 393 209 475 296 475 409 c 3
 475 522 393 608 280 608 c 3
 167 608 84 522 84 409 c 3
EndSplineSet
Validated: 1
EndChar

